<?xml version="1.0" encoding="utf-8"?>
<!-- Generator: Adobe Illustrator 28.3.0, SVG Export Plug-In . SVG Version: 6.00 Build 0)  -->
<svg version="1.1" id="Layer_1" xmlns="http://www.w3.org/2000/svg" xmlns:xlink="http://www.w3.org/1999/xlink" x="0px" y="0px"
	 viewBox="0 0 933 663" style="enable-background:new 0 0 933 663;" xml:space="preserve">
<style type="text/css">
	.st0{clip-path:url(#SVGID_00000003099214035774089910000002704829406457600186_);}
	.st1{fill:#FFFFFF;}
	.st2{opacity:0.149;}
	.st3{fill:#262626;}
	.st4{enable-background:new    ;}
	.st5{fill:#0072BD;}
	.st6{fill:#FF0000;}
</style>
<g>
	<g>
		<g>
			<g>
				<defs>
					<rect id="SVGID_1_" width="933" height="663"/>
				</defs>
				<clipPath id="SVGID_00000140704437988772564050000017856461205987946908_">
					<use xlink:href="#SVGID_1_"  style="overflow:visible;"/>
				</clipPath>
				<g style="clip-path:url(#SVGID_00000140704437988772564050000017856461205987946908_);">
					<rect class="st1" width="933" height="663"/>
				</g>
			</g>
		</g>
	</g>
	<g>
		<g>
			<rect class="st1" width="933" height="663"/>
		</g>
		<g>
			<path class="st1" d="M121,591h724V50H121V591z"/>
		</g>
	</g>
	<g>
		<g class="st2">
			<g>
				<rect x="120.6" y="50" class="st3" width="0.8" height="541"/>
			</g>
		</g>
		<g class="st2">
			<g>
				<rect x="193" y="50" class="st3" width="0.8" height="541"/>
			</g>
		</g>
		<g class="st2">
			<g>
				<rect x="265.4" y="50" class="st3" width="0.8" height="541"/>
			</g>
		</g>
		<g class="st2">
			<g>
				<rect x="337.8" y="50" class="st3" width="0.8" height="541"/>
			</g>
		</g>
		<g class="st2">
			<g>
				<rect x="410.2" y="50" class="st3" width="0.8" height="541"/>
			</g>
		</g>
		<g class="st2">
			<g>
				<rect x="482.6" y="50" class="st3" width="0.8" height="541"/>
			</g>
		</g>
		<g class="st2">
			<g>
				<rect x="555" y="50" class="st3" width="0.8" height="541"/>
			</g>
		</g>
		<g class="st2">
			<g>
				<rect x="627.4" y="50" class="st3" width="0.8" height="541"/>
			</g>
		</g>
		<g class="st2">
			<g>
				<rect x="699.8" y="50" class="st3" width="0.8" height="541"/>
			</g>
		</g>
		<g class="st2">
			<g>
				<rect x="772.2" y="50" class="st3" width="0.8" height="541"/>
			</g>
		</g>
		<g class="st2">
			<g>
				<rect x="844.6" y="50" class="st3" width="0.8" height="541"/>
			</g>
		</g>
		<g class="st2">
			<g>
				<rect x="121" y="590.6" class="st3" width="724" height="0.8"/>
			</g>
		</g>
		<g class="st2">
			<g>
				<rect x="121" y="530.5" class="st3" width="724" height="0.8"/>
			</g>
		</g>
		<g class="st2">
			<g>
				<rect x="121" y="470.4" class="st3" width="724" height="0.8"/>
			</g>
		</g>
		<g class="st2">
			<g>
				<rect x="121" y="410.2" class="st3" width="724" height="0.8"/>
			</g>
		</g>
		<g class="st2">
			<g>
				<rect x="121" y="350.1" class="st3" width="724" height="0.8"/>
			</g>
		</g>
		<g class="st2">
			<g>
				<rect x="121" y="290" class="st3" width="724" height="0.8"/>
			</g>
		</g>
		<g class="st2">
			<g>
				<rect x="121" y="229.9" class="st3" width="724" height="0.8"/>
			</g>
		</g>
		<g class="st2">
			<g>
				<rect x="121" y="169.8" class="st3" width="724" height="0.8"/>
			</g>
		</g>
		<g class="st2">
			<g>
				<rect x="121" y="109.7" class="st3" width="724" height="0.8"/>
			</g>
		</g>
		<g class="st2">
			<g>
				<rect x="121" y="49.6" class="st3" width="724" height="0.8"/>
			</g>
		</g>
		<g>
			<g>
				<rect x="120.6" y="590.6" class="st3" width="724.8" height="0.8"/>
			</g>
		</g>
		<g>
			<g>
				<rect x="120.6" y="49.6" class="st3" width="724.8" height="0.8"/>
			</g>
		</g>
		<g>
			<g>
				<rect x="120.6" y="583.3" class="st3" width="0.8" height="8.1"/>
			</g>
		</g>
		<g>
			<g>
				<rect x="193" y="583.3" class="st3" width="0.8" height="8.1"/>
			</g>
		</g>
		<g>
			<g>
				<rect x="265.4" y="583.3" class="st3" width="0.8" height="8.1"/>
			</g>
		</g>
		<g>
			<g>
				<rect x="337.8" y="583.3" class="st3" width="0.8" height="8.1"/>
			</g>
		</g>
		<g>
			<g>
				<rect x="410.2" y="583.3" class="st3" width="0.8" height="8.1"/>
			</g>
		</g>
		<g>
			<g>
				<rect x="482.6" y="583.3" class="st3" width="0.8" height="8.1"/>
			</g>
		</g>
		<g>
			<g>
				<rect x="555" y="583.3" class="st3" width="0.8" height="8.1"/>
			</g>
		</g>
		<g>
			<g>
				<rect x="627.4" y="583.3" class="st3" width="0.8" height="8.1"/>
			</g>
		</g>
		<g>
			<g>
				<rect x="699.8" y="583.3" class="st3" width="0.8" height="8.1"/>
			</g>
		</g>
		<g>
			<g>
				<rect x="772.2" y="583.3" class="st3" width="0.8" height="8.1"/>
			</g>
		</g>
		<g>
			<g>
				<rect x="844.6" y="583.3" class="st3" width="0.8" height="8.1"/>
			</g>
		</g>
		<g>
			<g>
				<rect x="120.6" y="49.6" class="st3" width="0.8" height="8.1"/>
			</g>
		</g>
		<g>
			<g>
				<rect x="193" y="49.6" class="st3" width="0.8" height="8.1"/>
			</g>
		</g>
		<g>
			<g>
				<rect x="265.4" y="49.6" class="st3" width="0.8" height="8.1"/>
			</g>
		</g>
		<g>
			<g>
				<rect x="337.8" y="49.6" class="st3" width="0.8" height="8.1"/>
			</g>
		</g>
		<g>
			<g>
				<rect x="410.2" y="49.6" class="st3" width="0.8" height="8.1"/>
			</g>
		</g>
		<g>
			<g>
				<rect x="482.6" y="49.6" class="st3" width="0.8" height="8.1"/>
			</g>
		</g>
		<g>
			<g>
				<rect x="555" y="49.6" class="st3" width="0.8" height="8.1"/>
			</g>
		</g>
		<g>
			<g>
				<rect x="627.4" y="49.6" class="st3" width="0.8" height="8.1"/>
			</g>
		</g>
		<g>
			<g>
				<rect x="699.8" y="49.6" class="st3" width="0.8" height="8.1"/>
			</g>
		</g>
		<g>
			<g>
				<rect x="772.2" y="49.6" class="st3" width="0.8" height="8.1"/>
			</g>
		</g>
		<g>
			<g>
				<rect x="844.6" y="49.6" class="st3" width="0.8" height="8.1"/>
			</g>
		</g>
	</g>
	<g transform="translate(121,597.6667)">
		<g class="st4">
			<path class="st3" d="M-4.3,11.1c0-1.4,0.1-2.5,0.4-3.4c0.3-0.9,0.7-1.5,1.3-2S-1.3,5-0.4,5c0.6,0,1.2,0.1,1.7,0.4S2.1,6,2.5,6.5
				C2.8,7,3,7.6,3.2,8.3C3.4,9,3.5,9.9,3.5,11.1c0,1.4-0.1,2.5-0.4,3.4c-0.3,0.9-0.7,1.5-1.3,2c-0.6,0.5-1.3,0.7-2.2,0.7
				c-1.1,0-2.1-0.4-2.7-1.2C-3.9,15-4.3,13.4-4.3,11.1z M-2.8,11.1c0,2,0.2,3.3,0.7,3.9s1,1,1.7,1s1.2-0.3,1.7-1s0.7-2,0.7-3.9
				c0-2-0.2-3.3-0.7-3.9s-1-1-1.7-1c-0.7,0-1.2,0.3-1.6,0.9C-2.6,7.8-2.8,9.2-2.8,11.1z"/>
		</g>
	</g>
	<g transform="translate(193.4,597.6667)">
		<g class="st4">
			<path class="st3" d="M-11.3,11.1c0-1.4,0.1-2.5,0.4-3.4c0.3-0.9,0.7-1.5,1.3-2S-8.3,5-7.4,5c0.6,0,1.2,0.1,1.7,0.4
				S-4.9,6-4.5,6.5C-4.2,7-4,7.6-3.8,8.3c0.2,0.7,0.3,1.6,0.3,2.8c0,1.4-0.1,2.5-0.4,3.4c-0.3,0.9-0.7,1.5-1.3,2
				c-0.6,0.5-1.3,0.7-2.2,0.7c-1.1,0-2.1-0.4-2.7-1.2C-10.9,15-11.3,13.4-11.3,11.1z M-9.8,11.1c0,2,0.2,3.3,0.7,3.9s1,1,1.7,1
				s1.2-0.3,1.7-1s0.7-2,0.7-3.9c0-2-0.2-3.3-0.7-3.9s-1-1-1.7-1c-0.7,0-1.2,0.3-1.6,0.9C-9.6,7.8-9.8,9.2-9.8,11.1z"/>
			<path class="st3" d="M-1.2,17v-1.7h1.7V17H-1.2z"/>
			<path class="st3" d="M2.6,13.9l1.5-0.1c0.1,0.7,0.4,1.3,0.8,1.7S5.8,16,6.4,16c0.7,0,1.3-0.3,1.8-0.8c0.5-0.5,0.7-1.2,0.7-2.1
				c0-0.8-0.2-1.5-0.7-2c-0.5-0.5-1.1-0.7-1.8-0.7c-0.5,0-0.9,0.1-1.3,0.3c-0.4,0.2-0.7,0.5-0.9,0.8l-1.4-0.2L4,5.2h5.9v1.4H5.2
				L4.5,9.8C5.3,9.3,6,9.1,6.8,9.1c1,0,1.9,0.4,2.6,1.1c0.7,0.7,1.1,1.6,1.1,2.8c0,1.1-0.3,2-0.9,2.8c-0.8,1-1.8,1.4-3.1,1.4
				c-1.1,0-2-0.3-2.7-0.9C3.1,15.7,2.7,14.9,2.6,13.9z"/>
		</g>
	</g>
	<g transform="translate(265.8,597.6667)">
		<g class="st4">
			<path class="st3" d="M1.2,17h-1.5V7.7c-0.4,0.3-0.8,0.7-1.4,1C-2.2,9-2.7,9.3-3.2,9.4V8C-2.4,7.6-1.7,7.2-1,6.6
				C-0.4,6.1,0,5.5,0.3,5h0.9V17z"/>
		</g>
	</g>
	<g transform="translate(338.2,597.6667)">
		<g class="st4">
			<path class="st3" d="M-5.8,17h-1.5V7.7c-0.4,0.3-0.8,0.7-1.4,1C-9.2,9-9.7,9.3-10.2,9.4V8C-9.4,7.6-8.6,7.2-8,6.6
				C-7.4,6.1-7,5.5-6.7,5h0.9V17z"/>
			<path class="st3" d="M-1.2,17v-1.7h1.7V17H-1.2z"/>
			<path class="st3" d="M2.6,13.9l1.5-0.1c0.1,0.7,0.4,1.3,0.8,1.7S5.8,16,6.4,16c0.7,0,1.3-0.3,1.8-0.8c0.5-0.5,0.7-1.2,0.7-2.1
				c0-0.8-0.2-1.5-0.7-2c-0.5-0.5-1.1-0.7-1.8-0.7c-0.5,0-0.9,0.1-1.3,0.3c-0.4,0.2-0.7,0.5-0.9,0.8l-1.4-0.2L4,5.2h5.9v1.4H5.2
				L4.5,9.8C5.3,9.3,6,9.1,6.8,9.1c1,0,1.9,0.4,2.6,1.1c0.7,0.7,1.1,1.6,1.1,2.8c0,1.1-0.3,2-0.9,2.8c-0.8,1-1.8,1.4-3.1,1.4
				c-1.1,0-2-0.3-2.7-0.9C3.1,15.7,2.7,14.9,2.6,13.9z"/>
		</g>
	</g>
	<g transform="translate(410.6,597.6667)">
		<g class="st4">
			<path class="st3" d="M3.4,15.6V17h-7.9c0-0.4,0-0.7,0.2-1c0.2-0.5,0.5-1.1,1-1.6c0.4-0.5,1.1-1.1,1.9-1.8
				c1.3-1.1,2.2-1.9,2.6-2.5c0.5-0.6,0.7-1.2,0.7-1.8c0-0.6-0.2-1.1-0.6-1.5c-0.4-0.4-1-0.6-1.6-0.6c-0.7,0-1.3,0.2-1.7,0.6
				s-0.6,1-0.6,1.8l-1.5-0.2c0.1-1.1,0.5-2,1.2-2.6C-2.4,5.3-1.5,5-0.3,5c1.1,0,2.1,0.3,2.7,1s1,1.4,1,2.4c0,0.5-0.1,0.9-0.3,1.4
				s-0.5,0.9-1,1.5c-0.5,0.5-1.2,1.2-2.3,2.1C-1,14-1.6,14.5-1.8,14.8c-0.3,0.3-0.5,0.5-0.6,0.8H3.4z"/>
		</g>
	</g>
	<g transform="translate(483,597.6667)">
		<g class="st4">
			<path class="st3" d="M-3.6,15.6V17h-7.9c0-0.4,0-0.7,0.2-1c0.2-0.5,0.5-1.1,1-1.6c0.4-0.5,1.1-1.1,1.9-1.8
				c1.3-1.1,2.2-1.9,2.6-2.5c0.5-0.6,0.7-1.2,0.7-1.8c0-0.6-0.2-1.1-0.6-1.5c-0.4-0.4-1-0.6-1.6-0.6c-0.7,0-1.3,0.2-1.7,0.6
				s-0.6,1-0.6,1.8l-1.5-0.2c0.1-1.1,0.5-2,1.2-2.6C-9.4,5.3-8.5,5-7.3,5c1.1,0,2.1,0.3,2.7,1s1,1.4,1,2.4c0,0.5-0.1,0.9-0.3,1.4
				s-0.5,0.9-1,1.5c-0.5,0.5-1.2,1.2-2.3,2.1C-8,14-8.6,14.5-8.8,14.8c-0.2,0.3-0.5,0.5-0.6,0.8H-3.6z"/>
			<path class="st3" d="M-1.2,17v-1.7h1.7V17H-1.2z"/>
			<path class="st3" d="M2.6,13.9l1.5-0.1c0.1,0.7,0.4,1.3,0.8,1.7C5.3,15.8,5.8,16,6.4,16c0.7,0,1.3-0.3,1.8-0.8
				c0.5-0.5,0.7-1.2,0.7-2.1c0-0.8-0.2-1.5-0.7-2c-0.5-0.5-1.1-0.7-1.8-0.7c-0.5,0-0.9,0.1-1.3,0.3c-0.4,0.2-0.7,0.5-0.9,0.8
				l-1.4-0.2L4,5.2h5.9v1.4H5.2L4.5,9.8C5.3,9.3,6,9.1,6.8,9.1c1,0,1.9,0.4,2.6,1.1c0.7,0.7,1.1,1.6,1.1,2.8c0,1.1-0.3,2-0.9,2.8
				c-0.8,1-1.8,1.4-3.1,1.4c-1.1,0-2-0.3-2.7-0.9C3.1,15.7,2.7,14.9,2.6,13.9z"/>
		</g>
	</g>
	<g transform="translate(555.4,597.6667)">
		<g class="st4">
			<path class="st3" d="M-4.3,13.9l1.5-0.2c0.2,0.8,0.5,1.4,0.9,1.8c0.4,0.4,0.9,0.5,1.5,0.5c0.7,0,1.3-0.2,1.7-0.7
				C1.7,14.8,2,14.2,2,13.5c0-0.7-0.2-1.2-0.7-1.7s-1-0.7-1.7-0.7c-0.3,0-0.6,0.1-1,0.2l0.2-1.3c0.1,0,0.2,0,0.2,0
				c0.6,0,1.2-0.2,1.7-0.5c0.5-0.3,0.7-0.8,0.7-1.5c0-0.5-0.2-1-0.5-1.3C0.5,6.4,0,6.2-0.5,6.2c-0.6,0-1,0.2-1.4,0.5
				c-0.4,0.4-0.6,0.9-0.7,1.6l-1.5-0.3c0.2-1,0.6-1.7,1.2-2.3C-2.3,5.3-1.5,5-0.6,5c0.7,0,1.3,0.1,1.8,0.4c0.5,0.3,1,0.7,1.3,1.1
				c0.3,0.5,0.4,1,0.4,1.5c0,0.5-0.1,1-0.4,1.4c-0.3,0.4-0.7,0.8-1.2,1c0.7,0.2,1.3,0.5,1.6,1s0.6,1.2,0.6,1.9c0,1-0.4,1.9-1.1,2.6
				s-1.7,1.1-2.9,1.1c-1,0-1.9-0.3-2.6-0.9C-3.8,15.7-4.2,14.8-4.3,13.9z"/>
		</g>
	</g>
	<g transform="translate(627.8,597.6667)">
		<g class="st4">
			<path class="st3" d="M-11.3,13.9l1.5-0.2c0.2,0.8,0.5,1.4,0.9,1.8S-8.1,16-7.5,16c0.7,0,1.3-0.2,1.7-0.7S-5,14.2-5,13.5
				c0-0.7-0.2-1.2-0.7-1.7s-1-0.7-1.7-0.7c-0.3,0-0.6,0.1-1,0.2l0.2-1.3c0.1,0,0.2,0,0.2,0c0.6,0,1.2-0.2,1.7-0.5
				c0.5-0.3,0.7-0.8,0.7-1.5c0-0.5-0.2-1-0.5-1.3C-6.5,6.4-7,6.2-7.5,6.2c-0.6,0-1,0.2-1.4,0.5c-0.4,0.4-0.6,0.9-0.7,1.6l-1.5-0.3
				c0.2-1,0.6-1.7,1.2-2.3C-9.3,5.3-8.5,5-7.6,5c0.7,0,1.2,0.1,1.8,0.4c0.5,0.3,1,0.7,1.3,1.1c0.3,0.5,0.4,1,0.4,1.5
				c0,0.5-0.1,1-0.4,1.4s-0.7,0.8-1.2,1c0.7,0.2,1.3,0.5,1.6,1s0.6,1.2,0.6,1.9c0,1-0.4,1.9-1.1,2.6s-1.7,1.1-2.9,1.1
				c-1,0-1.9-0.3-2.6-0.9C-10.8,15.7-11.2,14.8-11.3,13.9z"/>
			<path class="st3" d="M-1.2,17v-1.7h1.7V17H-1.2z"/>
			<path class="st3" d="M2.6,13.9l1.5-0.1c0.1,0.7,0.4,1.3,0.8,1.7S5.8,16,6.4,16c0.7,0,1.3-0.3,1.8-0.8c0.5-0.5,0.7-1.2,0.7-2.1
				c0-0.8-0.2-1.5-0.7-2c-0.5-0.5-1.1-0.7-1.8-0.7c-0.5,0-0.9,0.1-1.3,0.3c-0.4,0.2-0.7,0.5-0.9,0.8l-1.4-0.2L4,5.2h5.9v1.4H5.2
				L4.5,9.8C5.3,9.3,6,9.1,6.8,9.1c1,0,1.9,0.4,2.6,1.1c0.7,0.7,1.1,1.6,1.1,2.8c0,1.1-0.3,2-0.9,2.8c-0.8,1-1.8,1.4-3.1,1.4
				c-1.1,0-2-0.3-2.7-0.9S2.7,14.9,2.6,13.9z"/>
		</g>
	</g>
	<g transform="translate(700.2,597.6667)">
		<g class="st4">
			<path class="st3" d="M0.4,17v-2.9h-5.2v-1.3l5.4-7.7h1.2v7.7h1.6v1.3H1.9V17H0.4z M0.4,12.8V7.4l-3.7,5.4H0.4z"/>
		</g>
	</g>
	<g transform="translate(772.6,597.6667)">
		<g class="st4">
			<path class="st3" d="M-6.6,17v-2.9h-5.2v-1.3l5.4-7.7h1.2v7.7h1.6v1.3h-1.6V17H-6.6z M-6.6,12.8V7.4l-3.7,5.4H-6.6z"/>
			<path class="st3" d="M-1.2,17v-1.7h1.7V17H-1.2z"/>
			<path class="st3" d="M2.6,13.9l1.5-0.1c0.1,0.7,0.4,1.3,0.8,1.7S5.8,16,6.4,16c0.7,0,1.3-0.3,1.8-0.8c0.5-0.5,0.7-1.2,0.7-2.1
				c0-0.8-0.2-1.5-0.7-2c-0.5-0.5-1.1-0.7-1.8-0.7c-0.5,0-0.9,0.1-1.3,0.3c-0.4,0.2-0.7,0.5-0.9,0.8l-1.4-0.2L4,5.2h5.9v1.4H5.2
				L4.5,9.8C5.3,9.3,6,9.1,6.8,9.1c1,0,1.9,0.4,2.6,1.1c0.7,0.7,1.1,1.6,1.1,2.8c0,1.1-0.3,2-0.9,2.8c-0.8,1-1.8,1.4-3.1,1.4
				c-1.1,0-2-0.3-2.7-0.9S2.7,14.9,2.6,13.9z"/>
		</g>
	</g>
	<g transform="translate(845,597.6667)">
		<g class="st4">
			<path class="st3" d="M-4.3,13.9l1.5-0.1c0.1,0.7,0.4,1.3,0.8,1.7S-1.1,16-0.5,16c0.7,0,1.3-0.3,1.8-0.8C1.8,14.7,2,14,2,13.1
				c0-0.8-0.2-1.5-0.7-2c-0.5-0.5-1.1-0.7-1.8-0.7c-0.5,0-0.9,0.1-1.3,0.3c-0.4,0.2-0.7,0.5-0.9,0.8L-4,11.4l1.2-6.1H3v1.4h-4.8
				l-0.6,3.2c0.7-0.5,1.5-0.7,2.3-0.7c1,0,1.9,0.4,2.6,1.1c0.7,0.7,1.1,1.6,1.1,2.8c0,1.1-0.3,2-0.9,2.8c-0.8,1-1.8,1.4-3.1,1.4
				c-1.1,0-2-0.3-2.7-0.9C-3.8,15.7-4.2,14.9-4.3,13.9z"/>
		</g>
	</g>
	<g transform="translate(483.0003,620.3333)">
		<g class="st4">
			<path class="st3" d="M-29.2,19V7.4h-4.3V5.9h10.4v1.5h-4.3V19H-29.2z"/>
			<path class="st3" d="M-22.3,7.7V5.9h1.6v1.9H-22.3z M-22.3,19V9.5h1.6V19H-22.3z"/>
			<path class="st3" d="M-18.2,19V9.5h1.4v1.3c0.3-0.5,0.7-0.8,1.2-1.1c0.5-0.3,1.1-0.4,1.7-0.4c0.7,0,1.3,0.1,1.7,0.4
				c0.5,0.3,0.8,0.7,1,1.2c0.8-1.1,1.7-1.7,2.9-1.7c0.9,0,1.7,0.3,2.2,0.8c0.5,0.5,0.8,1.3,0.8,2.4V19h-1.6v-6
				c0-0.6-0.1-1.1-0.2-1.4s-0.3-0.5-0.6-0.7s-0.6-0.3-1-0.3c-0.7,0-1.2,0.2-1.7,0.7c-0.4,0.4-0.7,1.2-0.7,2.1V19h-1.6v-6.2
				c0-0.7-0.1-1.3-0.4-1.6s-0.7-0.5-1.3-0.5c-0.5,0-0.9,0.1-1.3,0.4c-0.4,0.2-0.7,0.6-0.8,1c-0.2,0.5-0.3,1.1-0.3,2V19H-18.2z"/>
			<path class="st3" d="M3.6,15.9l1.7,0.2c-0.3,1-0.7,1.7-1.5,2.3c-0.7,0.5-1.6,0.8-2.7,0.8c-1.4,0-2.5-0.4-3.3-1.3
				s-1.2-2.1-1.2-3.6c0-1.6,0.4-2.8,1.2-3.7C-1.4,9.7-0.3,9.3,1,9.3c1.3,0,2.3,0.4,3.1,1.3s1.2,2.1,1.2,3.7c0,0.1,0,0.2,0,0.4h-7.1
				c0.1,1,0.4,1.8,0.9,2.4s1.2,0.8,2,0.8c0.6,0,1.1-0.2,1.5-0.5C3,17.1,3.3,16.6,3.6,15.9z M-1.7,13.3h5.3c-0.1-0.8-0.3-1.4-0.6-1.8
				c-0.5-0.6-1.2-0.9-2-0.9c-0.7,0-1.4,0.2-1.9,0.7C-1.4,11.8-1.7,12.5-1.7,13.3z"/>
			<path class="st3" d="M15.4,22.9c-0.9-1.1-1.6-2.4-2.3-3.9c-0.6-1.5-0.9-3.1-0.9-4.7c0-1.4,0.2-2.8,0.7-4.1c0.5-1.5,1.4-3,2.5-4.5
				h1.2c-0.7,1.2-1.2,2.1-1.4,2.7c-0.4,0.8-0.7,1.7-0.9,2.6c-0.3,1.1-0.4,2.2-0.4,3.4c0,2.9,0.9,5.7,2.7,8.6H15.4z"/>
			<path class="st3" d="M17.8,16.2l1.6-0.2c0.1,0.6,0.3,1.1,0.7,1.5c0.4,0.3,1,0.5,1.7,0.5c0.7,0,1.3-0.2,1.6-0.5
				c0.4-0.3,0.5-0.7,0.5-1.1c0-0.4-0.2-0.7-0.5-0.9c-0.2-0.1-0.8-0.3-1.6-0.5c-1.2-0.3-2-0.6-2.5-0.8c-0.5-0.2-0.8-0.5-1-0.9
				c-0.2-0.4-0.4-0.8-0.4-1.3c0-0.4,0.1-0.8,0.3-1.2c0.2-0.4,0.5-0.7,0.8-0.9c0.3-0.2,0.6-0.3,1-0.5c0.4-0.1,0.9-0.2,1.4-0.2
				c0.7,0,1.4,0.1,2,0.3c0.6,0.2,1,0.5,1.2,0.9s0.5,0.9,0.6,1.5l-1.6,0.2c-0.1-0.5-0.3-0.9-0.6-1.1c-0.3-0.3-0.8-0.4-1.5-0.4
				c-0.7,0-1.3,0.1-1.6,0.4c-0.3,0.2-0.5,0.5-0.5,0.9c0,0.2,0.1,0.4,0.2,0.6c0.1,0.2,0.3,0.3,0.6,0.4c0.2,0.1,0.6,0.2,1.4,0.4
				c1.1,0.3,1.9,0.6,2.4,0.7c0.5,0.2,0.8,0.5,1.1,0.8c0.3,0.4,0.4,0.8,0.4,1.4c0,0.5-0.2,1-0.5,1.5c-0.3,0.5-0.8,0.8-1.4,1.1
				s-1.3,0.4-2,0.4c-1.2,0-2.2-0.3-2.8-0.8C18.4,17.9,18,17.2,17.8,16.2z"/>
			<path class="st3" d="M28.7,22.9h-1.2c1.8-2.9,2.7-5.7,2.7-8.6c0-1.1-0.1-2.2-0.4-3.3C29.6,10,29.3,9.2,29,8.3
				c-0.2-0.5-0.7-1.4-1.4-2.7h1.2c1.1,1.5,2,3,2.5,4.5c0.5,1.3,0.7,2.7,0.7,4.1c0,1.6-0.3,3.2-0.9,4.7
				C30.3,20.4,29.6,21.7,28.7,22.9z"/>
		</g>
	</g>
	<g>
		<g>
			<rect x="120.6" y="49.6" class="st3" width="0.8" height="541.8"/>
		</g>
		<g>
			<rect x="844.6" y="49.6" class="st3" width="0.8" height="541.8"/>
		</g>
		<g>
			<rect x="120.6" y="590.6" class="st3" width="8" height="0.8"/>
		</g>
		<g>
			<rect x="120.6" y="530.5" class="st3" width="8" height="0.8"/>
		</g>
		<g>
			<rect x="120.6" y="470.4" class="st3" width="8" height="0.8"/>
		</g>
		<g>
			<rect x="120.6" y="410.3" class="st3" width="8" height="0.8"/>
		</g>
		<g>
			<rect x="120.6" y="350.2" class="st3" width="8" height="0.8"/>
		</g>
		<g>
			<rect x="120.6" y="290" class="st3" width="8" height="0.8"/>
		</g>
		<g>
			<rect x="120.6" y="229.9" class="st3" width="8" height="0.8"/>
		</g>
		<g>
			<rect x="120.6" y="169.8" class="st3" width="8" height="0.8"/>
		</g>
		<g>
			<rect x="120.6" y="109.7" class="st3" width="8" height="0.8"/>
		</g>
		<g>
			<rect x="120.6" y="49.6" class="st3" width="8" height="0.8"/>
		</g>
		<g>
			<rect x="837.4" y="590.6" class="st3" width="8" height="0.8"/>
		</g>
		<g>
			<rect x="837.4" y="530.5" class="st3" width="8" height="0.8"/>
		</g>
		<g>
			<rect x="837.4" y="470.4" class="st3" width="8" height="0.8"/>
		</g>
		<g>
			<rect x="837.4" y="410.3" class="st3" width="8" height="0.8"/>
		</g>
		<g>
			<rect x="837.4" y="350.2" class="st3" width="8" height="0.8"/>
		</g>
		<g>
			<rect x="837.4" y="290" class="st3" width="8" height="0.8"/>
		</g>
		<g>
			<rect x="837.4" y="229.9" class="st3" width="8" height="0.8"/>
		</g>
		<g>
			<rect x="837.4" y="169.8" class="st3" width="8" height="0.8"/>
		</g>
		<g>
			<rect x="837.4" y="109.7" class="st3" width="8" height="0.8"/>
		</g>
		<g>
			<rect x="837.4" y="49.6" class="st3" width="8" height="0.8"/>
		</g>
	</g>
	<g transform="translate(114.3333,591)">
		<g class="st4">
			<path class="st3" d="M-14.5,2.9V1.4h4.5v1.5H-14.5z"/>
			<path class="st3" d="M-1.1,5.1v1.4h-7.9c0-0.4,0-0.7,0.2-1c0.2-0.5,0.5-1.1,1-1.6c0.4-0.5,1.1-1.1,1.9-1.8
				C-4.6,1-3.7,0.2-3.3-0.4c0.5-0.6,0.7-1.2,0.7-1.8c0-0.6-0.2-1.1-0.6-1.5c-0.4-0.4-1-0.6-1.6-0.6c-0.7,0-1.3,0.2-1.7,0.6
				s-0.6,1-0.6,1.8L-8.7-2c0.1-1.1,0.5-2,1.2-2.6c0.7-0.6,1.6-0.9,2.7-0.9c1.1,0,2.1,0.3,2.7,1s1,1.4,1,2.4c0,0.5-0.1,0.9-0.3,1.4
				s-0.5,0.9-1,1.5c-0.5,0.5-1.2,1.2-2.3,2.1C-5.5,3.5-6,4-6.3,4.3c-0.2,0.3-0.5,0.5-0.6,0.8H-1.1z"/>
		</g>
	</g>
	<g transform="translate(114.3333,530.8889)">
		<g class="st4">
			<path class="st3" d="M-28.5,2.9V1.4h4.5v1.5H-28.5z"/>
			<path class="st3" d="M-17.2,6.5h-1.5v-9.3c-0.4,0.3-0.8,0.7-1.4,1c-0.6,0.3-1.1,0.6-1.5,0.8v-1.4c0.8-0.4,1.5-0.9,2.1-1.4
				c0.6-0.5,1-1.1,1.3-1.6h0.9V6.5z"/>
			<path class="st3" d="M-12.7,6.5V4.8h1.7v1.7H-12.7z"/>
			<path class="st3" d="M-8.9,3.4l1.5-0.1C-7.2,4-6.9,4.6-6.5,4.9S-5.6,5.5-5,5.5c0.7,0,1.3-0.3,1.8-0.8c0.5-0.5,0.7-1.2,0.7-2.1
				c0-0.8-0.2-1.5-0.7-2C-3.7,0.1-4.3-0.1-5-0.1c-0.5,0-0.9,0.1-1.3,0.3C-6.7,0.4-7,0.7-7.2,1l-1.4-0.2l1.2-6.1h5.9v1.4h-4.8
				l-0.6,3.2c0.7-0.5,1.5-0.7,2.3-0.7c1,0,1.9,0.4,2.6,1.1c0.7,0.7,1.1,1.6,1.1,2.8c0,1.1-0.3,2-0.9,2.8c-0.8,1-1.8,1.4-3.1,1.4
				c-1.1,0-2-0.3-2.7-0.9C-8.4,5.2-8.8,4.4-8.9,3.4z"/>
		</g>
	</g>
	<g transform="translate(114.3333,470.7778)">
		<g class="st4">
			<path class="st3" d="M-14.5,2.9V1.4h4.5v1.5H-14.5z"/>
			<path class="st3" d="M-3.2,6.5h-1.5v-9.3c-0.4,0.3-0.8,0.7-1.4,1s-1.1,0.6-1.5,0.8v-1.4c0.8-0.4,1.5-0.9,2.1-1.4
				c0.6-0.5,1-1.1,1.3-1.6h0.9V6.5z"/>
		</g>
	</g>
	<g transform="translate(114.3333,410.6667)">
		<g class="st4">
			<path class="st3" d="M-28.5,2.9V1.4h4.5v1.5H-28.5z"/>
			<path class="st3" d="M-22.8,0.6c0-1.4,0.1-2.5,0.4-3.4c0.3-0.9,0.7-1.5,1.3-2s1.3-0.7,2.2-0.7c0.6,0,1.2,0.1,1.7,0.4
				S-16.3-4.5-16-4c0.3,0.5,0.6,1.1,0.7,1.8c0.2,0.7,0.3,1.6,0.3,2.8c0,1.4-0.1,2.5-0.4,3.4c-0.3,0.9-0.7,1.5-1.3,2
				c-0.6,0.5-1.3,0.7-2.2,0.7c-1.1,0-2.1-0.4-2.7-1.2C-22.4,4.5-22.8,2.9-22.8,0.6z M-21.3,0.6c0,2,0.2,3.3,0.7,3.9s1,1,1.7,1
				s1.2-0.3,1.7-1s0.7-2,0.7-3.9c0-2-0.2-3.3-0.7-3.9s-1-1-1.7-1c-0.7,0-1.2,0.3-1.6,0.9C-21-2.7-21.3-1.3-21.3,0.6z"/>
			<path class="st3" d="M-12.7,6.5V4.8h1.7v1.7H-12.7z"/>
			<path class="st3" d="M-8.9,3.4l1.5-0.1C-7.2,4-6.9,4.6-6.5,4.9S-5.6,5.5-5,5.5c0.7,0,1.3-0.3,1.8-0.8c0.5-0.5,0.7-1.2,0.7-2.1
				c0-0.8-0.2-1.5-0.7-2C-3.7,0.1-4.3-0.1-5-0.1c-0.5,0-0.9,0.1-1.3,0.3C-6.7,0.4-7,0.7-7.2,1l-1.4-0.2l1.2-6.1h5.9v1.4h-4.8
				l-0.6,3.2c0.7-0.5,1.5-0.7,2.3-0.7c1,0,1.9,0.4,2.6,1.1c0.7,0.7,1.1,1.6,1.1,2.8c0,1.1-0.3,2-0.9,2.8c-0.8,1-1.8,1.4-3.1,1.4
				c-1.1,0-2-0.3-2.7-0.9C-8.4,5.2-8.8,4.4-8.9,3.4z"/>
		</g>
	</g>
	<g transform="translate(114.3333,350.5555)">
		<g class="st4">
			<path class="st3" d="M-9.3,0.6c0-1.4,0.1-2.5,0.4-3.4c0.3-0.9,0.7-1.5,1.3-2s1.3-0.7,2.2-0.7c0.6,0,1.2,0.1,1.7,0.4
				S-2.9-4.5-2.5-4C-2.2-3.5-2-2.9-1.8-2.2c0.2,0.7,0.3,1.6,0.3,2.8C-1.5,2-1.7,3.1-2,4c-0.3,0.9-0.7,1.5-1.3,2
				c-0.6,0.5-1.3,0.7-2.2,0.7c-1.1,0-2.1-0.4-2.7-1.2C-8.9,4.5-9.3,2.9-9.3,0.6z M-7.8,0.6c0,2,0.2,3.3,0.7,3.9s1,1,1.7,1
				s1.2-0.3,1.7-1S-3,2.6-3,0.6c0-2-0.2-3.3-0.7-3.9s-1-1-1.7-1C-6.1-4.3-6.6-4-7-3.4C-7.6-2.7-7.8-1.3-7.8,0.6z"/>
		</g>
	</g>
	<g transform="translate(114.3333,290.4445)">
		<g class="st4">
			<path class="st3" d="M-23.3,0.6c0-1.4,0.1-2.5,0.4-3.4c0.3-0.9,0.7-1.5,1.3-2s1.3-0.7,2.2-0.7c0.6,0,1.2,0.1,1.7,0.4
				s0.9,0.6,1.2,1.1c0.3,0.5,0.6,1.1,0.7,1.8c0.2,0.7,0.3,1.6,0.3,2.8c0,1.4-0.1,2.5-0.4,3.4c-0.3,0.9-0.7,1.5-1.3,2
				c-0.6,0.5-1.3,0.7-2.2,0.7c-1.1,0-2.1-0.4-2.7-1.2C-22.9,4.5-23.3,2.9-23.3,0.6z M-21.8,0.6c0,2,0.2,3.3,0.7,3.9s1,1,1.7,1
				s1.2-0.3,1.7-1s0.7-2,0.7-3.9c0-2-0.2-3.3-0.7-3.9s-1-1-1.7-1c-0.7,0-1.2,0.3-1.6,0.9C-21.6-2.7-21.8-1.3-21.8,0.6z"/>
			<path class="st3" d="M-13.2,6.5V4.8h1.7v1.7H-13.2z"/>
			<path class="st3" d="M-9.4,3.4l1.5-0.1C-7.8,4-7.5,4.6-7.1,4.9s0.9,0.6,1.5,0.6c0.7,0,1.3-0.3,1.8-0.8c0.5-0.5,0.7-1.2,0.7-2.1
				c0-0.8-0.2-1.5-0.7-2c-0.5-0.5-1.1-0.7-1.8-0.7c-0.5,0-0.9,0.1-1.3,0.3C-7.3,0.4-7.6,0.7-7.8,1l-1.4-0.2L-8-5.3h5.9v1.4h-4.8
				l-0.6,3.2C-6.7-1.2-6-1.4-5.2-1.4c1,0,1.9,0.4,2.6,1.1c0.7,0.7,1.1,1.6,1.1,2.8c0,1.1-0.3,2-0.9,2.8c-0.8,1-1.8,1.4-3.1,1.4
				c-1.1,0-2-0.3-2.7-0.9C-8.9,5.2-9.3,4.4-9.4,3.4z"/>
		</g>
	</g>
	<g transform="translate(114.3333,230.3333)">
		<g class="st4">
			<path class="st3" d="M-3.8,6.5h-1.5v-9.3c-0.4,0.3-0.8,0.7-1.4,1c-0.6,0.3-1.1,0.6-1.5,0.8v-1.4C-7.4-2.9-6.6-3.3-6-3.9
				C-5.4-4.4-5-5-4.7-5.5h0.9V6.5z"/>
		</g>
	</g>
	<g transform="translate(114.3333,170.2222)">
		<g class="st4">
			<path class="st3" d="M-17.8,6.5h-1.5v-9.3c-0.4,0.3-0.8,0.7-1.4,1c-0.6,0.3-1.1,0.6-1.5,0.8v-1.4c0.8-0.4,1.5-0.9,2.1-1.4
				c0.6-0.5,1-1.1,1.3-1.6h0.9V6.5z"/>
			<path class="st3" d="M-13.2,6.5V4.8h1.7v1.7H-13.2z"/>
			<path class="st3" d="M-9.4,3.4l1.5-0.1C-7.8,4-7.5,4.6-7.1,4.9s0.9,0.6,1.5,0.6c0.7,0,1.3-0.3,1.8-0.8c0.5-0.5,0.7-1.2,0.7-2.1
				c0-0.8-0.2-1.5-0.7-2c-0.5-0.5-1.1-0.7-1.8-0.7c-0.5,0-0.9,0.1-1.3,0.3C-7.3,0.4-7.6,0.7-7.8,1l-1.4-0.2L-8-5.3h5.9v1.4h-4.8
				l-0.6,3.2C-6.7-1.2-6-1.4-5.2-1.4c1,0,1.9,0.4,2.6,1.1c0.7,0.7,1.1,1.6,1.1,2.8c0,1.1-0.3,2-0.9,2.8c-0.8,1-1.8,1.4-3.1,1.4
				c-1.1,0-2-0.3-2.7-0.9C-8.9,5.2-9.3,4.4-9.4,3.4z"/>
		</g>
	</g>
	<g transform="translate(114.3333,110.1111)">
		<g class="st4">
			<path class="st3" d="M-1.6,5.1v1.4h-7.9c0-0.4,0-0.7,0.2-1c0.2-0.5,0.5-1.1,1-1.6c0.4-0.5,1.1-1.1,1.9-1.8
				C-5.1,1-4.3,0.2-3.8-0.4c0.5-0.6,0.7-1.2,0.7-1.8c0-0.6-0.2-1.1-0.6-1.5c-0.4-0.4-1-0.6-1.6-0.6c-0.7,0-1.3,0.2-1.7,0.6
				s-0.6,1-0.6,1.8L-9.2-2c0.1-1.1,0.5-2,1.2-2.6c0.7-0.6,1.6-0.9,2.7-0.9c1.1,0,2.1,0.3,2.7,1s1,1.4,1,2.4c0,0.5-0.1,0.9-0.3,1.4
				s-0.5,0.9-1,1.5c-0.5,0.5-1.2,1.2-2.3,2.1C-6,3.5-6.6,4-6.8,4.3c-0.2,0.3-0.5,0.5-0.6,0.8H-1.6z"/>
		</g>
	</g>
	<g transform="translate(114.3333,50)">
		<g class="st4">
			<path class="st3" d="M-15.6,5.1v1.4h-7.9c0-0.4,0-0.7,0.2-1c0.2-0.5,0.5-1.1,1-1.6c0.4-0.5,1.1-1.1,1.9-1.8
				c1.3-1.1,2.2-1.9,2.6-2.5c0.5-0.6,0.7-1.2,0.7-1.8c0-0.6-0.2-1.1-0.6-1.5c-0.4-0.4-1-0.6-1.6-0.6c-0.7,0-1.3,0.2-1.7,0.6
				s-0.6,1-0.6,1.8L-23.2-2c0.1-1.1,0.5-2,1.2-2.6c0.7-0.6,1.6-0.9,2.7-0.9c1.1,0,2.1,0.3,2.7,1s1,1.4,1,2.4c0,0.5-0.1,0.9-0.3,1.4
				s-0.5,0.9-1,1.5c-0.5,0.5-1.2,1.2-2.3,2.1C-20,3.5-20.6,4-20.8,4.3c-0.2,0.3-0.5,0.5-0.6,0.8H-15.6z"/>
			<path class="st3" d="M-13.2,6.5V4.8h1.7v1.7H-13.2z"/>
			<path class="st3" d="M-9.4,3.4l1.5-0.1C-7.8,4-7.5,4.6-7.1,4.9s0.9,0.6,1.5,0.6c0.7,0,1.3-0.3,1.8-0.8c0.5-0.5,0.7-1.2,0.7-2.1
				c0-0.8-0.2-1.5-0.7-2c-0.5-0.5-1.1-0.7-1.8-0.7c-0.5,0-0.9,0.1-1.3,0.3C-7.3,0.4-7.6,0.7-7.8,1l-1.4-0.2L-8-5.3h5.9v1.4h-4.8
				l-0.6,3.2C-6.7-1.2-6-1.4-5.2-1.4c1,0,1.9,0.4,2.6,1.1c0.7,0.7,1.1,1.6,1.1,2.8c0,1.1-0.3,2-0.9,2.8c-0.8,1-1.8,1.4-3.1,1.4
				c-1.1,0-2-0.3-2.7-0.9C-8.9,5.2-9.3,4.4-9.4,3.4z"/>
		</g>
	</g>
	<g transform="translate(80.3333,320.4998) rotate(-90)">
		<g class="st4">
			<path class="st3" d="M-105.5-5l5-13.1h1.9L-93.2-5h-2l-1.5-4h-5.5l-1.4,4H-105.5z M-101.7-10.4h4.4l-1.4-3.6
				c-0.4-1.1-0.7-2-0.9-2.7c-0.2,0.8-0.4,1.7-0.7,2.5L-101.7-10.4z"/>
			<path class="st3" d="M-92.1-5v-9.5h1.5v1.4c0.7-1,1.7-1.6,3-1.6c0.6,0,1.1,0.1,1.6,0.3s0.8,0.5,1.1,0.8c0.2,0.3,0.4,0.7,0.5,1.2
				c0.1,0.3,0.1,0.8,0.1,1.6V-5h-1.6v-5.8c0-0.7-0.1-1.1-0.2-1.5c-0.1-0.3-0.3-0.6-0.7-0.8c-0.3-0.2-0.7-0.3-1.1-0.3
				c-0.7,0-1.3,0.2-1.8,0.7s-0.7,1.3-0.7,2.5V-5H-92.1z"/>
			<path class="st3" d="M-82.2-4.2l1.6,0.2c0.1,0.5,0.2,0.8,0.5,1.1c0.4,0.3,0.9,0.4,1.6,0.4c0.7,0,1.3-0.1,1.7-0.4
				c0.4-0.3,0.7-0.7,0.8-1.3c0.1-0.3,0.1-1,0.1-2.1C-76.4-5.4-77.3-5-78.4-5c-1.3,0-2.3-0.5-3-1.4c-0.7-0.9-1.1-2.1-1.1-3.4
				c0-0.9,0.2-1.7,0.5-2.5c0.3-0.8,0.8-1.4,1.4-1.8c0.6-0.4,1.4-0.6,2.2-0.6c1.1,0,2,0.5,2.8,1.4v-1.1h1.5v8.2
				c0,1.5-0.2,2.5-0.5,3.1C-74.9-2.5-75.3-2-76-1.7c-0.7,0.4-1.5,0.5-2.4,0.5c-1.1,0-2.1-0.3-2.7-0.8C-81.8-2.4-82.2-3.2-82.2-4.2z
				 M-80.8-9.9c0,1.2,0.2,2.2,0.7,2.7c0.5,0.6,1.1,0.9,1.9,0.9c0.7,0,1.4-0.3,1.9-0.9c0.5-0.6,0.8-1.5,0.8-2.7c0-1.2-0.3-2-0.8-2.6
				c-0.5-0.6-1.1-0.9-1.9-0.9c-0.7,0-1.3,0.3-1.8,0.9C-80.6-11.9-80.8-11.1-80.8-9.9z"/>
			<path class="st3" d="M-65.4-5v-1.4c-0.7,1.1-1.7,1.6-3,1.6c-0.6,0-1.1-0.1-1.6-0.3s-0.8-0.5-1.1-0.8c-0.2-0.3-0.4-0.7-0.5-1.2
				c-0.1-0.3-0.1-0.8-0.1-1.5v-5.9h1.6v5.3c0,0.8,0,1.4,0.1,1.7c0.1,0.4,0.3,0.8,0.6,1c0.3,0.2,0.7,0.4,1.2,0.4s0.9-0.1,1.4-0.4
				c0.4-0.2,0.7-0.6,0.9-1s0.3-1,0.3-1.9v-5.1h1.6V-5H-65.4z"/>
			<path class="st3" d="M-61.5-5v-13.1h1.6V-5H-61.5z"/>
			<path class="st3" d="M-51.2-6.2c-0.6,0.5-1.2,0.9-1.7,1.1c-0.6,0.2-1.1,0.3-1.8,0.3c-1,0-1.8-0.3-2.4-0.8c-0.6-0.5-0.8-1.2-0.8-2
				c0-0.5,0.1-0.9,0.3-1.3c0.2-0.4,0.5-0.7,0.8-0.9c0.3-0.2,0.7-0.4,1.2-0.5c0.3-0.1,0.8-0.2,1.4-0.2c1.3-0.2,2.3-0.3,2.9-0.6
				c0-0.2,0-0.4,0-0.4c0-0.7-0.2-1.1-0.5-1.4c-0.4-0.4-1-0.5-1.8-0.5c-0.8,0-1.3,0.1-1.7,0.4c-0.4,0.3-0.6,0.7-0.8,1.4l-1.6-0.2
				c0.1-0.7,0.4-1.2,0.7-1.6c0.3-0.4,0.8-0.7,1.4-1s1.3-0.3,2.2-0.3c0.8,0,1.5,0.1,2,0.3c0.5,0.2,0.9,0.4,1.1,0.7
				c0.2,0.3,0.4,0.7,0.5,1.1c0.1,0.3,0.1,0.8,0.1,1.5V-9c0,1.5,0,2.4,0.1,2.8c0.1,0.4,0.2,0.8,0.4,1.1h-1.7
				C-51-5.3-51.2-5.7-51.2-6.2z M-51.3-9.8c-0.6,0.2-1.5,0.4-2.6,0.6c-0.7,0.1-1.1,0.2-1.4,0.3c-0.3,0.1-0.5,0.3-0.6,0.5
				c-0.1,0.2-0.2,0.5-0.2,0.8c0,0.4,0.2,0.8,0.5,1.1c0.3,0.3,0.8,0.4,1.4,0.4c0.6,0,1.2-0.1,1.7-0.4c0.5-0.3,0.8-0.6,1.1-1.1
				c0.2-0.4,0.3-0.9,0.3-1.6V-9.8z"/>
			<path class="st3" d="M-47.2-5v-9.5h1.5v1.4c0.4-0.7,0.7-1.1,1-1.3s0.7-0.3,1-0.3c0.5,0,1.1,0.2,1.7,0.5l-0.6,1.5
				c-0.4-0.2-0.8-0.3-1.2-0.3c-0.4,0-0.7,0.1-0.9,0.3c-0.3,0.2-0.5,0.5-0.6,0.9c-0.2,0.6-0.3,1.2-0.3,1.9v5H-47.2z"/>
			<path class="st3" d="M-35.8-5v-13.1h4.9c0.9,0,1.5,0,2,0.1c0.6,0.1,1.2,0.3,1.6,0.6s0.8,0.7,1.1,1.3c0.3,0.5,0.4,1.1,0.4,1.8
				c0,1.1-0.4,2.1-1.1,2.8c-0.7,0.8-2,1.2-3.8,1.2h-3.4V-5H-35.8z M-34.1-11.9h3.4c1.1,0,1.9-0.2,2.4-0.6c0.5-0.4,0.7-1,0.7-1.8
				c0-0.5-0.1-1-0.4-1.4c-0.3-0.4-0.6-0.6-1.1-0.8c-0.3-0.1-0.8-0.1-1.6-0.1h-3.4V-11.9z"/>
			<path class="st3" d="M-24.4-9.8c0-1.8,0.5-3.1,1.5-3.9c0.8-0.7,1.8-1.1,3-1.1c1.3,0,2.4,0.4,3.2,1.3c0.8,0.9,1.2,2,1.2,3.5
				c0,1.2-0.2,2.2-0.5,2.9c-0.4,0.7-0.9,1.2-1.6,1.6s-1.5,0.6-2.3,0.6c-1.3,0-2.4-0.4-3.2-1.3C-24-6.9-24.4-8.1-24.4-9.8z
				 M-22.7-9.8c0,1.2,0.3,2.1,0.8,2.7s1.2,0.9,2,0.9c0.8,0,1.5-0.3,2-0.9c0.5-0.6,0.8-1.5,0.8-2.8c0-1.2-0.3-2.1-0.8-2.7
				c-0.5-0.6-1.2-0.9-2-0.9c-0.8,0-1.5,0.3-2,0.9S-22.7-11-22.7-9.8z"/>
			<path class="st3" d="M-14.2-7.8l1.6-0.2c0.1,0.6,0.3,1.1,0.7,1.5c0.4,0.3,1,0.5,1.7,0.5c0.7,0,1.3-0.2,1.6-0.5
				C-8.2-6.9-8-7.2-8-7.6C-8-8-8.1-8.3-8.5-8.5C-8.7-8.6-9.2-8.8-10.1-9c-1.2-0.3-2-0.6-2.5-0.8c-0.5-0.2-0.8-0.5-1-0.9
				S-14-11.5-14-12c0-0.4,0.1-0.8,0.3-1.2c0.2-0.4,0.5-0.7,0.8-0.9c0.3-0.2,0.6-0.3,1-0.5c0.4-0.1,0.9-0.2,1.4-0.2
				c0.7,0,1.4,0.1,2,0.3s1,0.5,1.2,0.9s0.5,0.9,0.6,1.5l-1.6,0.2c-0.1-0.5-0.3-0.9-0.6-1.1c-0.3-0.3-0.8-0.4-1.5-0.4
				c-0.7,0-1.3,0.1-1.6,0.4c-0.3,0.2-0.5,0.5-0.5,0.9c0,0.2,0.1,0.4,0.2,0.6c0.1,0.2,0.3,0.3,0.6,0.4c0.2,0.1,0.6,0.2,1.4,0.4
				c1.1,0.3,1.9,0.6,2.4,0.7C-7.3-9.8-7-9.5-6.7-9.2c0.3,0.4,0.4,0.8,0.4,1.4c0,0.5-0.2,1-0.5,1.5c-0.3,0.5-0.8,0.8-1.4,1.1
				s-1.3,0.4-2,0.4c-1.2,0-2.2-0.3-2.8-0.8C-13.6-6.1-14-6.8-14.2-7.8z"/>
			<path class="st3" d="M-4.4-16.3v-1.9h1.6v1.9H-4.4z M-4.4-5v-9.5h1.6V-5H-4.4z"/>
			<path class="st3" d="M3.2-6.4L3.4-5C3-4.9,2.5-4.9,2.2-4.9c-0.6,0-1-0.1-1.4-0.3C0.5-5.3,0.3-5.6,0.1-5.9C0-6.2,0-6.8,0-7.8v-5.5
				h-1.2v-1.3H0v-2.4l1.6-1v3.3h1.6v1.3H1.6v5.6c0,0.5,0,0.8,0.1,0.9c0.1,0.1,0.1,0.2,0.3,0.3C2-6.4,2.2-6.4,2.5-6.4
				C2.6-6.4,2.9-6.4,3.2-6.4z"/>
			<path class="st3" d="M4.8-16.3v-1.9h1.6v1.9H4.8z M4.8-5v-9.5h1.6V-5H4.8z"/>
			<path class="st3" d="M8.2-9.8c0-1.8,0.5-3.1,1.5-3.9c0.8-0.7,1.8-1.1,3-1.1c1.3,0,2.4,0.4,3.2,1.3c0.8,0.9,1.2,2,1.2,3.5
				c0,1.2-0.2,2.2-0.6,2.9c-0.4,0.7-0.9,1.2-1.6,1.6s-1.5,0.6-2.3,0.6c-1.3,0-2.4-0.4-3.2-1.3C8.6-6.9,8.2-8.1,8.2-9.8z M9.9-9.8
				c0,1.2,0.3,2.1,0.8,2.7s1.2,0.9,2,0.9c0.8,0,1.5-0.3,2-0.9c0.5-0.6,0.8-1.5,0.8-2.8c0-1.2-0.3-2.1-0.8-2.7
				c-0.5-0.6-1.2-0.9-2-0.9c-0.8,0-1.5,0.3-2,0.9S9.9-11,9.9-9.8z"/>
			<path class="st3" d="M19-5v-9.5h1.5v1.4c0.7-1,1.7-1.6,3-1.6c0.6,0,1.1,0.1,1.6,0.3s0.8,0.5,1.1,0.8c0.2,0.3,0.4,0.7,0.5,1.2
				c0.1,0.3,0.1,0.8,0.1,1.6V-5h-1.6v-5.8c0-0.7-0.1-1.1-0.2-1.5c-0.1-0.3-0.3-0.6-0.7-0.8s-0.7-0.3-1.1-0.3c-0.7,0-1.3,0.2-1.8,0.7
				c-0.5,0.4-0.7,1.3-0.7,2.5V-5H19z"/>
			<path class="st3" d="M37.4-1.1c-0.9-1.1-1.6-2.4-2.3-3.9c-0.6-1.5-0.9-3.1-0.9-4.7c0-1.4,0.2-2.8,0.7-4.1c0.5-1.5,1.4-3,2.5-4.5
				h1.2c-0.7,1.2-1.2,2.1-1.4,2.7c-0.4,0.8-0.7,1.7-0.9,2.6c-0.3,1.1-0.4,2.2-0.4,3.4c0,2.9,0.9,5.7,2.7,8.6H37.4z"/>
			<path class="st3" d="M40.4-5v-9.5h1.5v1.4c0.4-0.7,0.7-1.1,1-1.3c0.3-0.2,0.7-0.3,1-0.3c0.5,0,1.1,0.2,1.7,0.5L45-12.7
				c-0.4-0.2-0.8-0.3-1.2-0.3c-0.4,0-0.7,0.1-0.9,0.3c-0.3,0.2-0.5,0.5-0.6,0.9C42.1-11.3,42-10.7,42-10v5H40.4z"/>
			<path class="st3" d="M52.7-6.2c-0.6,0.5-1.2,0.9-1.7,1.1c-0.6,0.2-1.1,0.3-1.8,0.3c-1,0-1.8-0.3-2.4-0.8c-0.6-0.5-0.8-1.2-0.8-2
				c0-0.5,0.1-0.9,0.3-1.3c0.2-0.4,0.5-0.7,0.8-0.9c0.3-0.2,0.7-0.4,1.2-0.5c0.3-0.1,0.8-0.2,1.4-0.2c1.3-0.2,2.3-0.3,2.9-0.6
				c0-0.2,0-0.4,0-0.4c0-0.7-0.2-1.1-0.5-1.4c-0.4-0.4-1-0.5-1.8-0.5c-0.8,0-1.3,0.1-1.7,0.4c-0.4,0.3-0.6,0.7-0.8,1.4l-1.6-0.2
				c0.1-0.7,0.4-1.2,0.7-1.6c0.3-0.4,0.8-0.7,1.4-1s1.3-0.3,2.2-0.3c0.8,0,1.5,0.1,2,0.3c0.5,0.2,0.9,0.4,1.1,0.7
				c0.2,0.3,0.4,0.7,0.5,1.1c0.1,0.3,0.1,0.8,0.1,1.5V-9c0,1.5,0,2.4,0.1,2.8c0.1,0.4,0.2,0.8,0.4,1.1H53
				C52.9-5.3,52.8-5.7,52.7-6.2z M52.6-9.8C52-9.5,51.1-9.3,50-9.2c-0.7,0.1-1.1,0.2-1.4,0.3c-0.3,0.1-0.5,0.3-0.6,0.5
				c-0.1,0.2-0.2,0.5-0.2,0.8c0,0.4,0.2,0.8,0.5,1.1C48.5-6.2,49-6,49.6-6c0.6,0,1.2-0.1,1.7-0.4c0.5-0.3,0.8-0.6,1.1-1.1
				c0.2-0.4,0.3-0.9,0.3-1.6V-9.8z"/>
			<path class="st3" d="M62.9-5v-1.2c-0.6,0.9-1.5,1.4-2.7,1.4c-0.8,0-1.5-0.2-2.1-0.6c-0.6-0.4-1.1-1-1.5-1.8s-0.5-1.6-0.5-2.6
				c0-0.9,0.2-1.8,0.5-2.6c0.3-0.8,0.8-1.4,1.4-1.8c0.6-0.4,1.3-0.6,2.1-0.6c0.6,0,1.1,0.1,1.5,0.4c0.4,0.2,0.8,0.6,1.1,0.9v-4.7
				h1.6V-5H62.9z M57.8-9.7c0,1.2,0.3,2.1,0.8,2.7c0.5,0.6,1.1,0.9,1.8,0.9c0.7,0,1.3-0.3,1.8-0.9s0.7-1.5,0.7-2.6
				c0-1.3-0.3-2.3-0.8-2.9c-0.5-0.6-1.1-0.9-1.9-0.9c-0.7,0-1.3,0.3-1.8,0.9S57.8-11,57.8-9.7z"/>
			<path class="st3" d="M66.9-16.3v-1.9h1.6v1.9H66.9z M66.9-5v-9.5h1.6V-5H66.9z"/>
			<path class="st3" d="M77.2-6.2c-0.6,0.5-1.2,0.9-1.7,1.1c-0.6,0.2-1.1,0.3-1.8,0.3c-1,0-1.8-0.3-2.4-0.8c-0.6-0.5-0.8-1.2-0.8-2
				c0-0.5,0.1-0.9,0.3-1.3c0.2-0.4,0.5-0.7,0.8-0.9c0.3-0.2,0.7-0.4,1.2-0.5c0.3-0.1,0.8-0.2,1.4-0.2c1.3-0.2,2.3-0.3,2.9-0.6
				c0-0.2,0-0.4,0-0.4c0-0.7-0.2-1.1-0.5-1.4c-0.4-0.4-1-0.5-1.8-0.5c-0.8,0-1.3,0.1-1.7,0.4c-0.4,0.3-0.6,0.7-0.8,1.4l-1.6-0.2
				c0.1-0.7,0.4-1.2,0.7-1.6c0.3-0.4,0.8-0.7,1.4-1s1.3-0.3,2.2-0.3c0.8,0,1.5,0.1,2,0.3c0.5,0.2,0.9,0.4,1.1,0.7
				c0.2,0.3,0.4,0.7,0.5,1.1c0.1,0.3,0.1,0.8,0.1,1.5V-9c0,1.5,0,2.4,0.1,2.8C78.9-5.7,79-5.4,79.2-5h-1.7
				C77.3-5.3,77.2-5.7,77.2-6.2z M77.1-9.8c-0.6,0.2-1.5,0.4-2.6,0.6C73.8-9.1,73.3-9,73-8.8c-0.3,0.1-0.5,0.3-0.6,0.5
				c-0.1,0.2-0.2,0.5-0.2,0.8c0,0.4,0.2,0.8,0.5,1.1C73-6.2,73.4-6,74.1-6c0.6,0,1.2-0.1,1.7-0.4c0.5-0.3,0.8-0.6,1.1-1.1
				c0.2-0.4,0.3-0.9,0.3-1.6V-9.8z"/>
			<path class="st3" d="M81.2-5v-9.5h1.5v1.4c0.7-1,1.7-1.6,3-1.6c0.6,0,1.1,0.1,1.6,0.3s0.8,0.5,1.1,0.8c0.2,0.3,0.4,0.7,0.5,1.2
				c0.1,0.3,0.1,0.8,0.1,1.6V-5h-1.6v-5.8c0-0.7-0.1-1.1-0.2-1.5c-0.1-0.3-0.3-0.6-0.7-0.8s-0.7-0.3-1.1-0.3c-0.7,0-1.3,0.2-1.8,0.7
				c-0.5,0.4-0.7,1.3-0.7,2.5V-5H81.2z"/>
			<path class="st3" d="M90.7-7.8l1.6-0.2c0.1,0.6,0.3,1.1,0.7,1.5s1,0.5,1.7,0.5c0.7,0,1.3-0.2,1.6-0.5C96.8-6.9,97-7.2,97-7.6
				c0-0.4-0.2-0.7-0.5-0.9c-0.2-0.1-0.8-0.3-1.6-0.5c-1.2-0.3-2-0.6-2.5-0.8s-0.8-0.5-1-0.9S91-11.5,91-12c0-0.4,0.1-0.8,0.3-1.2
				c0.2-0.4,0.5-0.7,0.8-0.9c0.3-0.2,0.6-0.3,1-0.5c0.4-0.1,0.9-0.2,1.4-0.2c0.7,0,1.4,0.1,2,0.3s1,0.5,1.2,0.9s0.5,0.9,0.6,1.5
				l-1.6,0.2c-0.1-0.5-0.3-0.9-0.6-1.1c-0.3-0.3-0.8-0.4-1.5-0.4c-0.7,0-1.3,0.1-1.6,0.4c-0.3,0.2-0.5,0.5-0.5,0.9
				c0,0.2,0.1,0.4,0.2,0.6c0.1,0.2,0.3,0.3,0.6,0.4c0.2,0.1,0.6,0.2,1.4,0.4c1.1,0.3,1.9,0.6,2.4,0.7c0.5,0.2,0.8,0.5,1.1,0.8
				c0.3,0.4,0.4,0.8,0.4,1.4c0,0.5-0.2,1-0.5,1.5c-0.3,0.5-0.8,0.8-1.4,1.1s-1.3,0.4-2,0.4c-1.2,0-2.2-0.3-2.8-0.8
				C91.3-6.1,90.9-6.8,90.7-7.8z"/>
			<path class="st3" d="M101.6-1.1h-1.2c1.8-2.9,2.7-5.7,2.7-8.6c0-1.1-0.1-2.2-0.4-3.3c-0.2-0.9-0.5-1.8-0.9-2.6
				c-0.2-0.5-0.7-1.4-1.4-2.7h1.2c1.1,1.5,2,3,2.5,4.5c0.5,1.3,0.7,2.7,0.7,4.1c0,1.6-0.3,3.2-0.9,4.7
				C103.2-3.6,102.5-2.3,101.6-1.1z"/>
		</g>
	</g>
	<g transform="translate(483.0005,47.25)">
		<g class="st4">
			<path d="M-179.7-5v-13.1h5.6c1.4,0,2.4,0.1,3.1,0.4c0.6,0.2,1.1,0.7,1.5,1.3s0.6,1.3,0.6,2.1c0,1-0.3,1.8-0.9,2.4
				c-0.6,0.6-1.4,1-2.6,1.2c0.6,0.3,1,0.7,1.4,1.1c0.4,0.4,0.9,1.1,1.5,2.1l1.6,2.6h-3.2l-1.9-2.9c-0.7-1-1.1-1.7-1.4-1.9
				c-0.3-0.3-0.5-0.4-0.8-0.5c-0.3-0.1-0.7-0.1-1.3-0.1h-0.5V-5H-179.7z M-177-12.6h2c1.3,0,2.1-0.1,2.4-0.2s0.6-0.3,0.7-0.6
				s0.3-0.6,0.3-1c0-0.4-0.1-0.8-0.4-1.1c-0.2-0.3-0.6-0.4-1-0.5c-0.2,0-0.9,0-1.9,0h-2.1V-12.6z"/>
			<path d="M-167-9.9c0-0.8,0.2-1.6,0.6-2.4c0.4-0.8,1-1.4,1.8-1.8c0.8-0.4,1.6-0.6,2.5-0.6c1.4,0,2.6,0.5,3.5,1.4
				c0.9,0.9,1.4,2.1,1.4,3.5c0,1.4-0.5,2.6-1.4,3.6c-0.9,0.9-2.1,1.4-3.5,1.4c-0.9,0-1.7-0.2-2.5-0.6c-0.8-0.4-1.4-1-1.8-1.7
				C-166.8-7.9-167-8.8-167-9.9z M-164.4-9.8c0,0.9,0.2,1.7,0.7,2.2c0.4,0.5,1,0.8,1.7,0.8c0.7,0,1.2-0.3,1.7-0.8
				c0.4-0.5,0.7-1.2,0.7-2.2c0-0.9-0.2-1.6-0.7-2.1c-0.4-0.5-1-0.8-1.7-0.8c-0.7,0-1.2,0.3-1.7,0.8
				C-164.2-11.4-164.4-10.7-164.4-9.8z"/>
			<path d="M-147-11.7l-2.5,0.4c-0.1-0.5-0.3-0.9-0.6-1.1s-0.7-0.4-1.2-0.4c-0.6,0-1.1,0.2-1.5,0.6c-0.4,0.4-0.6,1.2-0.6,2.2
				c0,1.1,0.2,1.9,0.6,2.4s0.9,0.7,1.5,0.7c0.5,0,0.9-0.1,1.2-0.4c0.3-0.3,0.5-0.7,0.6-1.4l2.5,0.4c-0.3,1.1-0.7,2-1.5,2.6
				s-1.7,0.9-2.9,0.9c-1.4,0-2.5-0.4-3.3-1.3c-0.8-0.9-1.2-2.1-1.2-3.6c0-1.6,0.4-2.8,1.2-3.7c0.8-0.9,2-1.3,3.4-1.3
				c1.2,0,2.1,0.2,2.8,0.7C-147.7-13.5-147.3-12.7-147-11.7z"/>
			<path d="M-145.1-5v-13.1h2.5v7l2.9-3.3h3.1l-3.2,3.5l3.5,6h-2.7l-2.4-4.3l-1.2,1.2v3H-145.1z"/>
			<path d="M-136-14.5h2.7l2.3,6.8l2.2-6.8h2.6l-3.4,9.1l-0.6,1.7c-0.2,0.6-0.4,1-0.6,1.3c-0.2,0.3-0.4,0.5-0.7,0.7
				c-0.3,0.2-0.6,0.3-1,0.4c-0.4,0.1-0.8,0.2-1.3,0.2c-0.5,0-1-0.1-1.4-0.2l-0.2-2c0.4,0.1,0.7,0.1,1.1,0.1c0.6,0,1-0.2,1.3-0.5
				c0.3-0.3,0.5-0.8,0.6-1.3L-136-14.5z"/>
			<path d="M-124.7-13.5l-0.5-2.4v-2.2h2.7v2.2l-0.4,2.4H-124.7z"/>
			<path d="M-121.2-7.7l2.5-0.4c0.1,0.5,0.3,0.9,0.7,1.1c0.3,0.3,0.8,0.4,1.4,0.4c0.7,0,1.1-0.1,1.5-0.4c0.2-0.2,0.3-0.4,0.3-0.7
				c0-0.2-0.1-0.3-0.2-0.5c-0.1-0.1-0.4-0.2-0.8-0.3c-2-0.4-3.3-0.9-3.9-1.2c-0.8-0.5-1.1-1.2-1.1-2.1c0-0.8,0.3-1.5,1-2.1
				c0.7-0.6,1.7-0.8,3-0.8c1.3,0,2.3,0.2,2.9,0.6c0.6,0.4,1.1,1,1.3,1.9l-2.4,0.4c-0.1-0.4-0.3-0.7-0.6-0.9
				c-0.3-0.2-0.7-0.3-1.2-0.3c-0.7,0-1.1,0.1-1.4,0.3c-0.2,0.1-0.3,0.3-0.3,0.5c0,0.2,0.1,0.3,0.3,0.5c0.2,0.2,1,0.4,2.4,0.7
				s2.3,0.7,2.8,1.1c0.5,0.4,0.8,1.1,0.8,1.9c0,0.9-0.4,1.6-1.1,2.2c-0.7,0.6-1.8,0.9-3.2,0.9c-1.3,0-2.3-0.3-3.1-0.8
				C-120.5-6.1-121-6.8-121.2-7.7z"/>
			<path d="M-93.8-5h-2.9l-1.1-3h-5.2l-1.1,3h-2.8l5.1-13.1h2.8L-93.8-5z M-98.7-10.2l-1.8-4.9l-1.8,4.9H-98.7z"/>
			<path d="M-83.8-5h-2.5v-4.9c0-1-0.1-1.7-0.2-2c-0.1-0.3-0.3-0.5-0.5-0.7c-0.2-0.2-0.5-0.3-0.9-0.3c-0.4,0-0.8,0.1-1.2,0.4
				c-0.3,0.2-0.6,0.6-0.7,0.9c-0.1,0.4-0.2,1.1-0.2,2.2V-5h-2.5v-9.5h2.3v1.4c0.8-1.1,1.9-1.6,3.1-1.6c0.6,0,1.1,0.1,1.5,0.3
				c0.5,0.2,0.8,0.5,1,0.8s0.4,0.7,0.5,1.1c0.1,0.4,0.1,1,0.1,1.7V-5z"/>
			<path d="M-81.5-4.4l2.9,0.3c0,0.3,0.2,0.6,0.3,0.7c0.2,0.2,0.6,0.3,1.1,0.3c0.7,0,1.1-0.1,1.5-0.3c0.2-0.1,0.4-0.3,0.5-0.6
				c0.1-0.2,0.1-0.6,0.1-1.2v-1.4c-0.8,1-1.7,1.5-2.8,1.5c-1.3,0-2.3-0.5-3-1.6c-0.6-0.9-0.9-1.9-0.9-3.2c0-1.6,0.4-2.8,1.2-3.7
				c0.8-0.8,1.7-1.3,2.9-1.3c1.2,0,2.1,0.5,2.9,1.5v-1.3h2.4V-6c0,1.1-0.1,2-0.3,2.5c-0.2,0.6-0.4,1-0.8,1.3
				c-0.3,0.3-0.8,0.6-1.3,0.7c-0.6,0.2-1.3,0.3-2.1,0.3c-1.6,0-2.8-0.3-3.4-0.8c-0.7-0.6-1-1.3-1-2.1C-81.5-4.2-81.5-4.3-81.5-4.4z
				 M-79.2-10c0,1,0.2,1.7,0.6,2.2c0.4,0.5,0.9,0.7,1.4,0.7c0.6,0,1.1-0.2,1.6-0.7c0.4-0.5,0.6-1.2,0.6-2.1c0-1-0.2-1.7-0.6-2.2
				c-0.4-0.5-0.9-0.7-1.5-0.7c-0.6,0-1.1,0.2-1.5,0.7C-79-11.6-79.2-10.9-79.2-10z"/>
			<path d="M-63.8-5v-1.4c-0.3,0.5-0.8,0.9-1.4,1.2c-0.6,0.3-1.2,0.4-1.8,0.4c-0.6,0-1.2-0.1-1.7-0.4c-0.5-0.3-0.9-0.7-1.1-1.2
				c-0.2-0.5-0.3-1.2-0.3-2.1v-6h2.5v4.4c0,1.3,0,2.2,0.1,2.5c0.1,0.3,0.3,0.5,0.5,0.7c0.2,0.2,0.6,0.3,0.9,0.3
				c0.4,0,0.8-0.1,1.2-0.4c0.3-0.2,0.6-0.5,0.7-0.9C-64-8.3-64-9.1-64-10.5v-4h2.5V-5H-63.8z"/>
			<path d="M-58.9-5v-13.1h2.5V-5H-58.9z"/>
			<path d="M-51.9-11.6l-2.3-0.4c0.3-0.9,0.7-1.6,1.3-2c0.6-0.4,1.6-0.7,2.8-0.7c1.1,0,2,0.1,2.5,0.4c0.5,0.3,0.9,0.6,1.2,1
				c0.2,0.4,0.3,1.2,0.3,2.3l0,2.9c0,0.8,0,1.5,0.1,1.8c0.1,0.4,0.2,0.8,0.5,1.3H-48c-0.1-0.2-0.1-0.4-0.2-0.7
				c0-0.1-0.1-0.2-0.1-0.3c-0.4,0.4-0.9,0.7-1.4,0.9s-1,0.3-1.6,0.3c-1,0-1.8-0.3-2.3-0.8s-0.8-1.2-0.8-2c0-0.5,0.1-1,0.4-1.4
				c0.3-0.4,0.6-0.7,1.1-1c0.5-0.2,1.1-0.4,2-0.6c1.2-0.2,2-0.4,2.4-0.6v-0.3c0-0.5-0.1-0.8-0.4-1s-0.7-0.3-1.4-0.3
				c-0.4,0-0.8,0.1-1,0.3C-51.5-12.4-51.7-12-51.9-11.6z M-48.5-9.6c-0.3,0.1-0.8,0.2-1.5,0.4s-1.2,0.3-1.4,0.4
				c-0.3,0.2-0.5,0.5-0.5,0.9c0,0.4,0.1,0.7,0.4,0.9c0.3,0.3,0.6,0.4,1,0.4c0.5,0,0.9-0.1,1.3-0.4c0.3-0.2,0.5-0.5,0.6-0.8
				c0.1-0.2,0.1-0.6,0.1-1.2V-9.6z"/>
			<path d="M-41.2-5h-2.5v-9.5h2.3v1.4c0.4-0.6,0.8-1.1,1.1-1.3s0.7-0.3,1.1-0.3c0.6,0,1.1,0.2,1.7,0.5l-0.8,2.2
				c-0.4-0.3-0.8-0.4-1.2-0.4c-0.4,0-0.7,0.1-0.9,0.3s-0.4,0.5-0.6,1.1c-0.1,0.5-0.2,1.6-0.2,3.2V-5z"/>
			<path d="M-31.3-5v-13.1h4.3c1.6,0,2.7,0.1,3.2,0.2c0.8,0.2,1.4,0.6,1.9,1.3c0.5,0.7,0.8,1.5,0.8,2.6c0,0.8-0.1,1.5-0.4,2
				c-0.3,0.5-0.7,1-1.1,1.3s-0.9,0.5-1.4,0.6c-0.6,0.1-1.5,0.2-2.7,0.2h-1.7v5H-31.3z M-28.7-15.9v3.7h1.5c1,0,1.7-0.1,2.1-0.2
				c0.4-0.1,0.6-0.4,0.8-0.6c0.2-0.3,0.3-0.6,0.3-1c0-0.5-0.1-0.9-0.4-1.2c-0.3-0.3-0.6-0.5-1.1-0.6c-0.3-0.1-1-0.1-1.9-0.1H-28.7z"
				/>
			<path d="M-19.7-9.9c0-0.8,0.2-1.6,0.6-2.4c0.4-0.8,1-1.4,1.8-1.8c0.8-0.4,1.6-0.6,2.5-0.6c1.4,0,2.6,0.5,3.5,1.4
				c0.9,0.9,1.4,2.1,1.4,3.5c0,1.4-0.5,2.6-1.4,3.6c-0.9,0.9-2.1,1.4-3.5,1.4c-0.9,0-1.7-0.2-2.5-0.6c-0.8-0.4-1.4-1-1.8-1.7
				C-19.5-7.9-19.7-8.8-19.7-9.9z M-17.1-9.8c0,0.9,0.2,1.7,0.7,2.2c0.4,0.5,1,0.8,1.7,0.8c0.7,0,1.2-0.3,1.7-0.8
				c0.4-0.5,0.7-1.2,0.7-2.2c0-0.9-0.2-1.6-0.7-2.1c-0.4-0.5-1-0.8-1.7-0.8c-0.7,0-1.2,0.3-1.7,0.8C-16.9-11.4-17.1-10.7-17.1-9.8z"
				/>
			<path d="M-8.8-7.7l2.5-0.4C-6.2-7.6-5.9-7.2-5.6-7c0.3,0.3,0.8,0.4,1.4,0.4c0.7,0,1.1-0.1,1.5-0.4c0.2-0.2,0.3-0.4,0.3-0.7
				c0-0.2-0.1-0.3-0.2-0.5C-2.7-8.2-3-8.3-3.5-8.4c-2-0.4-3.3-0.9-3.9-1.2c-0.8-0.5-1.1-1.2-1.1-2.1c0-0.8,0.3-1.5,1-2.1
				c0.7-0.6,1.7-0.8,3-0.8c1.3,0,2.3,0.2,2.9,0.6s1.1,1,1.3,1.9l-2.4,0.4c-0.1-0.4-0.3-0.7-0.6-0.9c-0.3-0.2-0.7-0.3-1.2-0.3
				c-0.7,0-1.1,0.1-1.4,0.3c-0.2,0.1-0.3,0.3-0.3,0.5c0,0.2,0.1,0.3,0.3,0.5c0.2,0.2,1,0.4,2.3,0.7s2.3,0.7,2.8,1.1
				C-0.2-9.4,0.1-8.8,0.1-8c0,0.9-0.4,1.6-1.1,2.2c-0.7,0.6-1.8,0.9-3.2,0.9c-1.3,0-2.3-0.3-3.1-0.8C-8.1-6.1-8.6-6.8-8.8-7.7z"/>
			<path d="M2.3-15.8v-2.3h2.5v2.3H2.3z M2.3-5v-9.5h2.5V-5H2.3z"/>
			<path d="M11.7-14.5v2H10v3.8c0,0.8,0,1.2,0,1.4c0,0.1,0.1,0.2,0.2,0.3c0.1,0.1,0.3,0.1,0.4,0.1c0.2,0,0.6-0.1,1-0.2l0.2,2
				c-0.6,0.3-1.2,0.4-2,0.4C9.5-4.8,9.1-4.9,8.7-5C8.4-5.2,8.1-5.4,7.9-5.6c-0.2-0.2-0.3-0.6-0.4-1C7.5-6.9,7.5-7.5,7.5-8.4v-4.1
				H6.3v-2h1.2v-1.9l2.5-1.5v3.4H11.7z"/>
			<path d="M13.5-15.8v-2.3H16v2.3H13.5z M13.5-5v-9.5H16V-5H13.5z"/>
			<path d="M18-9.9c0-0.8,0.2-1.6,0.6-2.4c0.4-0.8,1-1.4,1.8-1.8c0.8-0.4,1.6-0.6,2.5-0.6c1.4,0,2.6,0.5,3.5,1.4
				c0.9,0.9,1.4,2.1,1.4,3.5c0,1.4-0.5,2.6-1.4,3.6c-0.9,0.9-2.1,1.4-3.5,1.4c-0.9,0-1.7-0.2-2.5-0.6c-0.8-0.4-1.4-1-1.8-1.7
				S18-8.8,18-9.9z M20.6-9.8c0,0.9,0.2,1.7,0.7,2.2c0.4,0.5,1,0.8,1.7,0.8s1.2-0.3,1.7-0.8c0.4-0.5,0.7-1.2,0.7-2.2
				c0-0.9-0.2-1.6-0.7-2.1c-0.4-0.5-1-0.8-1.7-0.8s-1.2,0.3-1.7,0.8C20.8-11.4,20.6-10.7,20.6-9.8z"/>
			<path d="M38.4-5h-2.5v-4.9c0-1-0.1-1.7-0.2-2c-0.1-0.3-0.3-0.5-0.5-0.7c-0.2-0.2-0.5-0.3-0.9-0.3c-0.4,0-0.8,0.1-1.2,0.4
				c-0.3,0.2-0.6,0.6-0.7,0.9c-0.1,0.4-0.2,1.1-0.2,2.2V-5h-2.5v-9.5h2.3v1.4c0.8-1.1,1.9-1.6,3.1-1.6c0.6,0,1.1,0.1,1.5,0.3
				c0.5,0.2,0.8,0.5,1,0.8s0.4,0.7,0.5,1.1c0.1,0.4,0.1,1,0.1,1.7V-5z"/>
			<path d="M48-5l-3.1-13.1h2.7l2,9l2.4-9h3.2L57.4-9l2-9.2H62L58.9-5H56l-2.6-9.8L50.8-5H48z"/>
			<path d="M65.9-18.1v4.8c0.8-0.9,1.8-1.4,2.9-1.4c0.6,0,1.1,0.1,1.6,0.3c0.5,0.2,0.8,0.5,1.1,0.8c0.2,0.3,0.4,0.7,0.5,1.1
				c0.1,0.4,0.1,1,0.1,1.9V-5h-2.5v-5c0-1,0-1.6-0.1-1.9c-0.1-0.3-0.3-0.5-0.5-0.6s-0.5-0.2-0.9-0.2c-0.4,0-0.8,0.1-1.1,0.3
				c-0.3,0.2-0.6,0.5-0.7,0.9c-0.2,0.4-0.2,1-0.2,1.8V-5h-2.5v-13.1H65.9z"/>
			<path d="M74.6-15.8v-2.3h2.5v2.3H74.6z M74.6-5v-9.5h2.5V-5H74.6z"/>
			<path d="M79.7-5v-13.1h2.5V-5H79.7z"/>
			<path d="M90.3-8l2.5,0.4c-0.3,0.9-0.8,1.6-1.5,2.1s-1.6,0.7-2.6,0.7c-1.7,0-2.9-0.5-3.7-1.6c-0.6-0.9-0.9-2-0.9-3.3
				c0-1.6,0.4-2.8,1.2-3.7c0.8-0.9,1.9-1.3,3.1-1.3c1.4,0,2.5,0.5,3.3,1.4c0.8,0.9,1.2,2.4,1.2,4.3h-6.3c0,0.7,0.2,1.3,0.6,1.7
				c0.4,0.4,0.9,0.6,1.4,0.6c0.4,0,0.7-0.1,1-0.3S90.1-7.5,90.3-8z M90.4-10.6c0-0.7-0.2-1.3-0.6-1.7c-0.4-0.4-0.8-0.6-1.3-0.6
				c-0.5,0-1,0.2-1.4,0.6c-0.4,0.4-0.5,0.9-0.5,1.6H90.4z"/>
			<path d="M99.4-9.3l2.6-0.3c0.2,0.9,0.5,1.5,0.9,1.9c0.5,0.4,1.1,0.6,1.9,0.6c0.9,0,1.5-0.2,1.9-0.5s0.6-0.8,0.6-1.3
				c0-0.3-0.1-0.6-0.3-0.8s-0.5-0.4-1-0.6c-0.3-0.1-1-0.3-2.1-0.6c-1.4-0.4-2.4-0.8-3-1.3c-0.8-0.7-1.2-1.6-1.2-2.6
				c0-0.7,0.2-1.3,0.6-1.9c0.4-0.6,0.9-1,1.6-1.3c0.7-0.3,1.6-0.5,2.6-0.5c1.6,0,2.9,0.4,3.7,1.1c0.8,0.7,1.3,1.7,1.3,2.9l-2.6,0.1
				c-0.1-0.7-0.4-1.2-0.7-1.5c-0.4-0.3-0.9-0.4-1.7-0.4c-0.8,0-1.4,0.2-1.8,0.5c-0.3,0.2-0.4,0.5-0.4,0.8c0,0.3,0.1,0.6,0.4,0.8
				c0.3,0.3,1.1,0.6,2.4,0.9c1.3,0.3,2.2,0.6,2.9,0.9c0.6,0.3,1.1,0.8,1.5,1.3c0.3,0.6,0.5,1.3,0.5,2.1c0,0.8-0.2,1.5-0.6,2.1
				s-1,1.1-1.8,1.5c-0.8,0.3-1.7,0.5-2.9,0.5c-1.7,0-2.9-0.4-3.8-1.2C100.1-6.7,99.6-7.8,99.4-9.3z"/>
			<path d="M114.1-5l-3-9.5h2.4l1.8,6.2l1.6-6.2h2.4l1.6,6.2l1.8-6.2h2.5L122.2-5h-2.4l-1.6-6.1L116.5-5H114.1z"/>
			<path d="M126.5-15.8v-2.3h2.5v2.3H126.5z M126.5-5v-9.5h2.5V-5H126.5z"/>
			<path d="M140.3-5h-2.5v-4.9c0-1-0.1-1.7-0.2-2c-0.1-0.3-0.3-0.5-0.5-0.7c-0.2-0.2-0.5-0.3-0.9-0.3c-0.4,0-0.8,0.1-1.2,0.4
				c-0.3,0.2-0.6,0.6-0.7,0.9c-0.1,0.4-0.2,1.1-0.2,2.2V-5h-2.5v-9.5h2.3v1.4c0.8-1.1,1.9-1.6,3.1-1.6c0.6,0,1.1,0.1,1.5,0.3
				c0.5,0.2,0.8,0.5,1,0.8s0.4,0.7,0.5,1.1c0.1,0.4,0.1,1,0.1,1.7V-5z"/>
			<path d="M142.6-4.4l2.9,0.3c0,0.3,0.2,0.6,0.3,0.7c0.2,0.2,0.6,0.3,1.1,0.3c0.7,0,1.1-0.1,1.5-0.3c0.2-0.1,0.4-0.3,0.5-0.6
				c0.1-0.2,0.1-0.6,0.1-1.2v-1.4c-0.8,1-1.7,1.5-2.8,1.5c-1.3,0-2.3-0.5-3-1.6c-0.6-0.9-0.9-1.9-0.9-3.2c0-1.6,0.4-2.8,1.2-3.7
				c0.8-0.8,1.7-1.3,2.9-1.3c1.2,0,2.1,0.5,2.9,1.5v-1.3h2.4V-6c0,1.1-0.1,2-0.3,2.5c-0.2,0.6-0.4,1-0.8,1.3
				c-0.3,0.3-0.8,0.6-1.3,0.7c-0.6,0.2-1.3,0.3-2.1,0.3c-1.6,0-2.8-0.3-3.4-0.8c-0.7-0.6-1-1.3-1-2.1C142.6-4.2,142.6-4.3,142.6-4.4
				z M144.8-10c0,1,0.2,1.7,0.6,2.2c0.4,0.5,0.9,0.7,1.4,0.7c0.6,0,1.1-0.2,1.6-0.7s0.6-1.2,0.6-2.1c0-1-0.2-1.7-0.6-2.2
				s-0.9-0.7-1.5-0.7c-0.6,0-1.1,0.2-1.5,0.7C145-11.6,144.8-10.9,144.8-10z"/>
			<path d="M154-15.8v-2.3h2.5v2.3H154z M154-5v-9.5h2.5V-5H154z"/>
			<path d="M167.8-5h-2.5v-4.9c0-1-0.1-1.7-0.2-2c-0.1-0.3-0.3-0.5-0.5-0.7c-0.2-0.2-0.5-0.3-0.9-0.3c-0.4,0-0.8,0.1-1.2,0.4
				c-0.3,0.2-0.6,0.6-0.7,0.9c-0.1,0.4-0.2,1.1-0.2,2.2V-5h-2.5v-9.5h2.3v1.4c0.8-1.1,1.9-1.6,3.1-1.6c0.6,0,1.1,0.1,1.5,0.3
				c0.5,0.2,0.8,0.5,1,0.8c0.2,0.3,0.4,0.7,0.5,1.1c0.1,0.4,0.1,1,0.1,1.7V-5z"/>
			<path d="M170.1-4.4L173-4c0,0.3,0.2,0.6,0.3,0.7c0.2,0.2,0.6,0.3,1.1,0.3c0.7,0,1.1-0.1,1.5-0.3c0.2-0.1,0.4-0.3,0.5-0.6
				c0.1-0.2,0.1-0.6,0.1-1.2v-1.4c-0.8,1-1.7,1.5-2.8,1.5c-1.3,0-2.3-0.5-3-1.6c-0.6-0.9-0.9-1.9-0.9-3.2c0-1.6,0.4-2.8,1.2-3.7
				c0.8-0.8,1.7-1.3,2.9-1.3c1.2,0,2.1,0.5,2.9,1.5v-1.3h2.4V-6c0,1.1-0.1,2-0.3,2.5c-0.2,0.6-0.4,1-0.8,1.3s-0.8,0.6-1.3,0.7
				c-0.6,0.2-1.3,0.3-2.1,0.3c-1.6,0-2.8-0.3-3.4-0.8s-1-1.3-1-2.1C170.1-4.2,170.1-4.3,170.1-4.4z M172.3-10c0,1,0.2,1.7,0.6,2.2
				c0.4,0.5,0.9,0.7,1.4,0.7c0.6,0,1.1-0.2,1.6-0.7c0.4-0.5,0.6-1.2,0.6-2.1c0-1-0.2-1.7-0.6-2.2s-0.9-0.7-1.5-0.7
				c-0.6,0-1.1,0.2-1.5,0.7C172.5-11.6,172.3-10.9,172.3-10z"/>
		</g>
	</g>
	<g>
		<g>
			<path class="st5" d="M172.1,559.8h-7.3c-0.1,0-0.1,0-0.2,0l-43.8-7.2l0.4-2.5l43.7,7.2h6l7.3-406.4c0-0.7,0.6-1.2,1.2-1.2h29.1
				l43.7-7.2c0.1,0,0.1,0,0.2,0h7.3c0.7,0,1.2,0.5,1.2,1.2l7.3,405.2h28c0.1,0,0.1,0,0.2,0l7.2,1.2h7.2c0.1,0,0.1,0,0.2,0l7.3,1.2
				c0.1,0,0.1,0,0.2,0l7.1,2.3h7.1c0.1,0,0.1,0,0.2,0l13.2,2.2l7.3-405c0-0.7,0.6-1.2,1.2-1.2H391l29.1-4.8c0.1,0,0.1,0,0.2,0h7.2
				l14.5-2.4c0.4-0.1,0.7,0,1,0.3c0.3,0.2,0.4,0.6,0.4,0.9l7.3,405.2H486c0.1,0,0.1,0,0.2,0l36.4,6h6l7.3-403.9
				c0-0.7,0.6-1.2,1.2-1.2h36.4l14.5-2.4c0.1,0,0.1,0,0.2,0h7.2l21.8-3.6c0.1,0,0.1,0,0.2,0h7.3c0.7,0,1.2,0.5,1.2,1.2l7.3,403.9
				h35.3c0.1,0,0.1,0,0.2,0l14.5,2.4h7.2c0.1,0,0.1,0,0.2,0l20.5,3.4l7.3-403.7c0-0.7,0.6-1.2,1.2-1.2h43.7l21.8-3.6
				c0.1,0,0.1,0,0.2,0h7.2l7.2-1.2c0.4-0.1,0.7,0,1,0.3c0.3,0.2,0.4,0.6,0.4,0.9l7.3,402.7h20.7v2.5h-21.9c-0.7,0-1.2-0.5-1.2-1.2
				l-7.3-402.5l-5.9,1c-0.1,0-0.1,0-0.2,0h-7.2l-21.8,3.6c-0.1,0-0.1,0-0.2,0h-42.6l-7.3,403.9c0,0.4-0.2,0.7-0.4,0.9
				c-0.3,0.2-0.6,0.3-1,0.3l-21.8-3.6h-7.2c-0.1,0-0.1,0-0.2,0l-14.5-2.4H632c-0.7,0-1.2-0.5-1.2-1.2l-7.3-403.9h-6l-21.8,3.6
				c-0.1,0-0.1,0-0.2,0h-7.2l-14.5,2.4c-0.1,0-0.1,0-0.2,0h-35.3L531,556.1c0,0.7-0.6,1.2-1.2,1.2h-7.3c-0.1,0-0.1,0-0.2,0l-36.4-6
				h-36.4c-0.7,0-1.2-0.5-1.2-1.2l-7.3-405l-13.2,2.2c-0.1,0-0.1,0-0.2,0h-7.2l-29.1,4.8c-0.1,0-0.1,0-0.2,0h-35.3l-7.3,405.2
				c0,0.4-0.2,0.7-0.4,0.9c-0.3,0.2-0.6,0.3-1,0.3l-14.5-2.4h-7.2c-0.1,0-0.3,0-0.4-0.1l-7.2-2.4l-7.1-1.2h-7.2c-0.1,0-0.1,0-0.2,0
				l-7.2-1.2H267c-0.7,0-1.2-0.5-1.2-1.2L258.5,145h-6l-43.7,7.2c-0.1,0-0.1,0-0.2,0h-28l-7.3,406.4
				C173.3,559.2,172.8,559.8,172.1,559.8z"/>
		</g>
	</g>
	<g transform="translate(252.6635,143.7733)">
		<g>
			<circle class="st6" cx="0" cy="0" r="5"/>
		</g>
	</g>
	<g transform="translate(252.6635,143.7733)">
		<g>
			<path class="st6" d="M0-4.6c2.5,0,4.6,2.1,4.6,4.6l0,0c0,2.5-2.1,4.6-4.6,4.6S-4.6,2.5-4.6,0S-2.5-4.6,0-4.6z M0-5.4
				C-3-5.4-5.4-3-5.4,0S-3,5.4,0,5.4S5.4,3,5.4,0l0,0C5.4-3,3-5.4,0-5.4z"/>
		</g>
	</g>
	<g transform="translate(442.8441,143.7733)">
		<g>
			<circle class="st6" cx="0" cy="0" r="5"/>
		</g>
	</g>
	<g transform="translate(442.8441,143.7733)">
		<g>
			<path class="st6" d="M0-4.6c2.5,0,4.6,2.1,4.6,4.6l0,0c0,2.5-2.1,4.6-4.6,4.6S-4.6,2.5-4.6,0S-2.5-4.6,0-4.6z M0-5.4
				C-3-5.4-5.4-3-5.4,0S-3,5.4,0,5.4S5.4,3,5.4,0l0,0C5.4-3,3-5.4,0-5.4z"/>
		</g>
	</g>
	<g transform="translate(618.3954,144.9756)">
		<g>
			<circle class="st6" cx="0" cy="0" r="5"/>
		</g>
	</g>
	<g transform="translate(618.3954,144.9756)">
		<g>
			<path class="st6" d="M0-4.6c2.5,0,4.6,2.1,4.6,4.6l0,0c0,2.5-2.1,4.6-4.6,4.6S-4.6,2.5-4.6,0S-2.5-4.6,0-4.6z M0-5.4
				C-3-5.4-5.4-3-5.4,0S-3,5.4,0,5.4S5.4,3,5.4,0l0,0C5.4-3,3-5.4,0-5.4z"/>
		</g>
	</g>
	<g transform="translate(801.2614,146.1778)">
		<g>
			<circle class="st6" cx="0" cy="0" r="5"/>
		</g>
	</g>
	<g transform="translate(801.2614,146.1778)">
		<g>
			<path class="st6" d="M0-4.6c2.5,0,4.6,2.1,4.6,4.6l0,0c0,2.5-2.1,4.6-4.6,4.6S-4.6,2.5-4.6,0S-2.5-4.6,0-4.6z M0-5.4
				C-3-5.4-5.4-3-5.4,0S-3,5.4,0,5.4S5.4,3,5.4,0l0,0C5.4-3,3-5.4,0-5.4z"/>
		</g>
	</g>
	<g>
		<g>
			<path class="st1" d="M832,109V63H665v46H832z"/>
		</g>
	</g>
	<g transform="translate(723.8381,75.6027)">
		<g class="st4">
			<path d="M1.1,6V-4.7h2.1l2.5,7.6C6,3.6,6.2,4.1,6.3,4.5c0.1-0.4,0.3-1,0.6-1.7l2.6-7.5h1.9V6H10v-9L6.9,6H5.6L2.5-3.1V6H1.1z"/>
			<path d="M18.8,3.5l1.4,0.2C20,4.5,19.6,5.1,19,5.5s-1.3,0.7-2.2,0.7c-1.1,0-2-0.4-2.7-1.1c-0.7-0.7-1-1.7-1-2.9
				c0-1.3,0.3-2.3,1-3S15.6-2,16.7-2c1,0,1.9,0.4,2.5,1.1c0.7,0.7,1,1.7,1,3c0,0.1,0,0.2,0,0.4h-5.8c0,0.9,0.3,1.5,0.7,2
				c0.4,0.5,1,0.7,1.6,0.7c0.5,0,0.9-0.1,1.2-0.4S18.6,4.1,18.8,3.5z M14.5,1.4h4.3c-0.1-0.7-0.2-1.1-0.5-1.5
				c-0.4-0.5-1-0.8-1.6-0.8c-0.6,0-1.1,0.2-1.5,0.6C14.8,0.1,14.5,0.7,14.5,1.4z"/>
			<path d="M26.9,5c-0.5,0.4-1,0.7-1.4,0.9C25,6.1,24.6,6.2,24,6.2c-0.9,0-1.5-0.2-2-0.6c-0.5-0.4-0.7-1-0.7-1.6
				c0-0.4,0.1-0.7,0.3-1c0.2-0.3,0.4-0.6,0.7-0.8c0.3-0.2,0.6-0.3,0.9-0.4c0.3-0.1,0.6-0.1,1.2-0.2c1.1-0.1,1.8-0.3,2.4-0.5
				c0-0.2,0-0.3,0-0.3c0-0.5-0.1-0.9-0.4-1.1c-0.3-0.3-0.8-0.4-1.5-0.4c-0.6,0-1.1,0.1-1.4,0.3c-0.3,0.2-0.5,0.6-0.7,1.2l-1.3-0.2
				c0.1-0.6,0.3-1,0.6-1.3c0.3-0.3,0.7-0.6,1.2-0.8C23.9-1.9,24.4-2,25.1-2c0.7,0,1.2,0.1,1.6,0.2s0.7,0.4,0.9,0.6
				c0.2,0.2,0.3,0.5,0.4,0.9c0,0.2,0.1,0.6,0.1,1.2v1.8c0,1.2,0,2,0.1,2.3c0.1,0.3,0.2,0.6,0.3,0.9h-1.4C27,5.7,26.9,5.4,26.9,5z
				 M26.8,2.1c-0.5,0.2-1.2,0.4-2.2,0.5c-0.5,0.1-0.9,0.2-1.1,0.3C23.3,3,23.1,3.1,23,3.3c-0.1,0.2-0.2,0.4-0.2,0.6
				c0,0.4,0.1,0.6,0.4,0.9c0.3,0.2,0.7,0.4,1.2,0.4c0.5,0,1-0.1,1.4-0.3c0.4-0.2,0.7-0.5,0.9-0.9c0.1-0.3,0.2-0.7,0.2-1.3V2.1z"/>
			<path d="M29.6,3.7l1.3-0.2C31,4,31.2,4.4,31.6,4.7C31.9,5,32.4,5.1,33,5.1c0.6,0,1.1-0.1,1.3-0.4c0.3-0.2,0.4-0.5,0.4-0.9
				c0-0.3-0.1-0.5-0.4-0.7C34.2,3,33.7,2.9,33,2.7c-1-0.2-1.6-0.5-2-0.6c-0.4-0.2-0.7-0.4-0.8-0.7c-0.2-0.3-0.3-0.7-0.3-1
				c0-0.3,0.1-0.7,0.2-1c0.2-0.3,0.4-0.5,0.6-0.7c0.2-0.2,0.5-0.3,0.8-0.4C31.9-1.9,32.3-2,32.7-2c0.6,0,1.1,0.1,1.6,0.3
				c0.5,0.2,0.8,0.4,1,0.7c0.2,0.3,0.4,0.7,0.5,1.2l-1.3,0.2C34.5,0,34.3-0.3,34-0.5c-0.3-0.2-0.7-0.3-1.2-0.3c-0.6,0-1,0.1-1.3,0.3
				c-0.3,0.2-0.4,0.4-0.4,0.7c0,0.2,0.1,0.3,0.2,0.5c0.1,0.1,0.3,0.3,0.5,0.4c0.1,0,0.5,0.2,1.2,0.3c0.9,0.2,1.6,0.5,2,0.6
				c0.4,0.2,0.7,0.4,0.9,0.7s0.3,0.7,0.3,1.1c0,0.4-0.1,0.9-0.4,1.2c-0.3,0.4-0.6,0.7-1.1,0.9c-0.5,0.2-1,0.3-1.6,0.3
				c-1,0-1.8-0.2-2.3-0.6C30.1,5.1,29.8,4.5,29.6,3.7z"/>
			<path d="M42.8,6V4.9c-0.6,0.9-1.4,1.3-2.5,1.3c-0.5,0-0.9-0.1-1.3-0.3c-0.4-0.2-0.7-0.4-0.9-0.7c-0.2-0.3-0.3-0.6-0.4-1
				C37.7,4,37.6,3.6,37.6,3v-4.8H39v4.3c0,0.7,0,1.2,0.1,1.4c0.1,0.3,0.3,0.6,0.5,0.8c0.3,0.2,0.6,0.3,1,0.3s0.8-0.1,1.1-0.3
				c0.3-0.2,0.6-0.5,0.7-0.8c0.1-0.3,0.2-0.9,0.2-1.5v-4.2h1.3V6H42.8z"/>
			<path d="M46,6v-7.8h1.2v1.2c0.3-0.6,0.6-0.9,0.8-1.1C48.3-1.9,48.6-2,48.9-2c0.4,0,0.9,0.1,1.4,0.4l-0.5,1.2
				c-0.3-0.2-0.6-0.3-1-0.3c-0.3,0-0.5,0.1-0.8,0.3c-0.2,0.2-0.4,0.4-0.5,0.7c-0.1,0.5-0.2,1-0.2,1.5V6H46z"/>
			<path d="M56.3,3.5l1.4,0.2c-0.2,0.8-0.6,1.4-1.2,1.9s-1.3,0.7-2.2,0.7c-1.1,0-2-0.4-2.7-1.1c-0.7-0.7-1-1.7-1-2.9
				c0-1.3,0.3-2.3,1-3S53.1-2,54.2-2c1,0,1.9,0.4,2.5,1.1c0.7,0.7,1,1.7,1,3c0,0.1,0,0.2,0,0.4h-5.8c0,0.9,0.3,1.5,0.7,2
				c0.4,0.5,1,0.7,1.6,0.7c0.5,0,0.9-0.1,1.2-0.4S56.1,4.1,56.3,3.5z M52,1.4h4.3c-0.1-0.7-0.2-1.1-0.5-1.5c-0.4-0.5-1-0.8-1.6-0.8
				c-0.6,0-1.1,0.2-1.5,0.6C52.3,0.1,52,0.7,52,1.4z"/>
			<path d="M64.4,6V5c-0.5,0.8-1.2,1.2-2.2,1.2c-0.6,0-1.2-0.2-1.7-0.5c-0.5-0.3-0.9-0.8-1.2-1.4c-0.3-0.6-0.4-1.3-0.4-2.1
				c0-0.8,0.1-1.5,0.4-2.1c0.3-0.6,0.6-1.1,1.2-1.5C60.9-1.8,61.5-2,62.2-2c0.5,0,0.9,0.1,1.3,0.3c0.4,0.2,0.7,0.5,0.9,0.8v-3.9h1.3
				V6H64.4z M60.2,2.1c0,1,0.2,1.7,0.6,2.2c0.4,0.5,0.9,0.7,1.5,0.7c0.6,0,1.1-0.2,1.5-0.7c0.4-0.5,0.6-1.2,0.6-2.2
				c0-1.1-0.2-1.8-0.6-2.3s-0.9-0.7-1.5-0.7c-0.6,0-1.1,0.2-1.5,0.7C60.4,0.3,60.2,1.1,60.2,2.1z"/>
			<path d="M72,6V-4.7h3.7c0.8,0,1.5,0.1,1.9,0.2c0.6,0.1,1.1,0.4,1.6,0.8c0.6,0.5,1,1.1,1.3,1.8c0.3,0.7,0.4,1.6,0.4,2.6
				c0,0.8-0.1,1.5-0.3,2.2c-0.2,0.6-0.4,1.2-0.7,1.6c-0.3,0.4-0.6,0.7-1,1c-0.4,0.2-0.8,0.4-1.3,0.5C77.1,5.9,76.6,6,75.9,6H72z
				 M73.4,4.7h2.3c0.7,0,1.3-0.1,1.7-0.2c0.4-0.1,0.7-0.3,1-0.6c0.3-0.3,0.6-0.8,0.8-1.4c0.2-0.6,0.3-1.3,0.3-2.1
				c0-1.1-0.2-2-0.6-2.6c-0.4-0.6-0.8-1-1.3-1.2c-0.4-0.1-1-0.2-1.8-0.2h-2.3V4.7z"/>
			<path d="M87.8,5c-0.5,0.4-1,0.7-1.4,0.9c-0.5,0.2-0.9,0.3-1.5,0.3c-0.9,0-1.5-0.2-2-0.6c-0.5-0.4-0.7-1-0.7-1.6
				c0-0.4,0.1-0.7,0.3-1c0.2-0.3,0.4-0.6,0.7-0.8c0.3-0.2,0.6-0.3,0.9-0.4c0.3-0.1,0.6-0.1,1.2-0.2c1.1-0.1,1.8-0.3,2.4-0.5
				c0-0.2,0-0.3,0-0.3c0-0.5-0.1-0.9-0.4-1.1c-0.3-0.3-0.8-0.4-1.5-0.4c-0.6,0-1.1,0.1-1.4,0.3c-0.3,0.2-0.5,0.6-0.7,1.2l-1.3-0.2
				c0.1-0.6,0.3-1,0.6-1.3c0.3-0.3,0.7-0.6,1.2-0.8C84.7-1.9,85.3-2,86-2c0.7,0,1.2,0.1,1.6,0.2s0.7,0.4,0.9,0.6
				c0.2,0.2,0.3,0.5,0.4,0.9C89,0,89,0.4,89,1v1.8c0,1.2,0,2,0.1,2.3c0.1,0.3,0.2,0.6,0.3,0.9H88C87.9,5.7,87.8,5.4,87.8,5z
				 M87.7,2.1c-0.5,0.2-1.2,0.4-2.2,0.5c-0.5,0.1-0.9,0.2-1.1,0.3C84.1,3,84,3.1,83.8,3.3c-0.1,0.2-0.2,0.4-0.2,0.6
				c0,0.4,0.1,0.6,0.4,0.9c0.3,0.2,0.7,0.4,1.2,0.4c0.5,0,1-0.1,1.4-0.3c0.4-0.2,0.7-0.5,0.9-0.9c0.1-0.3,0.2-0.7,0.2-1.3V2.1z"/>
			<path d="M93.9,4.8L94.1,6c-0.4,0.1-0.7,0.1-1,0.1c-0.5,0-0.8-0.1-1.1-0.2c-0.3-0.2-0.4-0.3-0.6-0.6c-0.1-0.2-0.2-0.8-0.2-1.6
				v-4.5h-1v-1h1v-1.9l1.3-0.8v2.7h1.3v1h-1.3v4.5c0,0.4,0,0.6,0.1,0.7c0,0.1,0.1,0.2,0.2,0.3c0.1,0.1,0.3,0.1,0.5,0.1
				C93.5,4.9,93.7,4.9,93.9,4.8z"/>
			<path d="M100.3,5c-0.5,0.4-1,0.7-1.4,0.9c-0.5,0.2-0.9,0.3-1.5,0.3c-0.9,0-1.5-0.2-2-0.6c-0.5-0.4-0.7-1-0.7-1.6
				c0-0.4,0.1-0.7,0.3-1c0.2-0.3,0.4-0.6,0.7-0.8C96,2,96.3,1.8,96.6,1.7c0.3-0.1,0.6-0.1,1.2-0.2c1.1-0.1,1.8-0.3,2.4-0.5
				c0-0.2,0-0.3,0-0.3c0-0.5-0.1-0.9-0.4-1.1c-0.3-0.3-0.8-0.4-1.5-0.4c-0.6,0-1.1,0.1-1.4,0.3c-0.3,0.2-0.5,0.6-0.7,1.2L95,0.4
				c0.1-0.6,0.3-1,0.6-1.3c0.3-0.3,0.7-0.6,1.2-0.8C97.2-1.9,97.8-2,98.5-2c0.7,0,1.2,0.1,1.6,0.2s0.7,0.4,0.9,0.6
				c0.2,0.2,0.3,0.5,0.4,0.9c0,0.2,0.1,0.6,0.1,1.2v1.8c0,1.2,0,2,0.1,2.3c0.1,0.3,0.2,0.6,0.3,0.9h-1.4
				C100.4,5.7,100.3,5.4,100.3,5z M100.2,2.1C99.7,2.3,99,2.5,98,2.6c-0.5,0.1-0.9,0.2-1.1,0.3c-0.2,0.1-0.4,0.2-0.5,0.4
				c-0.1,0.2-0.2,0.4-0.2,0.6c0,0.4,0.1,0.6,0.4,0.9c0.3,0.2,0.7,0.4,1.2,0.4c0.5,0,1-0.1,1.4-0.3c0.4-0.2,0.7-0.5,0.9-0.9
				c0.1-0.3,0.2-0.7,0.2-1.3V2.1z"/>
		</g>
	</g>
	<g>
		<g>
			<rect x="670" y="74.4" class="st5" width="50.1" height="2.5"/>
		</g>
	</g>
	<g transform="translate(723.8381,96.3973)">
		<g class="st4">
			<path d="M1.2,6V-4.7h4.1c0.7,0,1.3,0,1.6,0.1c0.5,0.1,1,0.3,1.3,0.5c0.4,0.2,0.6,0.6,0.9,1c0.2,0.4,0.3,0.9,0.3,1.5
				c0,0.9-0.3,1.7-0.9,2.3C7.9,1.3,6.9,1.6,5.3,1.6H2.6V6H1.2z M2.6,0.4h2.8c0.9,0,1.6-0.2,2-0.5S7.9-1,7.9-1.6
				c0-0.4-0.1-0.8-0.3-1.2C7.3-3.1,7-3.3,6.7-3.4C6.4-3.4,6-3.5,5.3-3.5H2.6V0.4z"/>
			<path d="M16.3,3.5l1.4,0.2c-0.2,0.8-0.6,1.4-1.2,1.9s-1.3,0.7-2.2,0.7c-1.1,0-2-0.4-2.7-1.1c-0.7-0.7-1-1.7-1-2.9
				c0-1.3,0.3-2.3,1-3S13.1-2,14.2-2c1,0,1.9,0.4,2.5,1.1c0.7,0.7,1,1.7,1,3c0,0.1,0,0.2,0,0.4h-5.8c0,0.9,0.3,1.5,0.7,2
				c0.4,0.5,1,0.7,1.6,0.7c0.5,0,0.9-0.1,1.2-0.4S16.1,4.1,16.3,3.5z M12,1.4h4.3c-0.1-0.7-0.2-1.1-0.5-1.5c-0.4-0.5-1-0.8-1.6-0.8
				c-0.6,0-1.1,0.2-1.5,0.6C12.3,0.1,12,0.7,12,1.4z"/>
			<path d="M24.4,5c-0.5,0.4-1,0.7-1.4,0.9c-0.5,0.2-0.9,0.3-1.5,0.3c-0.9,0-1.5-0.2-2-0.6c-0.5-0.4-0.7-1-0.7-1.6
				c0-0.4,0.1-0.7,0.3-1c0.2-0.3,0.4-0.6,0.7-0.8c0.3-0.2,0.6-0.3,0.9-0.4C21,1.6,21.4,1.6,22,1.5c1.1-0.1,1.8-0.3,2.4-0.5
				c0-0.2,0-0.3,0-0.3c0-0.5-0.1-0.9-0.4-1.1c-0.3-0.3-0.8-0.4-1.5-0.4c-0.6,0-1.1,0.1-1.4,0.3c-0.3,0.2-0.5,0.6-0.7,1.2l-1.3-0.2
				c0.1-0.6,0.3-1,0.6-1.3c0.3-0.3,0.7-0.6,1.2-0.8C21.4-1.9,22-2,22.6-2c0.7,0,1.2,0.1,1.6,0.2s0.7,0.4,0.9,0.6
				c0.2,0.2,0.3,0.5,0.4,0.9c0,0.2,0.1,0.6,0.1,1.2v1.8c0,1.2,0,2,0.1,2.3c0.1,0.3,0.2,0.6,0.3,0.9h-1.4C24.5,5.7,24.5,5.4,24.4,5z
				 M24.3,2.1c-0.5,0.2-1.2,0.4-2.2,0.5c-0.5,0.1-0.9,0.2-1.1,0.3c-0.2,0.1-0.4,0.2-0.5,0.4c-0.1,0.2-0.2,0.4-0.2,0.6
				c0,0.4,0.1,0.6,0.4,0.9C21,5,21.4,5.1,21.9,5.1c0.5,0,1-0.1,1.4-0.3c0.4-0.2,0.7-0.5,0.9-0.9c0.1-0.3,0.2-0.7,0.2-1.3V2.1z"/>
			<path d="M27.7,6V-4.7H29v6.1l3.1-3.2h1.7l-3,2.9L34.1,6h-1.6l-2.6-4L29,2.9V6H27.7z"/>
			<path d="M34.7,3.7L36,3.5C36,4,36.2,4.4,36.6,4.7C36.9,5,37.4,5.1,38,5.1c0.6,0,1.1-0.1,1.3-0.4c0.3-0.2,0.4-0.5,0.4-0.9
				c0-0.3-0.1-0.5-0.4-0.7C39.2,3,38.7,2.9,38,2.7c-1-0.2-1.6-0.5-2-0.6c-0.4-0.2-0.7-0.4-0.8-0.7c-0.2-0.3-0.3-0.7-0.3-1
				c0-0.3,0.1-0.7,0.2-1c0.2-0.3,0.4-0.5,0.6-0.7c0.2-0.2,0.5-0.3,0.8-0.4C36.9-1.9,37.3-2,37.7-2c0.6,0,1.1,0.1,1.6,0.3
				c0.5,0.2,0.8,0.4,1,0.7c0.2,0.3,0.4,0.7,0.5,1.2l-1.3,0.2C39.5,0,39.3-0.3,39-0.5c-0.3-0.2-0.7-0.3-1.2-0.3c-0.6,0-1,0.1-1.3,0.3
				c-0.3,0.2-0.4,0.4-0.4,0.7c0,0.2,0.1,0.3,0.2,0.5c0.1,0.1,0.3,0.3,0.5,0.4c0.1,0,0.5,0.2,1.2,0.3c0.9,0.2,1.6,0.5,2,0.6
				c0.4,0.2,0.7,0.4,0.9,0.7s0.3,0.7,0.3,1.1c0,0.4-0.1,0.9-0.4,1.2c-0.3,0.4-0.6,0.7-1.1,0.9c-0.5,0.2-1,0.3-1.6,0.3
				c-1,0-1.8-0.2-2.3-0.6C35.1,5.1,34.8,4.5,34.7,3.7z"/>
		</g>
	</g>
	<g transform="translate(695.045,96.3973)">
		<g>
			<circle class="st6" cx="0" cy="0" r="5"/>
		</g>
	</g>
	<g transform="translate(695.045,96.3973)">
		<g>
			<path class="st6" d="M0-4.6c2.5,0,4.6,2.1,4.6,4.6l0,0c0,2.5-2.1,4.6-4.6,4.6S-4.6,2.5-4.6,0S-2.5-4.6,0-4.6z M0-5.4
				C-3-5.4-5.4-3-5.4,0S-3,5.4,0,5.4S5.4,3,5.4,0l0,0C5.4-3,3-5.4,0-5.4z"/>
		</g>
	</g>
	<g>
		<g>
			<path class="st3" d="M832.4,109.4H664.6V62.6h167.8V109.4z M665.4,108.6h166.2V63.4H665.4V108.6z"/>
		</g>
	</g>
</g>
</svg>
