<?xml version="1.0" encoding="utf-8"?>
<!-- Generator: Adobe Illustrator 28.3.0, SVG Export Plug-In . SVG Version: 6.00 Build 0)  -->
<svg version="1.1" id="Layer_1" xmlns="http://www.w3.org/2000/svg" xmlns:xlink="http://www.w3.org/1999/xlink" x="0px" y="0px"
	 viewBox="0 0 982 681" style="enable-background:new 0 0 982 681;" xml:space="preserve">
<style type="text/css">
	.st0{clip-path:url(#SVGID_00000119104572249624135280000004750079693888658582_);}
	.st1{fill:#FFFFFF;}
	.st2{opacity:0.149;}
	.st3{fill:#262626;}
	.st4{enable-background:new    ;}
	.st5{fill:#0000FF;}
	.st6{fill:#FF0000;}
</style>
<g>
	<g>
		<g>
			<defs>
				<rect id="SVGID_1_" width="982" height="681"/>
			</defs>
			<clipPath id="SVGID_00000027568322835440654130000017412512940263542718_">
				<use xlink:href="#SVGID_1_"  style="overflow:visible;"/>
			</clipPath>
			<g style="clip-path:url(#SVGID_00000027568322835440654130000017412512940263542718_);">
				<rect class="st1" width="982" height="681"/>
			</g>
		</g>
	</g>
	<g>
		<g>
			<rect class="st1" width="982" height="681"/>
		</g>
		<g>
			<path class="st1" d="M128,606h762V51H128V606z"/>
		</g>
	</g>
	<g>
		<g class="st2">
			<rect x="127.6" y="51" class="st3" width="0.8" height="555"/>
		</g>
		<g class="st2">
			<rect x="212.2" y="51" class="st3" width="0.8" height="555"/>
		</g>
		<g class="st2">
			<rect x="296.9" y="51" class="st3" width="0.8" height="555"/>
		</g>
		<g class="st2">
			<rect x="381.6" y="51" class="st3" width="0.8" height="555"/>
		</g>
		<g class="st2">
			<rect x="466.2" y="51" class="st3" width="0.8" height="555"/>
		</g>
		<g class="st2">
			<rect x="550.9" y="51" class="st3" width="0.8" height="555"/>
		</g>
		<g class="st2">
			<rect x="635.6" y="51" class="st3" width="0.8" height="555"/>
		</g>
		<g class="st2">
			<rect x="720.2" y="51" class="st3" width="0.8" height="555"/>
		</g>
		<g class="st2">
			<rect x="804.9" y="51" class="st3" width="0.8" height="555"/>
		</g>
		<g class="st2">
			<rect x="889.6" y="51" class="st3" width="0.8" height="555"/>
		</g>
		<g class="st2">
			<rect x="128" y="605.6" class="st3" width="762" height="0.8"/>
		</g>
		<g class="st2">
			<rect x="128" y="513.1" class="st3" width="762" height="0.8"/>
		</g>
		<g class="st2">
			<rect x="128" y="420.6" class="st3" width="762" height="0.8"/>
		</g>
		<g class="st2">
			<rect x="128" y="328.1" class="st3" width="762" height="0.8"/>
		</g>
		<g class="st2">
			<rect x="128" y="235.6" class="st3" width="762" height="0.8"/>
		</g>
		<g class="st2">
			<rect x="128" y="143.1" class="st3" width="762" height="0.8"/>
		</g>
		<g class="st2">
			<rect x="128" y="50.6" class="st3" width="762" height="0.8"/>
		</g>
		<g>
			<rect x="127.6" y="605.6" class="st3" width="762.8" height="0.8"/>
		</g>
		<g>
			<rect x="127.6" y="50.6" class="st3" width="762.8" height="0.8"/>
		</g>
		<g>
			<rect x="127.6" y="598" class="st3" width="0.8" height="8.5"/>
		</g>
		<g>
			<rect x="212.2" y="598" class="st3" width="0.8" height="8.5"/>
		</g>
		<g>
			<rect x="296.9" y="598" class="st3" width="0.8" height="8.5"/>
		</g>
		<g>
			<rect x="381.6" y="598" class="st3" width="0.8" height="8.5"/>
		</g>
		<g>
			<rect x="466.2" y="598" class="st3" width="0.8" height="8.5"/>
		</g>
		<g>
			<rect x="550.9" y="598" class="st3" width="0.8" height="8.5"/>
		</g>
		<g>
			<rect x="635.6" y="598" class="st3" width="0.8" height="8.5"/>
		</g>
		<g>
			<rect x="720.2" y="598" class="st3" width="0.8" height="8.5"/>
		</g>
		<g>
			<rect x="804.9" y="598" class="st3" width="0.8" height="8.5"/>
		</g>
		<g>
			<rect x="889.6" y="598" class="st3" width="0.8" height="8.5"/>
		</g>
		<g>
			<rect x="127.6" y="50.6" class="st3" width="0.8" height="8.5"/>
		</g>
		<g>
			<rect x="212.2" y="50.6" class="st3" width="0.8" height="8.5"/>
		</g>
		<g>
			<rect x="296.9" y="50.6" class="st3" width="0.8" height="8.5"/>
		</g>
		<g>
			<rect x="381.6" y="50.6" class="st3" width="0.8" height="8.5"/>
		</g>
		<g>
			<rect x="466.2" y="50.6" class="st3" width="0.8" height="8.5"/>
		</g>
		<g>
			<rect x="550.9" y="50.6" class="st3" width="0.8" height="8.5"/>
		</g>
		<g>
			<rect x="635.6" y="50.6" class="st3" width="0.8" height="8.5"/>
		</g>
		<g>
			<rect x="720.2" y="50.6" class="st3" width="0.8" height="8.5"/>
		</g>
		<g>
			<rect x="804.9" y="50.6" class="st3" width="0.8" height="8.5"/>
		</g>
		<g>
			<rect x="889.6" y="50.6" class="st3" width="0.8" height="8.5"/>
		</g>
	</g>
	<g transform="translate(128,612.6667)">
		<g class="st4">
			<path class="st3" d="M-4.3,11.1c0-1.4,0.1-2.5,0.4-3.4c0.3-0.9,0.7-1.5,1.3-2S-1.3,5-0.4,5c0.6,0,1.2,0.1,1.7,0.4S2.1,6,2.5,6.5
				C2.8,7,3,7.6,3.2,8.3C3.4,9,3.5,9.9,3.5,11.1c0,1.4-0.1,2.5-0.4,3.4c-0.3,0.9-0.7,1.5-1.3,2c-0.6,0.5-1.3,0.7-2.2,0.7
				c-1.1,0-2.1-0.4-2.7-1.2C-3.9,15-4.3,13.4-4.3,11.1z M-2.8,11.1c0,2,0.2,3.3,0.7,3.9s1,1,1.7,1s1.2-0.3,1.7-1s0.7-2,0.7-3.9
				c0-2-0.2-3.3-0.7-3.9s-1-1-1.7-1c-0.7,0-1.2,0.3-1.6,0.9C-2.6,7.8-2.8,9.2-2.8,11.1z"/>
		</g>
	</g>
	<g transform="translate(212.6667,612.6667)">
		<g class="st4">
			<path class="st3" d="M-5.6,15.6V17h-7.9c0-0.4,0-0.7,0.2-1c0.2-0.5,0.5-1.1,1-1.6c0.4-0.5,1.1-1.1,1.9-1.8
				c1.3-1.1,2.2-1.9,2.6-2.5c0.5-0.6,0.7-1.2,0.7-1.8c0-0.6-0.2-1.1-0.6-1.5c-0.4-0.4-1-0.6-1.6-0.6c-0.7,0-1.3,0.2-1.7,0.6
				s-0.6,1-0.6,1.8l-1.5-0.2c0.1-1.1,0.5-2,1.2-2.6C-11.4,5.3-10.5,5-9.3,5c1.1,0,2.1,0.3,2.7,1s1,1.4,1,2.4c0,0.5-0.1,0.9-0.3,1.4
				s-0.5,0.9-1,1.5c-0.5,0.5-1.2,1.2-2.3,2.1c-0.9,0.7-1.4,1.2-1.7,1.5c-0.2,0.3-0.5,0.5-0.6,0.8H-5.6z"/>
			<path class="st3" d="M-4,11.1c0-1.4,0.1-2.5,0.4-3.4c0.3-0.9,0.7-1.5,1.3-2S-1,5-0.1,5c0.6,0,1.2,0.1,1.7,0.4S2.4,6,2.7,6.5
				C3,7,3.3,7.6,3.5,8.3C3.7,9,3.7,9.9,3.7,11.1c0,1.4-0.1,2.5-0.4,3.4C3,15.4,2.6,16,2,16.5c-0.6,0.5-1.3,0.7-2.2,0.7
				c-1.1,0-2.1-0.4-2.7-1.2C-3.6,15-4,13.4-4,11.1z M-2.5,11.1c0,2,0.2,3.3,0.7,3.9s1,1,1.7,1s1.2-0.3,1.7-1s0.7-2,0.7-3.9
				c0-2-0.2-3.3-0.7-3.9s-1-1-1.7-1c-0.7,0-1.2,0.3-1.6,0.9C-2.3,7.8-2.5,9.2-2.5,11.1z"/>
			<path class="st3" d="M5.2,11.1c0-1.4,0.1-2.5,0.4-3.4C6,6.9,6.4,6.2,7,5.7S8.3,5,9.1,5c0.6,0,1.2,0.1,1.7,0.4S11.7,6,12,6.5
				c0.3,0.5,0.6,1.1,0.7,1.8C12.9,9,13,9.9,13,11.1c0,1.4-0.1,2.5-0.4,3.4c-0.3,0.9-0.7,1.5-1.3,2c-0.6,0.5-1.3,0.7-2.2,0.7
				c-1.1,0-2.1-0.4-2.7-1.2C5.6,15,5.2,13.4,5.2,11.1z M6.7,11.1c0,2,0.2,3.3,0.7,3.9s1,1,1.7,1s1.2-0.3,1.7-1s0.7-2,0.7-3.9
				c0-2-0.2-3.3-0.7-3.9s-1-1-1.7-1c-0.7,0-1.2,0.3-1.6,0.9C7,7.8,6.7,9.2,6.7,11.1z"/>
		</g>
	</g>
	<g transform="translate(297.3333,612.6667)">
		<g class="st4">
			<path class="st3" d="M-8.6,17v-2.9h-5.2v-1.3l5.4-7.7h1.2v7.7h1.6v1.3h-1.6V17H-8.6z M-8.6,12.8V7.4l-3.7,5.4H-8.6z"/>
			<path class="st3" d="M-4,11.1c0-1.4,0.1-2.5,0.4-3.4c0.3-0.9,0.7-1.5,1.3-2S-1,5-0.1,5c0.6,0,1.2,0.1,1.7,0.4S2.4,6,2.7,6.5
				C3,7,3.3,7.6,3.5,8.3C3.7,9,3.7,9.9,3.7,11.1c0,1.4-0.1,2.5-0.4,3.4C3,15.4,2.6,16,2,16.5c-0.6,0.5-1.3,0.7-2.2,0.7
				c-1.1,0-2.1-0.4-2.7-1.2C-3.6,15-4,13.4-4,11.1z M-2.5,11.1c0,2,0.2,3.3,0.7,3.9s1,1,1.7,1s1.2-0.3,1.7-1s0.7-2,0.7-3.9
				c0-2-0.2-3.3-0.7-3.9s-1-1-1.7-1c-0.7,0-1.2,0.3-1.6,0.9C-2.3,7.8-2.5,9.2-2.5,11.1z"/>
			<path class="st3" d="M5.2,11.1c0-1.4,0.1-2.5,0.4-3.4C6,6.9,6.4,6.2,7,5.7S8.3,5,9.1,5c0.6,0,1.2,0.1,1.7,0.4S11.7,6,12,6.5
				c0.3,0.5,0.6,1.1,0.7,1.8C12.9,9,13,9.9,13,11.1c0,1.4-0.1,2.5-0.4,3.4c-0.3,0.9-0.7,1.5-1.3,2c-0.6,0.5-1.3,0.7-2.2,0.7
				c-1.1,0-2.1-0.4-2.7-1.2C5.6,15,5.2,13.4,5.2,11.1z M6.7,11.1c0,2,0.2,3.3,0.7,3.9s1,1,1.7,1s1.2-0.3,1.7-1s0.7-2,0.7-3.9
				c0-2-0.2-3.3-0.7-3.9s-1-1-1.7-1c-0.7,0-1.2,0.3-1.6,0.9C7,7.8,6.7,9.2,6.7,11.1z"/>
		</g>
	</g>
	<g transform="translate(382,612.6667)">
		<g class="st4">
			<path class="st3" d="M-5.7,8l-1.5,0.1c-0.1-0.6-0.3-1-0.6-1.3c-0.4-0.4-0.9-0.6-1.5-0.6c-0.5,0-0.9,0.1-1.2,0.4
				c-0.5,0.3-0.8,0.8-1.1,1.5c-0.3,0.6-0.4,1.6-0.4,2.8c0.4-0.5,0.8-0.9,1.3-1.2c0.5-0.3,1-0.4,1.6-0.4c1,0,1.8,0.4,2.5,1.1
				c0.7,0.7,1,1.6,1,2.8c0,0.7-0.2,1.4-0.5,2.1c-0.3,0.6-0.8,1.1-1.3,1.5c-0.6,0.3-1.2,0.5-1.9,0.5c-1.2,0-2.2-0.4-3-1.3
				c-0.8-0.9-1.2-2.4-1.2-4.4c0-2.3,0.4-4,1.3-5c0.7-0.9,1.7-1.4,3-1.4c0.9,0,1.7,0.3,2.3,0.8S-5.8,7.1-5.7,8z M-11.7,13.1
				c0,0.5,0.1,1,0.3,1.4c0.2,0.5,0.5,0.8,0.9,1.1S-9.7,16-9.3,16c0.6,0,1.1-0.2,1.6-0.7c0.4-0.5,0.7-1.2,0.7-2
				c0-0.8-0.2-1.5-0.7-1.9s-1-0.7-1.7-0.7c-0.7,0-1.2,0.2-1.7,0.7C-11.5,11.7-11.7,12.4-11.7,13.1z"/>
			<path class="st3" d="M-4,11.1c0-1.4,0.1-2.5,0.4-3.4c0.3-0.9,0.7-1.5,1.3-2S-1,5-0.1,5c0.6,0,1.2,0.1,1.7,0.4S2.4,6,2.7,6.5
				C3,7,3.3,7.6,3.5,8.3C3.7,9,3.7,9.9,3.7,11.1c0,1.4-0.1,2.5-0.4,3.4C3,15.4,2.6,16,2,16.5c-0.6,0.5-1.3,0.7-2.2,0.7
				c-1.1,0-2.1-0.4-2.7-1.2C-3.6,15-4,13.4-4,11.1z M-2.5,11.1c0,2,0.2,3.3,0.7,3.9s1,1,1.7,1s1.2-0.3,1.7-1s0.7-2,0.7-3.9
				c0-2-0.2-3.3-0.7-3.9s-1-1-1.7-1c-0.7,0-1.2,0.3-1.6,0.9C-2.3,7.8-2.5,9.2-2.5,11.1z"/>
			<path class="st3" d="M5.2,11.1c0-1.4,0.1-2.5,0.4-3.4C6,6.9,6.4,6.2,7,5.7S8.3,5,9.1,5c0.6,0,1.2,0.1,1.7,0.4S11.7,6,12,6.5
				c0.3,0.5,0.6,1.1,0.7,1.8C12.9,9,13,9.9,13,11.1c0,1.4-0.1,2.5-0.4,3.4c-0.3,0.9-0.7,1.5-1.3,2c-0.6,0.5-1.3,0.7-2.2,0.7
				c-1.1,0-2.1-0.4-2.7-1.2C5.6,15,5.2,13.4,5.2,11.1z M6.7,11.1c0,2,0.2,3.3,0.7,3.9s1,1,1.7,1s1.2-0.3,1.7-1s0.7-2,0.7-3.9
				c0-2-0.2-3.3-0.7-3.9s-1-1-1.7-1c-0.7,0-1.2,0.3-1.6,0.9C7,7.8,6.7,9.2,6.7,11.1z"/>
		</g>
	</g>
	<g transform="translate(466.6667,612.6667)">
		<g class="st4">
			<path class="st3" d="M-11.1,10.5c-0.6-0.2-1.1-0.5-1.4-1s-0.4-0.9-0.4-1.5c0-0.9,0.3-1.6,0.9-2.2C-11.3,5.3-10.5,5-9.4,5
				c1,0,1.9,0.3,2.5,0.9c0.6,0.6,1,1.3,1,2.2c0,0.6-0.1,1-0.4,1.4c-0.3,0.4-0.7,0.7-1.3,0.9c0.7,0.2,1.3,0.6,1.7,1.2
				c0.4,0.5,0.6,1.2,0.6,1.9c0,1-0.4,1.9-1.1,2.6c-0.7,0.7-1.7,1-2.8,1s-2.1-0.3-2.8-1c-0.7-0.7-1.1-1.6-1.1-2.6
				c0-0.8,0.2-1.4,0.6-1.9C-12.3,11.1-11.8,10.7-11.1,10.5z M-11.8,13.6c0,0.4,0.1,0.8,0.3,1.2c0.2,0.4,0.5,0.7,0.9,0.9
				c0.4,0.2,0.8,0.3,1.3,0.3c0.7,0,1.3-0.2,1.7-0.7c0.5-0.5,0.7-1,0.7-1.7c0-0.7-0.2-1.3-0.7-1.8c-0.5-0.5-1.1-0.7-1.8-0.7
				c-0.7,0-1.3,0.2-1.7,0.7S-11.8,12.9-11.8,13.6z M-11.3,8c0,0.6,0.2,1,0.5,1.4C-10.4,9.8-10,10-9.4,10c0.6,0,1-0.2,1.4-0.5
				c0.4-0.4,0.5-0.8,0.5-1.3c0-0.5-0.2-1-0.6-1.4s-0.8-0.5-1.4-0.5c-0.6,0-1,0.2-1.4,0.5C-11.2,7.1-11.3,7.5-11.3,8z"/>
			<path class="st3" d="M-4,11.1c0-1.4,0.1-2.5,0.4-3.4c0.3-0.9,0.7-1.5,1.3-2S-1,5-0.1,5c0.6,0,1.2,0.1,1.7,0.4S2.4,6,2.7,6.5
				C3,7,3.3,7.6,3.5,8.3C3.7,9,3.7,9.9,3.7,11.1c0,1.4-0.1,2.5-0.4,3.4C3,15.4,2.6,16,2,16.5c-0.6,0.5-1.3,0.7-2.2,0.7
				c-1.1,0-2.1-0.4-2.7-1.2C-3.6,15-4,13.4-4,11.1z M-2.5,11.1c0,2,0.2,3.3,0.7,3.9s1,1,1.7,1s1.2-0.3,1.7-1s0.7-2,0.7-3.9
				c0-2-0.2-3.3-0.7-3.9s-1-1-1.7-1c-0.7,0-1.2,0.3-1.6,0.9C-2.3,7.8-2.5,9.2-2.5,11.1z"/>
			<path class="st3" d="M5.2,11.1c0-1.4,0.1-2.5,0.4-3.4C6,6.9,6.4,6.2,7,5.7S8.3,5,9.1,5c0.6,0,1.2,0.1,1.7,0.4S11.7,6,12,6.5
				c0.3,0.5,0.6,1.1,0.7,1.8C12.9,9,13,9.9,13,11.1c0,1.4-0.1,2.5-0.4,3.4c-0.3,0.9-0.7,1.5-1.3,2c-0.6,0.5-1.3,0.7-2.2,0.7
				c-1.1,0-2.1-0.4-2.7-1.2C5.6,15,5.2,13.4,5.2,11.1z M6.7,11.1c0,2,0.2,3.3,0.7,3.9s1,1,1.7,1s1.2-0.3,1.7-1s0.7-2,0.7-3.9
				c0-2-0.2-3.3-0.7-3.9s-1-1-1.7-1c-0.7,0-1.2,0.3-1.6,0.9C7,7.8,6.7,9.2,6.7,11.1z"/>
		</g>
	</g>
	<g transform="translate(551.3333,612.6667)">
		<g class="st4">
			<path class="st3" d="M-12.8,17h-1.5V7.7c-0.4,0.3-0.8,0.7-1.4,1c-0.6,0.3-1.1,0.6-1.5,0.8V8c0.8-0.4,1.5-0.9,2.1-1.4
				c0.6-0.5,1-1.1,1.3-1.6h0.9V17z"/>
			<path class="st3" d="M-9,11.1c0-1.4,0.1-2.5,0.4-3.4c0.3-0.9,0.7-1.5,1.3-2S-6,5-5.1,5c0.6,0,1.2,0.1,1.7,0.4
				C-3,5.7-2.6,6-2.3,6.5C-2,7-1.7,7.6-1.5,8.3c0.2,0.7,0.3,1.6,0.3,2.8c0,1.4-0.1,2.5-0.4,3.4C-2,15.4-2.4,16-3,16.5
				c-0.6,0.5-1.3,0.7-2.2,0.7c-1.1,0-2.1-0.4-2.7-1.2C-8.6,15-9,13.4-9,11.1z M-7.5,11.1c0,2,0.2,3.3,0.7,3.9c0.5,0.6,1,1,1.7,1
				s1.2-0.3,1.7-1c0.5-0.7,0.7-2,0.7-3.9c0-2-0.2-3.3-0.7-3.9c-0.5-0.6-1-1-1.7-1c-0.7,0-1.2,0.3-1.6,0.9C-7.3,7.8-7.5,9.2-7.5,11.1
				z"/>
			<path class="st3" d="M0.2,11.1c0-1.4,0.1-2.5,0.4-3.4C1,6.9,1.4,6.2,2,5.7S3.3,5,4.1,5c0.6,0,1.2,0.1,1.7,0.4
				C6.3,5.7,6.7,6,7,6.5C7.3,7,7.6,7.6,7.7,8.3C7.9,9,8,9.9,8,11.1c0,1.4-0.1,2.5-0.4,3.4c-0.3,0.9-0.7,1.5-1.3,2
				C5.7,17,5,17.2,4.1,17.2c-1.1,0-2.1-0.4-2.7-1.2C0.6,15,0.2,13.4,0.2,11.1z M1.7,11.1c0,2,0.2,3.3,0.7,3.9c0.5,0.6,1,1,1.7,1
				s1.2-0.3,1.7-1c0.5-0.7,0.7-2,0.7-3.9c0-2-0.2-3.3-0.7-3.9c-0.5-0.6-1-1-1.7-1c-0.7,0-1.2,0.3-1.6,0.9C2,7.8,1.7,9.2,1.7,11.1z"
				/>
			<path class="st3" d="M9.5,11.1c0-1.4,0.1-2.5,0.4-3.4c0.3-0.9,0.7-1.5,1.3-2S12.5,5,13.4,5c0.6,0,1.2,0.1,1.7,0.4
				C15.6,5.7,16,6,16.3,6.5s0.6,1.1,0.7,1.8c0.2,0.7,0.3,1.6,0.3,2.8c0,1.4-0.1,2.5-0.4,3.4c-0.3,0.9-0.7,1.5-1.3,2
				c-0.6,0.5-1.3,0.7-2.2,0.7c-1.2,0-2.1-0.4-2.7-1.2C9.9,15,9.5,13.4,9.5,11.1z M11,11.1c0,2,0.2,3.3,0.7,3.9c0.5,0.6,1,1,1.7,1
				s1.2-0.3,1.7-1c0.5-0.7,0.7-2,0.7-3.9c0-2-0.2-3.3-0.7-3.9c-0.5-0.6-1-1-1.7-1c-0.7,0-1.2,0.3-1.6,0.9C11.3,7.8,11,9.2,11,11.1z"
				/>
		</g>
	</g>
	<g transform="translate(636,612.6667)">
		<g class="st4">
			<path class="st3" d="M-12.8,17h-1.5V7.7c-0.4,0.3-0.8,0.7-1.4,1c-0.6,0.3-1.1,0.6-1.5,0.8V8c0.8-0.4,1.5-0.9,2.1-1.4
				s1-1.1,1.3-1.6h0.9V17z"/>
			<path class="st3" d="M-1.3,15.6V17h-7.9c0-0.4,0-0.7,0.2-1c0.2-0.5,0.5-1.1,1-1.6c0.4-0.5,1.1-1.1,1.9-1.8
				c1.3-1.1,2.2-1.9,2.6-2.5s0.7-1.2,0.7-1.8c0-0.6-0.2-1.1-0.6-1.5c-0.4-0.4-1-0.6-1.6-0.6c-0.7,0-1.3,0.2-1.7,0.6
				c-0.4,0.4-0.6,1-0.6,1.8l-1.5-0.2c0.1-1.1,0.5-2,1.2-2.6C-7.1,5.3-6.2,5-5.1,5C-3.9,5-3,5.3-2.4,6c0.7,0.6,1,1.4,1,2.4
				c0,0.5-0.1,0.9-0.3,1.4s-0.5,0.9-1,1.5c-0.5,0.5-1.2,1.2-2.3,2.1c-0.9,0.7-1.4,1.2-1.7,1.5c-0.2,0.3-0.5,0.5-0.6,0.8H-1.3z"/>
			<path class="st3" d="M0.2,11.1c0-1.4,0.1-2.5,0.4-3.4C1,6.9,1.4,6.2,2,5.7S3.3,5,4.1,5c0.6,0,1.2,0.1,1.7,0.4S6.7,6,7,6.5
				C7.3,7,7.6,7.6,7.7,8.3C7.9,9,8,9.9,8,11.1c0,1.4-0.1,2.5-0.4,3.4c-0.3,0.9-0.7,1.5-1.3,2C5.7,17,5,17.2,4.1,17.2
				c-1.1,0-2.1-0.4-2.7-1.2C0.6,15,0.2,13.4,0.2,11.1z M1.7,11.1c0,2,0.2,3.3,0.7,3.9c0.5,0.6,1,1,1.7,1s1.2-0.3,1.7-1
				c0.5-0.7,0.7-2,0.7-3.9c0-2-0.2-3.3-0.7-3.9c-0.5-0.6-1-1-1.7-1c-0.7,0-1.2,0.3-1.6,0.9C2,7.8,1.7,9.2,1.7,11.1z"/>
			<path class="st3" d="M9.5,11.1c0-1.4,0.1-2.5,0.4-3.4c0.3-0.9,0.7-1.5,1.3-2S12.5,5,13.4,5c0.6,0,1.2,0.1,1.7,0.4
				C15.6,5.7,16,6,16.3,6.5C16.6,7,16.8,7.6,17,8.3c0.2,0.7,0.3,1.6,0.3,2.8c0,1.4-0.1,2.5-0.4,3.4c-0.3,0.9-0.7,1.5-1.3,2
				c-0.6,0.5-1.3,0.7-2.2,0.7c-1.1,0-2.1-0.4-2.7-1.2C9.9,15,9.5,13.4,9.5,11.1z M11,11.1c0,2,0.2,3.3,0.7,3.9s1,1,1.7,1
				c0.7,0,1.2-0.3,1.7-1s0.7-2,0.7-3.9c0-2-0.2-3.3-0.7-3.9s-1-1-1.7-1c-0.7,0-1.2,0.3-1.6,0.9C11.3,7.8,11,9.2,11,11.1z"/>
		</g>
	</g>
	<g transform="translate(720.6667,612.6667)">
		<g class="st4">
			<path class="st3" d="M-12.8,17h-1.5V7.7c-0.4,0.3-0.8,0.7-1.4,1c-0.6,0.3-1.1,0.6-1.5,0.8V8c0.8-0.4,1.5-0.9,2.1-1.4
				s1-1.1,1.3-1.6h0.9V17z"/>
			<path class="st3" d="M-4.3,17v-2.9h-5.2v-1.3l5.4-7.7h1.2v7.7h1.6v1.3h-1.6V17H-4.3z M-4.3,12.8V7.4l-3.7,5.4H-4.3z"/>
			<path class="st3" d="M0.2,11.1c0-1.4,0.1-2.5,0.4-3.4C1,6.9,1.4,6.2,2,5.7S3.3,5,4.1,5c0.6,0,1.2,0.1,1.7,0.4
				C6.3,5.7,6.7,6,7,6.5s0.6,1.1,0.7,1.8C7.9,9,8,9.9,8,11.1c0,1.4-0.1,2.5-0.4,3.4c-0.3,0.9-0.7,1.5-1.3,2C5.7,17,5,17.2,4.1,17.2
				c-1.2,0-2.1-0.4-2.7-1.2C0.6,15,0.2,13.4,0.2,11.1z M1.7,11.1c0,2,0.2,3.3,0.7,3.9c0.5,0.6,1,1,1.7,1s1.2-0.3,1.7-1
				c0.5-0.7,0.7-2,0.7-3.9c0-2-0.2-3.3-0.7-3.9c-0.5-0.6-1-1-1.7-1c-0.7,0-1.2,0.3-1.6,0.9C2,7.8,1.7,9.2,1.7,11.1z"/>
			<path class="st3" d="M9.5,11.1c0-1.4,0.1-2.5,0.4-3.4c0.3-0.9,0.7-1.5,1.3-2S12.5,5,13.4,5c0.6,0,1.2,0.1,1.7,0.4
				C15.6,5.7,16,6,16.3,6.5C16.6,7,16.8,7.6,17,8.3c0.2,0.7,0.3,1.6,0.3,2.8c0,1.4-0.1,2.5-0.4,3.4c-0.3,0.9-0.7,1.5-1.3,2
				c-0.6,0.5-1.3,0.7-2.2,0.7c-1.1,0-2.1-0.4-2.7-1.2C9.9,15,9.5,13.4,9.5,11.1z M11,11.1c0,2,0.2,3.3,0.7,3.9c0.5,0.6,1,1,1.7,1
				s1.2-0.3,1.7-1c0.5-0.7,0.7-2,0.7-3.9c0-2-0.2-3.3-0.7-3.9c-0.5-0.6-1-1-1.7-1c-0.7,0-1.2,0.3-1.6,0.9C11.3,7.8,11,9.2,11,11.1z"
				/>
		</g>
	</g>
	<g transform="translate(805.3333,612.6667)">
		<g class="st4">
			<path class="st3" d="M-12.8,17h-1.5V7.7c-0.4,0.3-0.8,0.7-1.4,1c-0.6,0.3-1.1,0.6-1.5,0.8V8c0.8-0.4,1.5-0.9,2.1-1.4
				c0.6-0.5,1-1.1,1.3-1.6h0.9V17z"/>
			<path class="st3" d="M-1.4,8l-1.5,0.1c-0.1-0.6-0.3-1-0.6-1.3c-0.4-0.4-0.9-0.6-1.5-0.6c-0.5,0-0.9,0.1-1.2,0.4
				C-6.6,7-7,7.4-7.2,8.1s-0.4,1.6-0.4,2.8c0.4-0.5,0.8-0.9,1.3-1.2s1-0.4,1.6-0.4c1,0,1.8,0.4,2.5,1.1s1,1.6,1,2.8
				c0,0.7-0.2,1.4-0.5,2.1C-2,15.9-2.5,16.3-3,16.7C-3.6,17-4.2,17.2-5,17.2c-1.2,0-2.2-0.4-3-1.3c-0.8-0.9-1.2-2.4-1.2-4.4
				c0-2.3,0.4-4,1.3-5C-7.1,5.5-6.1,5-4.8,5c0.9,0,1.7,0.3,2.3,0.8S-1.6,7.1-1.4,8z M-7.4,13.1c0,0.5,0.1,1,0.3,1.4
				c0.2,0.5,0.5,0.8,0.9,1.1C-5.8,15.9-5.4,16-5,16c0.6,0,1.2-0.2,1.6-0.7c0.4-0.5,0.7-1.2,0.7-2c0-0.8-0.2-1.5-0.7-1.9
				s-1-0.7-1.7-0.7c-0.7,0-1.2,0.2-1.7,0.7C-7.2,11.7-7.4,12.4-7.4,13.1z"/>
			<path class="st3" d="M0.2,11.1c0-1.4,0.1-2.5,0.4-3.4C1,6.9,1.4,6.2,2,5.7S3.3,5,4.1,5c0.6,0,1.2,0.1,1.7,0.4
				C6.3,5.7,6.7,6,7,6.5C7.3,7,7.6,7.6,7.7,8.3C7.9,9,8,9.9,8,11.1c0,1.4-0.1,2.5-0.4,3.4c-0.3,0.9-0.7,1.5-1.3,2
				C5.7,17,5,17.2,4.1,17.2c-1.1,0-2.1-0.4-2.7-1.2C0.6,15,0.2,13.4,0.2,11.1z M1.7,11.1c0,2,0.2,3.3,0.7,3.9c0.5,0.6,1,1,1.7,1
				s1.2-0.3,1.7-1c0.5-0.7,0.7-2,0.7-3.9c0-2-0.2-3.3-0.7-3.9c-0.5-0.6-1-1-1.7-1c-0.7,0-1.2,0.3-1.6,0.9C2,7.8,1.7,9.2,1.7,11.1z"
				/>
			<path class="st3" d="M9.5,11.1c0-1.4,0.1-2.5,0.4-3.4c0.3-0.9,0.7-1.5,1.3-2S12.5,5,13.4,5c0.6,0,1.2,0.1,1.7,0.4
				C15.6,5.7,16,6,16.3,6.5s0.6,1.1,0.7,1.8c0.2,0.7,0.3,1.6,0.3,2.8c0,1.4-0.1,2.5-0.4,3.4c-0.3,0.9-0.7,1.5-1.3,2
				c-0.6,0.5-1.3,0.7-2.2,0.7c-1.2,0-2.1-0.4-2.7-1.2C9.9,15,9.5,13.4,9.5,11.1z M11,11.1c0,2,0.2,3.3,0.7,3.9c0.5,0.6,1,1,1.7,1
				s1.2-0.3,1.7-1c0.5-0.7,0.7-2,0.7-3.9c0-2-0.2-3.3-0.7-3.9c-0.5-0.6-1-1-1.7-1c-0.7,0-1.2,0.3-1.6,0.9C11.3,7.8,11,9.2,11,11.1z"
				/>
		</g>
	</g>
	<g transform="translate(890,612.6667)">
		<g class="st4">
			<path class="st3" d="M-12.8,17h-1.5V7.7c-0.4,0.3-0.8,0.7-1.4,1c-0.6,0.3-1.1,0.6-1.5,0.8V8c0.8-0.4,1.5-0.9,2.1-1.4
				s1-1.1,1.3-1.6h0.9V17z"/>
			<path class="st3" d="M-6.8,10.5c-0.6-0.2-1.1-0.5-1.4-1s-0.4-0.9-0.4-1.5c0-0.9,0.3-1.6,0.9-2.2C-7,5.3-6.2,5-5.1,5
				c1,0,1.9,0.3,2.5,0.9c0.6,0.6,1,1.3,1,2.2c0,0.6-0.1,1-0.4,1.4c-0.3,0.4-0.7,0.7-1.3,0.9c0.7,0.2,1.3,0.6,1.7,1.2
				c0.4,0.5,0.6,1.2,0.6,1.9c0,1-0.4,1.9-1.1,2.6s-1.7,1-2.8,1s-2.1-0.3-2.8-1c-0.7-0.7-1.1-1.6-1.1-2.6c0-0.8,0.2-1.4,0.6-1.9
				C-8.1,11.1-7.5,10.7-6.8,10.5z M-7.5,13.6c0,0.4,0.1,0.8,0.3,1.2s0.5,0.7,0.9,0.9C-6,15.9-5.6,16-5.1,16c0.7,0,1.3-0.2,1.7-0.7
				c0.5-0.5,0.7-1,0.7-1.7c0-0.7-0.2-1.3-0.7-1.8c-0.5-0.5-1.1-0.7-1.8-0.7c-0.7,0-1.3,0.2-1.7,0.7S-7.5,12.9-7.5,13.6z M-7.1,8
				c0,0.6,0.2,1,0.5,1.4S-5.7,10-5.1,10c0.6,0,1-0.2,1.4-0.5c0.4-0.4,0.5-0.8,0.5-1.3c0-0.5-0.2-1-0.6-1.4c-0.4-0.4-0.8-0.5-1.4-0.5
				c-0.6,0-1,0.2-1.4,0.5C-6.9,7.1-7.1,7.5-7.1,8z"/>
			<path class="st3" d="M0.2,11.1c0-1.4,0.1-2.5,0.4-3.4C1,6.9,1.4,6.2,2,5.7S3.3,5,4.1,5c0.6,0,1.2,0.1,1.7,0.4S6.7,6,7,6.5
				C7.3,7,7.6,7.6,7.7,8.3C7.9,9,8,9.9,8,11.1c0,1.4-0.1,2.5-0.4,3.4c-0.3,0.9-0.7,1.5-1.3,2C5.7,17,5,17.2,4.1,17.2
				c-1.1,0-2.1-0.4-2.7-1.2C0.6,15,0.2,13.4,0.2,11.1z M1.7,11.1c0,2,0.2,3.3,0.7,3.9c0.5,0.6,1,1,1.7,1s1.2-0.3,1.7-1
				c0.5-0.7,0.7-2,0.7-3.9c0-2-0.2-3.3-0.7-3.9c-0.5-0.6-1-1-1.7-1c-0.7,0-1.2,0.3-1.6,0.9C2,7.8,1.7,9.2,1.7,11.1z"/>
			<path class="st3" d="M9.5,11.1c0-1.4,0.1-2.5,0.4-3.4c0.3-0.9,0.7-1.5,1.3-2S12.5,5,13.4,5c0.6,0,1.2,0.1,1.7,0.4
				C15.6,5.7,16,6,16.3,6.5C16.6,7,16.8,7.6,17,8.3c0.2,0.7,0.3,1.6,0.3,2.8c0,1.4-0.1,2.5-0.4,3.4c-0.3,0.9-0.7,1.5-1.3,2
				c-0.6,0.5-1.3,0.7-2.2,0.7c-1.1,0-2.1-0.4-2.7-1.2C9.9,15,9.5,13.4,9.5,11.1z M11,11.1c0,2,0.2,3.3,0.7,3.9s1,1,1.7,1
				c0.7,0,1.2-0.3,1.7-1s0.7-2,0.7-3.9c0-2-0.2-3.3-0.7-3.9s-1-1-1.7-1c-0.7,0-1.2,0.3-1.6,0.9C11.3,7.8,11,9.2,11,11.1z"/>
		</g>
	</g>
	<g transform="translate(509.0004,635.3333)">
		<g class="st4">
			<path class="st3" d="M-36.7,19V7.4h-4.3V5.9h10.4v1.5H-35V19H-36.7z"/>
			<path class="st3" d="M-29.8,7.7V5.9h1.6v1.9H-29.8z M-29.8,19V9.5h1.6V19H-29.8z"/>
			<path class="st3" d="M-25.7,19V9.5h1.4v1.3c0.3-0.5,0.7-0.8,1.2-1.1c0.5-0.3,1.1-0.4,1.7-0.4c0.7,0,1.3,0.1,1.7,0.4
				c0.5,0.3,0.8,0.7,1,1.2c0.8-1.1,1.7-1.7,2.9-1.7c0.9,0,1.7,0.3,2.2,0.8c0.5,0.5,0.8,1.3,0.8,2.4V19h-1.6v-6
				c0-0.6-0.1-1.1-0.2-1.4s-0.3-0.5-0.6-0.7s-0.6-0.3-1-0.3c-0.7,0-1.2,0.2-1.7,0.7c-0.4,0.4-0.7,1.2-0.7,2.1V19h-1.6v-6.2
				c0-0.7-0.1-1.3-0.4-1.6c-0.3-0.4-0.7-0.5-1.3-0.5c-0.5,0-0.9,0.1-1.3,0.4c-0.4,0.2-0.7,0.6-0.8,1c-0.2,0.5-0.3,1.1-0.3,2V19
				H-25.7z"/>
			<path class="st3" d="M-3.9,15.9l1.7,0.2c-0.3,1-0.7,1.7-1.5,2.3c-0.7,0.5-1.6,0.8-2.7,0.8c-1.4,0-2.5-0.4-3.3-1.3
				s-1.2-2.1-1.2-3.6c0-1.6,0.4-2.8,1.2-3.7c0.8-0.9,1.9-1.3,3.2-1.3c1.3,0,2.3,0.4,3.1,1.3s1.2,2.1,1.2,3.7c0,0.1,0,0.2,0,0.4h-7.1
				c0.1,1,0.4,1.8,0.9,2.4s1.2,0.8,2,0.8c0.6,0,1.1-0.2,1.5-0.5C-4.5,17.1-4.2,16.6-3.9,15.9z M-9.2,13.3h5.3
				c-0.1-0.8-0.3-1.4-0.6-1.8c-0.5-0.6-1.2-0.9-2-0.9c-0.7,0-1.4,0.2-1.9,0.7C-8.9,11.8-9.2,12.5-9.2,13.3z"/>
			<path class="st3" d="M7.9,22.9c-0.9-1.1-1.6-2.4-2.3-3.9c-0.6-1.5-0.9-3.1-0.9-4.7c0-1.4,0.2-2.8,0.7-4.1c0.5-1.5,1.4-3,2.5-4.5
				h1.2C8.4,6.9,7.9,7.8,7.7,8.3C7.3,9.1,7,10,6.8,10.9c-0.3,1.1-0.4,2.2-0.4,3.4c0,2.9,0.9,5.7,2.7,8.6H7.9z"/>
			<path class="st3" d="M11,19V9.5h1.4v1.3c0.3-0.5,0.7-0.8,1.2-1.1c0.5-0.3,1.1-0.4,1.7-0.4c0.7,0,1.3,0.1,1.7,0.4
				c0.5,0.3,0.8,0.7,1,1.2c0.8-1.1,1.7-1.7,2.9-1.7c0.9,0,1.7,0.3,2.2,0.8c0.5,0.5,0.8,1.3,0.8,2.4V19h-1.6v-6
				c0-0.6-0.1-1.1-0.2-1.4s-0.3-0.5-0.6-0.7s-0.6-0.3-1-0.3c-0.7,0-1.2,0.2-1.7,0.7s-0.7,1.2-0.7,2.1V19h-1.6v-6.2
				c0-0.7-0.1-1.3-0.4-1.6c-0.3-0.4-0.7-0.5-1.3-0.5c-0.5,0-0.9,0.1-1.3,0.4c-0.4,0.2-0.7,0.6-0.8,1c-0.2,0.5-0.3,1.1-0.3,2V19H11z"
				/>
			<path class="st3" d="M25.6,16.2l1.6-0.2c0.1,0.6,0.3,1.1,0.7,1.5c0.4,0.3,1,0.5,1.7,0.5c0.7,0,1.3-0.2,1.6-0.5
				c0.4-0.3,0.5-0.7,0.5-1.1c0-0.4-0.2-0.7-0.5-0.9c-0.2-0.1-0.8-0.3-1.6-0.5c-1.2-0.3-2-0.6-2.5-0.8c-0.5-0.2-0.8-0.5-1-0.9
				c-0.2-0.4-0.4-0.8-0.4-1.3c0-0.4,0.1-0.8,0.3-1.2c0.2-0.4,0.5-0.7,0.8-0.9c0.3-0.2,0.6-0.3,1-0.5c0.4-0.1,0.9-0.2,1.4-0.2
				c0.7,0,1.4,0.1,2,0.3c0.6,0.2,1,0.5,1.2,0.9s0.5,0.9,0.6,1.5l-1.6,0.2c-0.1-0.5-0.3-0.9-0.6-1.1c-0.3-0.3-0.8-0.4-1.5-0.4
				c-0.7,0-1.3,0.1-1.6,0.4c-0.3,0.2-0.5,0.5-0.5,0.9c0,0.2,0.1,0.4,0.2,0.6c0.1,0.2,0.3,0.3,0.6,0.4c0.2,0.1,0.6,0.2,1.4,0.4
				c1.1,0.3,1.9,0.6,2.4,0.7c0.5,0.2,0.8,0.5,1.1,0.8c0.3,0.4,0.4,0.8,0.4,1.4c0,0.5-0.2,1-0.5,1.5s-0.8,0.8-1.4,1.1s-1.3,0.4-2,0.4
				c-1.2,0-2.2-0.3-2.8-0.8C26.2,17.9,25.8,17.2,25.6,16.2z"/>
			<path class="st3" d="M36.5,22.9h-1.2c1.8-2.9,2.7-5.7,2.7-8.6c0-1.1-0.1-2.2-0.4-3.3c-0.2-0.9-0.5-1.8-0.9-2.6
				c-0.2-0.5-0.7-1.4-1.4-2.7h1.2c1.1,1.5,2,3,2.5,4.5c0.5,1.3,0.7,2.7,0.7,4.1c0,1.6-0.3,3.2-0.9,4.7
				C38.1,20.4,37.3,21.7,36.5,22.9z"/>
		</g>
	</g>
	<g>
		<g>
			<rect x="127.6" y="50.6" class="st3" width="0.8" height="555.8"/>
		</g>
		<g>
			<rect x="889.6" y="50.6" class="st3" width="0.8" height="555.8"/>
		</g>
		<g>
			<rect x="127.6" y="605.6" class="st3" width="8.5" height="0.8"/>
		</g>
		<g>
			<rect x="127.6" y="513.1" class="st3" width="8.5" height="0.8"/>
		</g>
		<g>
			<rect x="127.6" y="420.6" class="st3" width="8.5" height="0.8"/>
		</g>
		<g>
			<rect x="127.6" y="328.1" class="st3" width="8.5" height="0.8"/>
		</g>
		<g>
			<rect x="127.6" y="235.6" class="st3" width="8.5" height="0.8"/>
		</g>
		<g>
			<rect x="127.6" y="143.1" class="st3" width="8.5" height="0.8"/>
		</g>
		<g>
			<rect x="127.6" y="50.6" class="st3" width="8.5" height="0.8"/>
		</g>
		<g>
			<rect x="882" y="605.6" class="st3" width="8.5" height="0.8"/>
		</g>
		<g>
			<rect x="882" y="513.1" class="st3" width="8.5" height="0.8"/>
		</g>
		<g>
			<rect x="882" y="420.6" class="st3" width="8.5" height="0.8"/>
		</g>
		<g>
			<rect x="882" y="328.1" class="st3" width="8.5" height="0.8"/>
		</g>
		<g>
			<rect x="882" y="235.6" class="st3" width="8.5" height="0.8"/>
		</g>
		<g>
			<rect x="882" y="143.1" class="st3" width="8.5" height="0.8"/>
		</g>
		<g>
			<rect x="882" y="50.6" class="st3" width="8.5" height="0.8"/>
		</g>
	</g>
	<g transform="translate(121.3333,606)">
		<g class="st4">
			<path class="st3" d="M-9.3,0.6c0-1.4,0.1-2.5,0.4-3.4c0.3-0.9,0.7-1.5,1.3-2s1.3-0.7,2.2-0.7c0.6,0,1.2,0.1,1.7,0.4
				S-2.9-4.5-2.5-4C-2.2-3.5-2-2.9-1.8-2.2c0.2,0.7,0.3,1.6,0.3,2.8C-1.5,2-1.7,3.1-2,4c-0.3,0.9-0.7,1.5-1.3,2
				c-0.6,0.5-1.3,0.7-2.2,0.7c-1.1,0-2.1-0.4-2.7-1.2C-8.9,4.5-9.3,2.9-9.3,0.6z M-7.8,0.6c0,2,0.2,3.3,0.7,3.9s1,1,1.7,1
				s1.2-0.3,1.7-1S-3,2.6-3,0.6c0-2-0.2-3.3-0.7-3.9s-1-1-1.7-1C-6.1-4.3-6.6-4-7-3.4C-7.6-2.7-7.8-1.3-7.8,0.6z"/>
		</g>
	</g>
	<g transform="translate(121.3333,513.5)">
		<g class="st4">
			<path class="st3" d="M-23.3,0.6c0-1.4,0.1-2.5,0.4-3.4c0.3-0.9,0.7-1.5,1.3-2s1.3-0.7,2.2-0.7c0.6,0,1.2,0.1,1.7,0.4
				s0.9,0.6,1.2,1.1c0.3,0.5,0.6,1.1,0.7,1.8c0.2,0.7,0.3,1.6,0.3,2.8c0,1.4-0.1,2.5-0.4,3.4c-0.3,0.9-0.7,1.5-1.3,2
				c-0.6,0.5-1.3,0.7-2.2,0.7c-1.1,0-2.1-0.4-2.7-1.2C-22.9,4.5-23.3,2.9-23.3,0.6z M-21.8,0.6c0,2,0.2,3.3,0.7,3.9s1,1,1.7,1
				s1.2-0.3,1.7-1s0.7-2,0.7-3.9c0-2-0.2-3.3-0.7-3.9s-1-1-1.7-1c-0.7,0-1.2,0.3-1.6,0.9C-21.6-2.7-21.8-1.3-21.8,0.6z"/>
			<path class="st3" d="M-13.2,6.5V4.8h1.7v1.7H-13.2z"/>
			<path class="st3" d="M-1.7,5.1v1.4h-7.9c0-0.4,0-0.7,0.2-1c0.2-0.5,0.5-1.1,1-1.6C-8,3.4-7.4,2.8-6.5,2.1C-5.2,1-4.4,0.2-3.9-0.4
				c0.5-0.6,0.7-1.2,0.7-1.8c0-0.6-0.2-1.1-0.6-1.5c-0.4-0.4-1-0.6-1.6-0.6c-0.7,0-1.3,0.2-1.7,0.6s-0.6,1-0.6,1.8L-9.3-2
				c0.1-1.1,0.5-2,1.2-2.6c0.7-0.6,1.6-0.9,2.7-0.9c1.1,0,2.1,0.3,2.7,1s1,1.4,1,2.4c0,0.5-0.1,0.9-0.3,1.4s-0.5,0.9-1,1.5
				c-0.5,0.5-1.2,1.2-2.3,2.1C-6.1,3.5-6.7,4-6.9,4.3c-0.2,0.3-0.5,0.5-0.6,0.8H-1.7z"/>
		</g>
	</g>
	<g transform="translate(121.3333,421)">
		<g class="st4">
			<path class="st3" d="M-23.3,0.6c0-1.4,0.1-2.5,0.4-3.4c0.3-0.9,0.7-1.5,1.3-2s1.3-0.7,2.2-0.7c0.6,0,1.2,0.1,1.7,0.4
				s0.9,0.6,1.2,1.1c0.3,0.5,0.6,1.1,0.7,1.8c0.2,0.7,0.3,1.6,0.3,2.8c0,1.4-0.1,2.5-0.4,3.4c-0.3,0.9-0.7,1.5-1.3,2
				c-0.6,0.5-1.3,0.7-2.2,0.7c-1.1,0-2.1-0.4-2.7-1.2C-22.9,4.5-23.3,2.9-23.3,0.6z M-21.8,0.6c0,2,0.2,3.3,0.7,3.9s1,1,1.7,1
				s1.2-0.3,1.7-1s0.7-2,0.7-3.9c0-2-0.2-3.3-0.7-3.9s-1-1-1.7-1c-0.7,0-1.2,0.3-1.6,0.9C-21.6-2.7-21.8-1.3-21.8,0.6z"/>
			<path class="st3" d="M-13.2,6.5V4.8h1.7v1.7H-13.2z"/>
			<path class="st3" d="M-4.7,6.5V3.6h-5.2V2.3l5.4-7.7h1.2v7.7h1.6v1.3h-1.6v2.9H-4.7z M-4.7,2.3v-5.4l-3.7,5.4H-4.7z"/>
		</g>
	</g>
	<g transform="translate(121.3333,328.5)">
		<g class="st4">
			<path class="st3" d="M-23.3,0.6c0-1.4,0.1-2.5,0.4-3.4c0.3-0.9,0.7-1.5,1.3-2s1.3-0.7,2.2-0.7c0.6,0,1.2,0.1,1.7,0.4
				s0.9,0.6,1.2,1.1c0.3,0.5,0.6,1.1,0.7,1.8c0.2,0.7,0.3,1.6,0.3,2.8c0,1.4-0.1,2.5-0.4,3.4c-0.3,0.9-0.7,1.5-1.3,2
				c-0.6,0.5-1.3,0.7-2.2,0.7c-1.1,0-2.1-0.4-2.7-1.2C-22.9,4.5-23.3,2.9-23.3,0.6z M-21.8,0.6c0,2,0.2,3.3,0.7,3.9s1,1,1.7,1
				s1.2-0.3,1.7-1s0.7-2,0.7-3.9c0-2-0.2-3.3-0.7-3.9s-1-1-1.7-1c-0.7,0-1.2,0.3-1.6,0.9C-21.6-2.7-21.8-1.3-21.8,0.6z"/>
			<path class="st3" d="M-13.2,6.5V4.8h1.7v1.7H-13.2z"/>
			<path class="st3" d="M-1.8-2.5l-1.5,0.1c-0.1-0.6-0.3-1-0.6-1.3c-0.4-0.4-0.9-0.6-1.5-0.6c-0.5,0-0.9,0.1-1.2,0.4
				C-7-3.5-7.3-3.1-7.6-2.4C-7.9-1.8-8-0.8-8,0.3c0.4-0.5,0.8-0.9,1.3-1.2c0.5-0.3,1-0.4,1.6-0.4c1,0,1.8,0.4,2.5,1.1
				c0.7,0.7,1,1.6,1,2.8c0,0.7-0.2,1.4-0.5,2.1c-0.3,0.6-0.8,1.1-1.3,1.5C-4,6.5-4.6,6.7-5.3,6.7c-1.2,0-2.2-0.4-3-1.3
				C-9.1,4.5-9.5,3-9.5,0.9c0-2.3,0.4-4,1.3-5c0.7-0.9,1.7-1.4,3-1.4c0.9,0,1.7,0.3,2.3,0.8S-1.9-3.4-1.8-2.5z M-7.8,2.6
				c0,0.5,0.1,1,0.3,1.4C-7.3,4.5-7,4.9-6.6,5.1s0.8,0.4,1.2,0.4c0.6,0,1.1-0.2,1.6-0.7c0.4-0.5,0.7-1.2,0.7-2
				c0-0.8-0.2-1.5-0.7-1.9s-1-0.7-1.7-0.7c-0.7,0-1.2,0.2-1.7,0.7C-7.6,1.2-7.8,1.9-7.8,2.6z"/>
		</g>
	</g>
	<g transform="translate(121.3333,236)">
		<g class="st4">
			<path class="st3" d="M-23.3,0.6c0-1.4,0.1-2.5,0.4-3.4c0.3-0.9,0.7-1.5,1.3-2s1.3-0.7,2.2-0.7c0.6,0,1.2,0.1,1.7,0.4
				s0.9,0.6,1.2,1.1c0.3,0.5,0.6,1.1,0.7,1.8c0.2,0.7,0.3,1.6,0.3,2.8c0,1.4-0.1,2.5-0.4,3.4c-0.3,0.9-0.7,1.5-1.3,2
				c-0.6,0.5-1.3,0.7-2.2,0.7c-1.1,0-2.1-0.4-2.7-1.2C-22.9,4.5-23.3,2.9-23.3,0.6z M-21.8,0.6c0,2,0.2,3.3,0.7,3.9s1,1,1.7,1
				s1.2-0.3,1.7-1s0.7-2,0.7-3.9c0-2-0.2-3.3-0.7-3.9s-1-1-1.7-1c-0.7,0-1.2,0.3-1.6,0.9C-21.6-2.7-21.8-1.3-21.8,0.6z"/>
			<path class="st3" d="M-13.2,6.5V4.8h1.7v1.7H-13.2z"/>
			<path class="st3" d="M-7.2,0c-0.6-0.2-1.1-0.5-1.4-1s-0.4-0.9-0.4-1.5C-8.9-3.3-8.6-4-8-4.6c0.6-0.6,1.5-0.9,2.5-0.9
				c1,0,1.9,0.3,2.5,0.9c0.6,0.6,1,1.3,1,2.2c0,0.6-0.1,1-0.4,1.4C-2.8-0.5-3.2-0.2-3.8,0c0.7,0.2,1.3,0.6,1.7,1.2
				c0.4,0.5,0.6,1.2,0.6,1.9c0,1-0.4,1.9-1.1,2.6c-0.7,0.7-1.7,1-2.8,1s-2.1-0.3-2.8-1C-9.1,5-9.4,4.1-9.4,3c0-0.8,0.2-1.4,0.6-1.9
				C-8.4,0.6-7.9,0.2-7.2,0z M-7.9,3.1c0,0.4,0.1,0.8,0.3,1.2C-7.4,4.7-7.1,5-6.7,5.2c0.4,0.2,0.8,0.3,1.3,0.3
				c0.7,0,1.3-0.2,1.7-0.7c0.5-0.5,0.7-1,0.7-1.7c0-0.7-0.2-1.3-0.7-1.8c-0.5-0.5-1.1-0.7-1.8-0.7c-0.7,0-1.3,0.2-1.7,0.7
				S-7.9,2.4-7.9,3.1z M-7.4-2.5c0,0.6,0.2,1,0.5,1.4c0.4,0.4,0.8,0.5,1.4,0.5c0.6,0,1-0.2,1.4-0.5c0.4-0.4,0.5-0.8,0.5-1.3
				c0-0.5-0.2-1-0.6-1.4s-0.8-0.5-1.4-0.5c-0.6,0-1,0.2-1.4,0.5C-7.3-3.4-7.4-3-7.4-2.5z"/>
		</g>
	</g>
	<g transform="translate(121.3333,143.5)">
		<g class="st4">
			<path class="st3" d="M-3.8,6.5h-1.5v-9.3c-0.4,0.3-0.8,0.7-1.4,1c-0.6,0.3-1.1,0.6-1.5,0.8v-1.4C-7.4-2.9-6.6-3.3-6-3.9
				C-5.4-4.4-5-5-4.7-5.5h0.9V6.5z"/>
		</g>
	</g>
	<g transform="translate(121.3333,51)">
		<g class="st4">
			<path class="st3" d="M-17.8,6.5h-1.5v-9.3c-0.4,0.3-0.8,0.7-1.4,1c-0.6,0.3-1.1,0.6-1.5,0.8v-1.4c0.8-0.4,1.5-0.9,2.1-1.4
				c0.6-0.5,1-1.1,1.3-1.6h0.9V6.5z"/>
			<path class="st3" d="M-13.2,6.5V4.8h1.7v1.7H-13.2z"/>
			<path class="st3" d="M-1.7,5.1v1.4h-7.9c0-0.4,0-0.7,0.2-1c0.2-0.5,0.5-1.1,1-1.6C-8,3.4-7.4,2.8-6.5,2.1C-5.2,1-4.4,0.2-3.9-0.4
				c0.5-0.6,0.7-1.2,0.7-1.8c0-0.6-0.2-1.1-0.6-1.5c-0.4-0.4-1-0.6-1.6-0.6c-0.7,0-1.3,0.2-1.7,0.6s-0.6,1-0.6,1.8L-9.3-2
				c0.1-1.1,0.5-2,1.2-2.6c0.7-0.6,1.6-0.9,2.7-0.9c1.1,0,2.1,0.3,2.7,1s1,1.4,1,2.4c0,0.5-0.1,0.9-0.3,1.4s-0.5,0.9-1,1.5
				c-0.5,0.5-1.2,1.2-2.3,2.1C-6.1,3.5-6.7,4-6.9,4.3c-0.2,0.3-0.5,0.5-0.6,0.8H-1.7z"/>
		</g>
	</g>
	<g transform="translate(92.3333,328.4997) rotate(-90)">
		<g class="st4">
			<path class="st3" d="M-53.7-9.2l1.6-0.1c0.1,0.7,0.3,1.2,0.5,1.6c0.3,0.4,0.7,0.8,1.3,1c0.6,0.3,1.3,0.4,2,0.4
				c0.7,0,1.2-0.1,1.8-0.3c0.5-0.2,0.9-0.5,1.1-0.8c0.2-0.3,0.4-0.7,0.4-1.1c0-0.4-0.1-0.8-0.4-1.1s-0.6-0.6-1.2-0.8
				c-0.4-0.1-1.1-0.4-2.3-0.6c-1.2-0.3-2.1-0.6-2.5-0.8c-0.6-0.3-1.1-0.7-1.4-1.2c-0.3-0.5-0.5-1-0.5-1.6c0-0.7,0.2-1.3,0.6-1.9
				s0.9-1,1.6-1.3s1.5-0.4,2.4-0.4c1,0,1.8,0.2,2.6,0.5s1.3,0.8,1.7,1.4c0.4,0.6,0.6,1.3,0.6,2.1l-1.7,0.1c-0.1-0.8-0.4-1.5-0.9-1.9
				s-1.3-0.6-2.3-0.6c-1.1,0-1.8,0.2-2.3,0.6c-0.5,0.4-0.7,0.8-0.7,1.4c0,0.5,0.2,0.9,0.5,1.2c0.3,0.3,1.2,0.6,2.6,0.9
				c1.4,0.3,2.4,0.6,2.9,0.8c0.8,0.4,1.3,0.8,1.7,1.3c0.4,0.5,0.5,1.2,0.5,1.9c0,0.7-0.2,1.4-0.6,2c-0.4,0.6-1,1.1-1.7,1.4
				s-1.6,0.5-2.5,0.5c-1.2,0-2.2-0.2-3-0.5c-0.8-0.3-1.4-0.9-1.9-1.6S-53.7-8.3-53.7-9.2z"/>
			<path class="st3" d="M-41.1-1.4v-13.2h1.5v1.2c0.3-0.5,0.7-0.8,1.2-1.1c0.4-0.2,1-0.4,1.6-0.4c0.8,0,1.5,0.2,2.1,0.6
				c0.6,0.4,1.1,1,1.4,1.8c0.3,0.8,0.5,1.6,0.5,2.5c0,1-0.2,1.8-0.5,2.6c-0.3,0.8-0.9,1.4-1.5,1.8s-1.4,0.6-2.1,0.6
				c-0.5,0-1-0.1-1.4-0.3c-0.4-0.2-0.8-0.5-1.1-0.9v4.6H-41.1z M-39.6-9.7c0,1.2,0.2,2.1,0.7,2.7c0.5,0.6,1.1,0.9,1.8,0.9
				c0.7,0,1.3-0.3,1.8-0.9s0.8-1.5,0.8-2.8c0-1.2-0.2-2.1-0.7-2.7c-0.5-0.6-1.1-0.9-1.8-0.9c-0.7,0-1.3,0.3-1.8,1
				C-39.3-11.9-39.6-10.9-39.6-9.7z"/>
			<path class="st3" d="M-24.4-8.1l1.7,0.2c-0.3,1-0.7,1.7-1.5,2.3s-1.6,0.8-2.7,0.8c-1.4,0-2.5-0.4-3.3-1.3
				c-0.8-0.9-1.2-2.1-1.2-3.6c0-1.6,0.4-2.8,1.2-3.7c0.8-0.9,1.9-1.3,3.2-1.3c1.3,0,2.3,0.4,3.1,1.3c0.8,0.9,1.2,2.1,1.2,3.7
				c0,0.1,0,0.2,0,0.4h-7.1c0.1,1,0.4,1.8,0.9,2.4s1.2,0.8,2,0.8c0.6,0,1.1-0.2,1.5-0.5C-24.9-6.9-24.6-7.4-24.4-8.1z M-29.7-10.7
				h5.3c-0.1-0.8-0.3-1.4-0.6-1.8c-0.5-0.6-1.2-0.9-2-0.9c-0.7,0-1.4,0.2-1.9,0.7C-29.3-12.2-29.6-11.5-29.7-10.7z"/>
			<path class="st3" d="M-14.2-8.1l1.7,0.2c-0.3,1-0.7,1.7-1.5,2.3c-0.7,0.5-1.6,0.8-2.7,0.8c-1.4,0-2.5-0.4-3.3-1.3
				s-1.2-2.1-1.2-3.6c0-1.6,0.4-2.8,1.2-3.7c0.8-0.9,1.9-1.3,3.2-1.3c1.3,0,2.3,0.4,3.1,1.3c0.8,0.9,1.2,2.1,1.2,3.7
				c0,0.1,0,0.2,0,0.4h-7.1c0.1,1,0.4,1.8,0.9,2.4s1.2,0.8,2,0.8c0.6,0,1.1-0.2,1.5-0.5C-14.7-6.9-14.4-7.4-14.2-8.1z M-19.5-10.7
				h5.3c-0.1-0.8-0.3-1.4-0.6-1.8c-0.5-0.6-1.2-0.9-2-0.9c-0.7,0-1.4,0.2-1.9,0.7C-19.1-12.2-19.4-11.5-19.5-10.7z"/>
			<path class="st3" d="M-4.3-5v-1.2C-4.9-5.3-5.8-4.8-7-4.8c-0.8,0-1.5-0.2-2.1-0.6c-0.6-0.4-1.1-1-1.5-1.8s-0.5-1.6-0.5-2.6
				c0-0.9,0.2-1.8,0.5-2.6c0.3-0.8,0.8-1.4,1.4-1.8c0.6-0.4,1.3-0.6,2.1-0.6c0.6,0,1.1,0.1,1.5,0.4c0.4,0.2,0.8,0.6,1.1,0.9v-4.7
				h1.6V-5H-4.3z M-9.4-9.7c0,1.2,0.3,2.1,0.8,2.7c0.5,0.6,1.1,0.9,1.8,0.9C-6.1-6.1-5.5-6.4-5-7s0.7-1.5,0.7-2.6
				c0-1.3-0.3-2.3-0.8-2.9c-0.5-0.6-1.1-0.9-1.9-0.9c-0.7,0-1.3,0.3-1.8,0.9S-9.4-11-9.4-9.7z"/>
			<path class="st3" d="M7.9-1.1C7-2.3,6.3-3.6,5.6-5.1C5-6.6,4.7-8.1,4.7-9.8c0-1.4,0.2-2.8,0.7-4.1c0.5-1.5,1.4-3,2.5-4.5H9
				c-0.7,1.2-1.2,2.1-1.4,2.7C7.3-14.9,7-14,6.8-13.1C6.5-12,6.4-10.9,6.4-9.7C6.4-6.9,7.3-4,9-1.1H7.9z"/>
			<path class="st3" d="M17.1-8.5l1.6,0.2c-0.2,1.1-0.6,1.9-1.3,2.6c-0.7,0.6-1.6,0.9-2.6,0.9c-1.3,0-2.3-0.4-3.1-1.3
				c-0.8-0.9-1.2-2.1-1.2-3.7c0-1,0.2-1.9,0.5-2.7c0.3-0.8,0.9-1.3,1.6-1.7c0.7-0.4,1.5-0.6,2.3-0.6c1,0,1.9,0.3,2.5,0.8
				c0.7,0.5,1.1,1.3,1.3,2.2L17-11.5c-0.1-0.6-0.4-1.1-0.8-1.4s-0.8-0.5-1.4-0.5c-0.8,0-1.5,0.3-2,0.9c-0.5,0.6-0.8,1.5-0.8,2.8
				c0,1.3,0.2,2.2,0.7,2.8c0.5,0.6,1.1,0.9,1.9,0.9c0.6,0,1.2-0.2,1.6-0.6C16.7-7.1,17-7.7,17.1-8.5z"/>
			<path class="st3" d="M20.1-5v-9.5h1.4v1.3c0.3-0.5,0.7-0.8,1.2-1.1c0.5-0.3,1.1-0.4,1.7-0.4c0.7,0,1.3,0.1,1.7,0.4
				c0.5,0.3,0.8,0.7,1,1.2c0.8-1.1,1.7-1.7,2.9-1.7c0.9,0,1.7,0.3,2.2,0.8s0.8,1.3,0.8,2.4V-5h-1.6v-6c0-0.6-0.1-1.1-0.2-1.4
				s-0.3-0.5-0.6-0.7s-0.6-0.3-1-0.3c-0.7,0-1.2,0.2-1.7,0.7c-0.4,0.4-0.7,1.2-0.7,2.1V-5h-1.6v-6.2c0-0.7-0.1-1.3-0.4-1.6
				c-0.3-0.4-0.7-0.5-1.3-0.5c-0.5,0-0.9,0.1-1.3,0.4c-0.4,0.2-0.7,0.6-0.8,1c-0.2,0.5-0.3,1.1-0.3,2V-5H20.1z"/>
			<path class="st3" d="M34.1-4.8L38-18.3h1.3L35.4-4.8H34.1z"/>
			<path class="st3" d="M39.8-7.8l1.6-0.2c0.1,0.6,0.3,1.1,0.7,1.5s1,0.5,1.7,0.5c0.7,0,1.3-0.2,1.6-0.5C45.9-6.9,46-7.2,46-7.6
				c0-0.4-0.2-0.7-0.5-0.9c-0.2-0.1-0.8-0.3-1.6-0.5c-1.2-0.3-2-0.6-2.5-0.8s-0.8-0.5-1-0.9s-0.4-0.8-0.4-1.3c0-0.4,0.1-0.8,0.3-1.2
				c0.2-0.4,0.5-0.7,0.8-0.9c0.3-0.2,0.6-0.3,1-0.5c0.4-0.1,0.9-0.2,1.4-0.2c0.7,0,1.4,0.1,2,0.3s1,0.5,1.2,0.9s0.5,0.9,0.6,1.5
				l-1.6,0.2c-0.1-0.5-0.3-0.9-0.6-1.1c-0.3-0.3-0.8-0.4-1.5-0.4c-0.7,0-1.3,0.1-1.6,0.4c-0.3,0.2-0.5,0.5-0.5,0.9
				c0,0.2,0.1,0.4,0.2,0.6c0.1,0.2,0.3,0.3,0.6,0.4c0.2,0.1,0.6,0.2,1.4,0.4c1.1,0.3,1.9,0.6,2.4,0.7c0.5,0.2,0.8,0.5,1.1,0.8
				c0.3,0.4,0.4,0.8,0.4,1.4c0,0.5-0.2,1-0.5,1.5c-0.3,0.5-0.8,0.8-1.4,1.1s-1.3,0.4-2,0.4c-1.2,0-2.2-0.3-2.8-0.8
				C40.4-6.1,40-6.8,39.8-7.8z"/>
			<path class="st3" d="M50.7-1.1h-1.2c1.8-2.9,2.7-5.7,2.7-8.6c0-1.1-0.1-2.2-0.4-3.3c-0.2-0.9-0.5-1.8-0.9-2.6
				c-0.2-0.5-0.7-1.4-1.4-2.7h1.2c1.1,1.5,2,3,2.5,4.5c0.5,1.3,0.7,2.7,0.7,4.1c0,1.6-0.3,3.2-0.9,4.7C52.3-3.6,51.6-2.3,50.7-1.1z"
				/>
		</g>
	</g>
	<g transform="translate(509.0005,48.25)">
		<g class="st4">
			<path d="M-78.6-5v-13h2.6v10.8h6.6V-5H-78.6z"/>
			<path d="M-62-8l2.5,0.4C-59.8-6.7-60.3-6-61-5.5s-1.6,0.7-2.6,0.7c-1.7,0-2.9-0.5-3.7-1.6c-0.6-0.9-0.9-2-0.9-3.3
				c0-1.6,0.4-2.8,1.2-3.7c0.8-0.9,1.9-1.3,3.1-1.3c1.4,0,2.5,0.5,3.3,1.4c0.8,0.9,1.2,2.4,1.2,4.3h-6.3c0,0.7,0.2,1.3,0.6,1.7
				c0.4,0.4,0.9,0.6,1.5,0.6c0.4,0,0.7-0.1,1-0.3S-62.1-7.5-62-8z M-61.8-10.6c0-0.7-0.2-1.3-0.6-1.7c-0.4-0.4-0.8-0.6-1.3-0.6
				c-0.5,0-1,0.2-1.4,0.6c-0.4,0.4-0.5,0.9-0.5,1.6H-61.8z"/>
			<path d="M-58.4-14.5h1.4v-0.7c0-0.8,0.1-1.4,0.3-1.8c0.2-0.4,0.5-0.7,0.9-1s1-0.4,1.7-0.4c0.7,0,1.4,0.1,2.1,0.3l-0.3,1.8
				c-0.4-0.1-0.8-0.1-1.2-0.1c-0.4,0-0.6,0.1-0.8,0.3c-0.2,0.2-0.2,0.5-0.2,1v0.7h1.9v2h-1.9V-5H-57v-7.5h-1.4V-14.5z"/>
			<path d="M-46.8-14.5v2h-1.7v3.8c0,0.8,0,1.2,0,1.4c0,0.1,0.1,0.2,0.2,0.3c0.1,0.1,0.3,0.1,0.4,0.1c0.2,0,0.6-0.1,1-0.2l0.2,2
				c-0.6,0.3-1.2,0.4-2,0.4c-0.5,0-0.9-0.1-1.2-0.2c-0.4-0.2-0.6-0.3-0.8-0.6c-0.2-0.2-0.3-0.6-0.4-1c-0.1-0.3-0.1-0.9-0.1-1.8v-4.1
				h-1.2v-2h1.2v-1.9l2.5-1.5v3.4H-46.8z"/>
			<path d="M-40-5v-13.1h4l2.4,9l2.4-9h4V-5h-2.5v-10.3L-32.4-5h-2.6l-2.6-10.3V-5H-40z"/>
			<path d="M-25.3-9.9c0-0.8,0.2-1.6,0.6-2.4c0.4-0.8,1-1.4,1.8-1.8c0.8-0.4,1.6-0.6,2.5-0.6c1.4,0,2.6,0.5,3.5,1.4
				c0.9,0.9,1.4,2.1,1.4,3.5c0,1.4-0.5,2.6-1.4,3.6c-0.9,0.9-2.1,1.4-3.5,1.4c-0.9,0-1.7-0.2-2.5-0.6c-0.8-0.4-1.4-1-1.8-1.7
				C-25.1-7.9-25.3-8.8-25.3-9.9z M-22.7-9.8c0,0.9,0.2,1.7,0.7,2.2c0.4,0.5,1,0.8,1.7,0.8c0.7,0,1.2-0.3,1.7-0.8
				c0.4-0.5,0.7-1.2,0.7-2.2c0-0.9-0.2-1.6-0.7-2.1c-0.4-0.5-1-0.8-1.7-0.8c-0.7,0-1.2,0.3-1.7,0.8C-22.5-11.4-22.7-10.7-22.7-9.8z"
				/>
			<path d="M-9.2-14.5v2h-1.7v3.8c0,0.8,0,1.2,0,1.4c0,0.1,0.1,0.2,0.2,0.3c0.1,0.1,0.3,0.1,0.4,0.1c0.2,0,0.6-0.1,1-0.2l0.2,2
				c-0.6,0.3-1.2,0.4-2,0.4c-0.5,0-0.9-0.1-1.2-0.2s-0.6-0.3-0.8-0.6c-0.2-0.2-0.3-0.6-0.4-1c-0.1-0.3-0.1-0.9-0.1-1.8v-4.1h-1.2v-2
				h1.2v-1.9l2.5-1.5v3.4H-9.2z"/>
			<path d="M-8-9.9c0-0.8,0.2-1.6,0.6-2.4c0.4-0.8,1-1.4,1.8-1.8c0.8-0.4,1.6-0.6,2.5-0.6c1.4,0,2.6,0.5,3.5,1.4
				c0.9,0.9,1.4,2.1,1.4,3.5c0,1.4-0.5,2.6-1.4,3.6c-0.9,0.9-2.1,1.4-3.5,1.4c-0.9,0-1.7-0.2-2.5-0.6c-0.8-0.4-1.4-1-1.8-1.7
				S-8-8.8-8-9.9z M-5.4-9.8c0,0.9,0.2,1.7,0.7,2.2c0.4,0.5,1,0.8,1.7,0.8s1.2-0.3,1.7-0.8C-1-8.1-0.8-8.8-0.8-9.8
				c0-0.9-0.2-1.6-0.7-2.1c-0.4-0.5-1-0.8-1.7-0.8s-1.2,0.3-1.7,0.8C-5.2-11.4-5.4-10.7-5.4-9.8z"/>
			<path d="M6.2-5H3.7v-9.5H6v1.4c0.4-0.6,0.8-1.1,1.1-1.3s0.7-0.3,1.1-0.3c0.6,0,1.1,0.2,1.7,0.5l-0.8,2.2
				c-0.4-0.3-0.8-0.4-1.2-0.4c-0.4,0-0.7,0.1-0.9,0.3c-0.2,0.2-0.4,0.5-0.6,1.1c-0.1,0.5-0.2,1.6-0.2,3.2V-5z"/>
			<path d="M15.4-9.3l2.6-0.3c0.2,0.9,0.5,1.5,0.9,1.9C19.4-7.2,20-7,20.8-7c0.9,0,1.5-0.2,1.9-0.5c0.4-0.4,0.6-0.8,0.6-1.3
				c0-0.3-0.1-0.6-0.3-0.8c-0.2-0.2-0.5-0.4-1-0.6c-0.3-0.1-1-0.3-2.1-0.6c-1.4-0.4-2.4-0.8-3-1.3c-0.8-0.7-1.2-1.6-1.2-2.6
				c0-0.7,0.2-1.3,0.6-1.9c0.4-0.6,0.9-1,1.6-1.3s1.6-0.5,2.6-0.5c1.6,0,2.9,0.4,3.7,1.1c0.8,0.7,1.3,1.7,1.3,2.9L23-14.3
				c-0.1-0.7-0.4-1.2-0.7-1.5c-0.4-0.3-0.9-0.4-1.7-0.4c-0.8,0-1.4,0.2-1.8,0.5c-0.3,0.2-0.4,0.5-0.4,0.8c0,0.3,0.1,0.6,0.4,0.8
				c0.3,0.3,1.1,0.6,2.4,0.9c1.3,0.3,2.2,0.6,2.9,0.9s1.1,0.8,1.5,1.3c0.3,0.6,0.5,1.3,0.5,2.1c0,0.8-0.2,1.5-0.6,2.1
				s-1,1.1-1.8,1.5c-0.8,0.3-1.7,0.5-2.9,0.5c-1.7,0-2.9-0.4-3.8-1.2C16.1-6.7,15.5-7.8,15.4-9.3z"/>
			<path d="M28.2-14.5h2.3v1.4c0.3-0.5,0.7-0.9,1.2-1.2c0.5-0.3,1.1-0.4,1.7-0.4c1.1,0,2,0.4,2.8,1.3s1.2,2.1,1.2,3.6
				c0,1.6-0.4,2.8-1.2,3.7s-1.7,1.3-2.8,1.3c-0.5,0-1-0.1-1.4-0.3c-0.4-0.2-0.9-0.6-1.3-1.1v4.8h-2.5V-14.5z M30.7-9.9
				c0,1.1,0.2,1.9,0.6,2.4c0.4,0.5,0.9,0.8,1.5,0.8c0.6,0,1.1-0.2,1.5-0.7c0.4-0.5,0.6-1.2,0.6-2.3c0-1-0.2-1.7-0.6-2.2
				s-0.9-0.7-1.5-0.7c-0.6,0-1.1,0.2-1.5,0.7S30.7-10.8,30.7-9.9z"/>
			<path d="M44.9-8l2.5,0.4c-0.3,0.9-0.8,1.6-1.5,2.1s-1.6,0.7-2.6,0.7c-1.7,0-2.9-0.5-3.7-1.6c-0.6-0.9-0.9-2-0.9-3.3
				c0-1.6,0.4-2.8,1.2-3.7c0.8-0.9,1.9-1.3,3.1-1.3c1.4,0,2.5,0.5,3.3,1.4c0.8,0.9,1.2,2.4,1.2,4.3h-6.3c0,0.7,0.2,1.3,0.6,1.7
				c0.4,0.4,0.9,0.6,1.5,0.6c0.4,0,0.7-0.1,1-0.3S44.8-7.5,44.9-8z M45.1-10.6c0-0.7-0.2-1.3-0.6-1.7c-0.4-0.4-0.8-0.6-1.3-0.6
				c-0.5,0-1,0.2-1.4,0.6c-0.4,0.4-0.5,0.9-0.5,1.6H45.1z"/>
			<path d="M55.1-8l2.5,0.4c-0.3,0.9-0.8,1.6-1.5,2.1s-1.6,0.7-2.6,0.7c-1.7,0-2.9-0.5-3.7-1.6c-0.6-0.9-0.9-2-0.9-3.3
				c0-1.6,0.4-2.8,1.2-3.7c0.8-0.9,1.9-1.3,3.1-1.3c1.4,0,2.5,0.5,3.3,1.4c0.8,0.9,1.2,2.4,1.2,4.3h-6.3c0,0.7,0.2,1.3,0.6,1.7
				c0.4,0.4,0.9,0.6,1.4,0.6c0.4,0,0.7-0.1,1-0.3S55-7.5,55.1-8z M55.3-10.6c0-0.7-0.2-1.3-0.6-1.7c-0.4-0.4-0.8-0.6-1.3-0.6
				c-0.5,0-1,0.2-1.4,0.6c-0.4,0.4-0.5,0.9-0.5,1.6H55.3z"/>
			<path d="M68.6-5h-2.3v-1.4c-0.4,0.5-0.8,0.9-1.4,1.2s-1.1,0.4-1.6,0.4c-1.1,0-2-0.4-2.8-1.3s-1.2-2.1-1.2-3.7
				c0-1.6,0.4-2.8,1.1-3.7s1.7-1.3,2.9-1.3c1.1,0,2,0.4,2.8,1.3v-4.7h2.5V-5z M61.8-10c0,1,0.1,1.7,0.4,2.2c0.4,0.7,1,1,1.7,1
				c0.6,0,1.1-0.2,1.5-0.7C65.8-8,66-8.7,66-9.7c0-1.1-0.2-1.9-0.6-2.4s-0.9-0.7-1.5-0.7c-0.6,0-1.1,0.2-1.5,0.7
				C62-11.6,61.8-10.9,61.8-10z"/>
			<path d="M70.1-7.7l2.5-0.4C72.8-7.6,73-7.2,73.3-7c0.3,0.3,0.8,0.4,1.4,0.4c0.7,0,1.1-0.1,1.5-0.4c0.2-0.2,0.3-0.4,0.3-0.7
				c0-0.2-0.1-0.3-0.2-0.5c-0.1-0.1-0.4-0.2-0.8-0.3c-2-0.4-3.3-0.9-3.9-1.2c-0.8-0.5-1.1-1.2-1.1-2.1c0-0.8,0.3-1.5,1-2.1
				c0.7-0.6,1.7-0.8,3-0.8c1.3,0,2.3,0.2,2.9,0.6c0.6,0.4,1.1,1,1.3,1.9l-2.4,0.4c-0.1-0.4-0.3-0.7-0.6-0.9
				c-0.3-0.2-0.7-0.3-1.2-0.3c-0.7,0-1.1,0.1-1.4,0.3c-0.2,0.1-0.3,0.3-0.3,0.5c0,0.2,0.1,0.3,0.3,0.5c0.2,0.2,1,0.4,2.4,0.7
				s2.3,0.7,2.8,1.1C78.8-9.4,79-8.8,79-8c0,0.9-0.4,1.6-1.1,2.2c-0.7,0.6-1.8,0.9-3.2,0.9c-1.3,0-2.3-0.3-3.1-0.8
				C70.9-6.1,70.4-6.8,70.1-7.7z"/>
		</g>
	</g>
	<g transform="translate(128,606)">
		<g>
			<circle class="st5" cx="0" cy="0" r="1.7"/>
		</g>
	</g>
	<g transform="translate(136.5725,536.625)">
		<g>
			<circle class="st5" cx="0" cy="0" r="1.7"/>
		</g>
	</g>
	<g transform="translate(145.145,439.5)">
		<g>
			<circle class="st5" cx="0" cy="0" r="1.7"/>
		</g>
	</g>
	<g transform="translate(153.7175,397.875)">
		<g>
			<circle class="st5" cx="0" cy="0" r="1.7"/>
		</g>
	</g>
	<g transform="translate(162.29,379.375)">
		<g>
			<circle class="st5" cx="0" cy="0" r="1.7"/>
		</g>
	</g>
	<g transform="translate(170.8625,314.625)">
		<g>
			<circle class="st5" cx="0" cy="0" r="1.7"/>
		</g>
	</g>
	<g transform="translate(179.435,314.625)">
		<g>
			<circle class="st5" cx="0" cy="0" r="1.7"/>
		</g>
	</g>
	<g transform="translate(188.0075,259.125)">
		<g>
			<circle class="st5" cx="0" cy="0" r="1.7"/>
		</g>
	</g>
	<g transform="translate(196.58,277.625)">
		<g>
			<circle class="st5" cx="0" cy="0" r="1.7"/>
		</g>
	</g>
	<g transform="translate(205.1525,226.75)">
		<g>
			<circle class="st5" cx="0" cy="0" r="1.7"/>
		</g>
	</g>
	<g transform="translate(213.725,212.875)">
		<g>
			<circle class="st5" cx="0" cy="0" r="1.7"/>
		</g>
	</g>
	<g transform="translate(222.2975,208.25)">
		<g>
			<circle class="st5" cx="0" cy="0" r="1.7"/>
		</g>
	</g>
	<g transform="translate(230.87,226.75)">
		<g>
			<circle class="st5" cx="0" cy="0" r="1.7"/>
		</g>
	</g>
	<g transform="translate(239.4425,189.75)">
		<g>
			<circle class="st5" cx="0" cy="0" r="1.7"/>
		</g>
	</g>
	<g transform="translate(248.015,236)">
		<g>
			<circle class="st5" cx="0" cy="0" r="1.7"/>
		</g>
	</g>
	<g transform="translate(256.5875,189.75)">
		<g>
			<circle class="st5" cx="0" cy="0" r="1.7"/>
		</g>
	</g>
	<g transform="translate(265.16,226.75)">
		<g>
			<circle class="st5" cx="0" cy="0" r="1.7"/>
		</g>
	</g>
	<g transform="translate(273.7325,180.5)">
		<g>
			<circle class="st5" cx="0" cy="0" r="1.7"/>
		</g>
	</g>
	<g transform="translate(282.305,212.875)">
		<g>
			<circle class="st5" cx="0" cy="0" r="1.7"/>
		</g>
	</g>
	<g transform="translate(290.8775,180.5)">
		<g>
			<circle class="st5" cx="0" cy="0" r="1.7"/>
		</g>
	</g>
	<g transform="translate(299.45,217.5)">
		<g>
			<circle class="st5" cx="0" cy="0" r="1.7"/>
		</g>
	</g>
	<g transform="translate(308.0225,171.25)">
		<g>
			<circle class="st5" cx="0" cy="0" r="1.7"/>
		</g>
	</g>
	<g transform="translate(316.595,212.875)">
		<g>
			<circle class="st5" cx="0" cy="0" r="1.7"/>
		</g>
	</g>
	<g transform="translate(325.1675,171.25)">
		<g>
			<circle class="st5" cx="0" cy="0" r="1.7"/>
		</g>
	</g>
	<g transform="translate(333.74,171.25)">
		<g>
			<circle class="st5" cx="0" cy="0" r="1.7"/>
		</g>
	</g>
	<g transform="translate(342.3125,166.625)">
		<g>
			<circle class="st5" cx="0" cy="0" r="1.7"/>
		</g>
	</g>
	<g transform="translate(350.885,199)">
		<g>
			<circle class="st5" cx="0" cy="0" r="1.7"/>
		</g>
	</g>
	<g transform="translate(359.4575,157.375)">
		<g>
			<circle class="st5" cx="0" cy="0" r="1.7"/>
		</g>
	</g>
	<g transform="translate(368.03,208.25)">
		<g>
			<circle class="st5" cx="0" cy="0" r="1.7"/>
		</g>
	</g>
	<g transform="translate(376.6025,166.625)">
		<g>
			<circle class="st5" cx="0" cy="0" r="1.7"/>
		</g>
	</g>
	<g transform="translate(385.175,208.25)">
		<g>
			<circle class="st5" cx="0" cy="0" r="1.7"/>
		</g>
	</g>
	<g transform="translate(393.7475,157.375)">
		<g>
			<circle class="st5" cx="0" cy="0" r="1.7"/>
		</g>
	</g>
	<g transform="translate(402.32,194.375)">
		<g>
			<circle class="st5" cx="0" cy="0" r="1.7"/>
		</g>
	</g>
	<g transform="translate(410.8925,152.75)">
		<g>
			<circle class="st5" cx="0" cy="0" r="1.7"/>
		</g>
	</g>
	<g transform="translate(419.465,189.75)">
		<g>
			<circle class="st5" cx="0" cy="0" r="1.7"/>
		</g>
	</g>
	<g transform="translate(428.0375,152.75)">
		<g>
			<circle class="st5" cx="0" cy="0" r="1.7"/>
		</g>
	</g>
	<g transform="translate(436.61,189.75)">
		<g>
			<circle class="st5" cx="0" cy="0" r="1.7"/>
		</g>
	</g>
	<g transform="translate(445.1825,138.875)">
		<g>
			<circle class="st5" cx="0" cy="0" r="1.7"/>
		</g>
	</g>
	<g transform="translate(453.755,175.875)">
		<g>
			<circle class="st5" cx="0" cy="0" r="1.7"/>
		</g>
	</g>
	<g transform="translate(462.3275,134.25)">
		<g>
			<circle class="st5" cx="0" cy="0" r="1.7"/>
		</g>
	</g>
	<g transform="translate(470.9,134.25)">
		<g>
			<circle class="st5" cx="0" cy="0" r="1.7"/>
		</g>
	</g>
	<g transform="translate(479.4725,129.625)">
		<g>
			<circle class="st5" cx="0" cy="0" r="1.7"/>
		</g>
	</g>
	<g transform="translate(488.045,175.875)">
		<g>
			<circle class="st5" cx="0" cy="0" r="1.7"/>
		</g>
	</g>
	<g transform="translate(496.6175,134.25)">
		<g>
			<circle class="st5" cx="0" cy="0" r="1.7"/>
		</g>
	</g>
	<g transform="translate(505.19,175.875)">
		<g>
			<circle class="st5" cx="0" cy="0" r="1.7"/>
		</g>
	</g>
	<g transform="translate(513.7625,138.875)">
		<g>
			<circle class="st5" cx="0" cy="0" r="1.7"/>
		</g>
	</g>
	<g transform="translate(522.335,180.5)">
		<g>
			<circle class="st5" cx="0" cy="0" r="1.7"/>
		</g>
	</g>
	<g transform="translate(530.9075,134.25)">
		<g>
			<circle class="st5" cx="0" cy="0" r="1.7"/>
		</g>
	</g>
	<g transform="translate(539.48,180.5)">
		<g>
			<circle class="st5" cx="0" cy="0" r="1.7"/>
		</g>
	</g>
	<g transform="translate(548.0525,134.25)">
		<g>
			<circle class="st5" cx="0" cy="0" r="1.7"/>
		</g>
	</g>
	<g transform="translate(556.625,175.875)">
		<g>
			<circle class="st5" cx="0" cy="0" r="1.7"/>
		</g>
	</g>
	<g transform="translate(565.1975,134.25)">
		<g>
			<circle class="st5" cx="0" cy="0" r="1.7"/>
		</g>
	</g>
	<g transform="translate(573.77,175.875)">
		<g>
			<circle class="st5" cx="0" cy="0" r="1.7"/>
		</g>
	</g>
	<g transform="translate(582.3425,134.25)">
		<g>
			<circle class="st5" cx="0" cy="0" r="1.7"/>
		</g>
	</g>
	<g transform="translate(590.915,138.875)">
		<g>
			<circle class="st5" cx="0" cy="0" r="1.7"/>
		</g>
	</g>
	<g transform="translate(599.4875,138.875)">
		<g>
			<circle class="st5" cx="0" cy="0" r="1.7"/>
		</g>
	</g>
	<g transform="translate(608.06,189.75)">
		<g>
			<circle class="st5" cx="0" cy="0" r="1.7"/>
		</g>
	</g>
	<g transform="translate(616.6325,138.875)">
		<g>
			<circle class="st5" cx="0" cy="0" r="1.7"/>
		</g>
	</g>
	<g transform="translate(625.205,194.375)">
		<g>
			<circle class="st5" cx="0" cy="0" r="1.7"/>
		</g>
	</g>
	<g transform="translate(633.7775,166.625)">
		<g>
			<circle class="st5" cx="0" cy="0" r="1.7"/>
		</g>
	</g>
	<g transform="translate(642.35,199)">
		<g>
			<circle class="st5" cx="0" cy="0" r="1.7"/>
		</g>
	</g>
	<g transform="translate(650.9225,157.375)">
		<g>
			<circle class="st5" cx="0" cy="0" r="1.7"/>
		</g>
	</g>
	<g transform="translate(659.495,194.375)">
		<g>
			<circle class="st5" cx="0" cy="0" r="1.7"/>
		</g>
	</g>
	<g transform="translate(668.0675,152.75)">
		<g>
			<circle class="st5" cx="0" cy="0" r="1.7"/>
		</g>
	</g>
	<g transform="translate(676.64,199)">
		<g>
			<circle class="st5" cx="0" cy="0" r="1.7"/>
		</g>
	</g>
	<g transform="translate(685.2125,148.125)">
		<g>
			<circle class="st5" cx="0" cy="0" r="1.7"/>
		</g>
	</g>
	<g transform="translate(693.785,194.375)">
		<g>
			<circle class="st5" cx="0" cy="0" r="1.7"/>
		</g>
	</g>
	<g transform="translate(702.3575,152.75)">
		<g>
			<circle class="st5" cx="0" cy="0" r="1.7"/>
		</g>
	</g>
	<g transform="translate(710.93,189.75)">
		<g>
			<circle class="st5" cx="0" cy="0" r="1.7"/>
		</g>
	</g>
	<g transform="translate(719.5025,148.125)">
		<g>
			<circle class="st5" cx="0" cy="0" r="1.7"/>
		</g>
	</g>
	<g transform="translate(728.075,157.375)">
		<g>
			<circle class="st5" cx="0" cy="0" r="1.7"/>
		</g>
	</g>
	<g transform="translate(736.6475,152.75)">
		<g>
			<circle class="st5" cx="0" cy="0" r="1.7"/>
		</g>
	</g>
	<g transform="translate(745.22,194.375)">
		<g>
			<circle class="st5" cx="0" cy="0" r="1.7"/>
		</g>
	</g>
	<g transform="translate(753.7925,152.75)">
		<g>
			<circle class="st5" cx="0" cy="0" r="1.7"/>
		</g>
	</g>
	<g transform="translate(762.365,199)">
		<g>
			<circle class="st5" cx="0" cy="0" r="1.7"/>
		</g>
	</g>
	<g transform="translate(770.9375,152.75)">
		<g>
			<circle class="st5" cx="0" cy="0" r="1.7"/>
		</g>
	</g>
	<g transform="translate(779.51,189.75)">
		<g>
			<circle class="st5" cx="0" cy="0" r="1.7"/>
		</g>
	</g>
	<g transform="translate(788.0825,148.125)">
		<g>
			<circle class="st5" cx="0" cy="0" r="1.7"/>
		</g>
	</g>
	<g transform="translate(796.655,180.5)">
		<g>
			<circle class="st5" cx="0" cy="0" r="1.7"/>
		</g>
	</g>
	<g transform="translate(805.2275,138.875)">
		<g>
			<circle class="st5" cx="0" cy="0" r="1.7"/>
		</g>
	</g>
	<g transform="translate(813.8,189.75)">
		<g>
			<circle class="st5" cx="0" cy="0" r="1.7"/>
		</g>
	</g>
	<g>
		<g>
			<polygon class="st6" points="128.4,600.2 127.6,600.1 131,567.3 134.4,537 137.9,509 141.3,483.2 144.7,459.4 148.2,437.4 
				151.6,417.1 155,398.4 158.5,381.1 161.9,365.2 165.3,350.4 168.7,336.8 172.2,324.3 175.6,312.7 179.7,299.9 183.8,288.3 
				188,277.8 192.1,268.2 196.2,259.5 200.3,251.6 205.1,243.3 209.3,236.9 213.4,231 218.2,224.9 223,219.4 227.8,214.4 232.7,210 
				238.2,205.5 244.4,201.1 251.2,196.8 258.8,192.8 267.7,189 278.1,185.3 291.1,181.8 309.7,178.1 342.6,174.3 813.8,162.2 
				813.8,163 337.2,175.6 307.7,179.3 290.6,182.7 277.6,186.3 267.4,190 259.2,193.6 252.3,197.2 246.2,200.9 239.4,205.6 
				233.9,210 229.1,214.4 224.3,219.2 219.5,224.6 215.4,229.7 211.3,235.3 207.2,241.6 203.1,248.4 199,255.9 194.9,264.2 
				191.5,271.7 188.1,279.8 184.6,288.6 181.2,298.2 177.8,308.5 174.3,319.8 170.9,331.9 167.5,345.1 164.1,359.3 160.6,374.8 
				157.2,391.5 153.8,409.6 150.4,429.3 146.9,450.5 143.5,473.6 140.1,498.6 136.6,525.6 133.2,555 129.8,586.7 			"/>
		</g>
	</g>
	<g>
		<g>
			<path class="st1" d="M877,110V64H746v46H877z"/>
		</g>
	</g>
	<g transform="translate(804.8623,76.6027)">
		<g class="st4">
			<path d="M1.1,6V-4.7h2.1l2.5,7.6C6,3.6,6.2,4.1,6.3,4.5c0.1-0.4,0.3-1,0.6-1.7l2.6-7.5h1.9V6H10v-9L6.9,6H5.6L2.5-3.1V6H1.1z"/>
			<path d="M18.8,3.5l1.4,0.2C20,4.5,19.6,5.1,19,5.5c-0.6,0.4-1.3,0.7-2.2,0.7c-1.1,0-2-0.4-2.7-1.1c-0.7-0.7-1-1.7-1-2.9
				c0-1.3,0.3-2.3,1-3S15.6-2,16.7-2c1,0,1.9,0.4,2.5,1.1c0.7,0.7,1,1.7,1,3c0,0.1,0,0.2,0,0.4h-5.8c0,0.9,0.3,1.5,0.7,2
				c0.4,0.5,1,0.7,1.6,0.7c0.5,0,0.9-0.1,1.2-0.4S18.6,4.1,18.8,3.5z M14.5,1.4h4.3c-0.1-0.7-0.2-1.1-0.5-1.5
				c-0.4-0.5-1-0.8-1.6-0.8c-0.6,0-1.1,0.2-1.5,0.6C14.8,0.1,14.5,0.7,14.5,1.4z"/>
			<path d="M26.9,5c-0.5,0.4-1,0.7-1.4,0.9C25,6.1,24.6,6.2,24,6.2c-0.9,0-1.5-0.2-2-0.6c-0.5-0.4-0.7-1-0.7-1.6
				c0-0.4,0.1-0.7,0.3-1c0.2-0.3,0.4-0.6,0.7-0.8c0.3-0.2,0.6-0.3,0.9-0.4c0.3-0.1,0.7-0.1,1.2-0.2c1.1-0.1,1.8-0.3,2.4-0.5
				c0-0.2,0-0.3,0-0.3c0-0.5-0.1-0.9-0.4-1.1c-0.3-0.3-0.8-0.4-1.5-0.4c-0.6,0-1.1,0.1-1.4,0.3c-0.3,0.2-0.5,0.6-0.7,1.2l-1.3-0.2
				c0.1-0.6,0.3-1,0.6-1.3c0.3-0.3,0.7-0.6,1.2-0.8C23.9-1.9,24.4-2,25.1-2c0.7,0,1.2,0.1,1.6,0.2s0.7,0.4,0.9,0.6
				c0.2,0.2,0.3,0.5,0.4,0.9c0,0.2,0.1,0.6,0.1,1.2v1.8c0,1.2,0,2,0.1,2.3c0.1,0.3,0.2,0.6,0.3,0.9h-1.4C27,5.7,26.9,5.4,26.9,5z
				 M26.8,2.1c-0.5,0.2-1.2,0.4-2.2,0.5c-0.5,0.1-0.9,0.2-1.1,0.3C23.3,3,23.1,3.1,23,3.3c-0.1,0.2-0.2,0.4-0.2,0.6
				c0,0.4,0.1,0.6,0.4,0.9s0.7,0.4,1.2,0.4c0.5,0,1-0.1,1.4-0.3c0.4-0.2,0.7-0.5,0.9-0.9c0.1-0.3,0.2-0.7,0.2-1.3V2.1z"/>
			<path d="M29.6,3.7l1.3-0.2C31,4,31.2,4.4,31.6,4.7C31.9,5,32.4,5.1,33,5.1c0.6,0,1.1-0.1,1.3-0.4c0.3-0.2,0.4-0.5,0.4-0.9
				c0-0.3-0.1-0.5-0.4-0.7C34.2,3,33.7,2.9,33,2.7c-1-0.2-1.6-0.5-2-0.6c-0.4-0.2-0.7-0.4-0.8-0.7c-0.2-0.3-0.3-0.7-0.3-1
				c0-0.3,0.1-0.7,0.2-1c0.2-0.3,0.4-0.5,0.6-0.7c0.2-0.2,0.5-0.3,0.8-0.4C31.9-1.9,32.3-2,32.7-2c0.6,0,1.1,0.1,1.6,0.3
				c0.5,0.2,0.8,0.4,1,0.7c0.2,0.3,0.4,0.7,0.5,1.2l-1.3,0.2C34.5,0,34.3-0.3,34-0.5s-0.7-0.3-1.2-0.3c-0.6,0-1,0.1-1.3,0.3
				c-0.3,0.2-0.4,0.4-0.4,0.7c0,0.2,0.1,0.3,0.2,0.5c0.1,0.1,0.3,0.3,0.5,0.4c0.1,0,0.5,0.2,1.2,0.3c0.9,0.2,1.6,0.5,2,0.6
				c0.4,0.2,0.7,0.4,0.9,0.7s0.3,0.7,0.3,1.1c0,0.4-0.1,0.9-0.4,1.2c-0.3,0.4-0.6,0.7-1.1,0.9c-0.5,0.2-1,0.3-1.6,0.3
				c-1,0-1.8-0.2-2.3-0.6S29.8,4.5,29.6,3.7z"/>
			<path d="M42.8,6V4.9c-0.6,0.9-1.4,1.3-2.5,1.3c-0.5,0-0.9-0.1-1.3-0.3c-0.4-0.2-0.7-0.4-0.9-0.7c-0.2-0.3-0.3-0.6-0.4-1
				C37.7,4,37.6,3.6,37.6,3v-4.8H39v4.3c0,0.7,0,1.2,0.1,1.4c0.1,0.3,0.3,0.6,0.5,0.8c0.3,0.2,0.6,0.3,1,0.3s0.8-0.1,1.1-0.3
				c0.3-0.2,0.6-0.5,0.7-0.8c0.1-0.3,0.2-0.9,0.2-1.5v-4.2h1.3V6H42.8z"/>
			<path d="M46,6v-7.8h1.2v1.2c0.3-0.6,0.6-0.9,0.8-1.1C48.3-1.9,48.6-2,48.9-2c0.4,0,0.9,0.1,1.4,0.4l-0.5,1.2
				c-0.3-0.2-0.6-0.3-1-0.3c-0.3,0-0.5,0.1-0.8,0.3c-0.2,0.2-0.4,0.4-0.5,0.7c-0.1,0.5-0.2,1-0.2,1.5V6H46z"/>
			<path d="M56.3,3.5l1.4,0.2c-0.2,0.8-0.6,1.4-1.2,1.9s-1.3,0.7-2.2,0.7c-1.1,0-2-0.4-2.7-1.1c-0.7-0.7-1-1.7-1-2.9
				c0-1.3,0.3-2.3,1-3S53.1-2,54.2-2c1,0,1.9,0.4,2.5,1.1c0.7,0.7,1,1.7,1,3c0,0.1,0,0.2,0,0.4h-5.8c0,0.9,0.3,1.5,0.7,2
				c0.4,0.5,1,0.7,1.6,0.7c0.5,0,0.9-0.1,1.2-0.4S56.1,4.1,56.3,3.5z M52,1.4h4.3c-0.1-0.7-0.2-1.1-0.5-1.5c-0.4-0.5-1-0.8-1.6-0.8
				c-0.6,0-1.1,0.2-1.5,0.6S52,0.7,52,1.4z"/>
			<path d="M64.4,6V5c-0.5,0.8-1.2,1.2-2.2,1.2c-0.6,0-1.2-0.2-1.7-0.5c-0.5-0.3-0.9-0.8-1.2-1.4c-0.3-0.6-0.4-1.3-0.4-2.1
				c0-0.8,0.1-1.5,0.4-2.1c0.3-0.6,0.6-1.1,1.2-1.5C60.9-1.8,61.5-2,62.2-2c0.5,0,0.9,0.1,1.3,0.3c0.4,0.2,0.7,0.5,0.9,0.8v-3.9h1.3
				V6H64.4z M60.2,2.1c0,1,0.2,1.7,0.6,2.2c0.4,0.5,0.9,0.7,1.5,0.7c0.6,0,1.1-0.2,1.5-0.7c0.4-0.5,0.6-1.2,0.6-2.2
				c0-1.1-0.2-1.8-0.6-2.3s-0.9-0.7-1.5-0.7c-0.6,0-1.1,0.2-1.5,0.7S60.2,1.1,60.2,2.1z"/>
		</g>
	</g>
	<g transform="translate(776.0574,76.6027)">
		<g>
			<circle class="st5" cx="0" cy="0" r="1.7"/>
		</g>
	</g>
	<g transform="translate(804.8623,97.3973)">
		<g class="st4">
			<path d="M1.2,6V-4.7h7.2v1.3H2.7v3.3h5v1.3h-5V6H1.2z"/>
			<path d="M10.2-3.2v-1.5h1.3v1.5H10.2z M10.2,6v-7.8h1.3V6H10.2z"/>
			<path d="M16.4,4.8L16.6,6c-0.4,0.1-0.7,0.1-1,0.1c-0.5,0-0.8-0.1-1.1-0.2c-0.3-0.2-0.4-0.3-0.6-0.6c-0.1-0.2-0.2-0.8-0.2-1.6
				v-4.5h-1v-1h1v-1.9L15-4.5v2.7h1.3v1H15v4.5c0,0.4,0,0.6,0.1,0.7c0,0.1,0.1,0.2,0.2,0.3s0.3,0.1,0.5,0.1
				C15.9,4.9,16.1,4.9,16.4,4.8z"/>
		</g>
	</g>
	<g>
		<g>
			<rect x="751" y="97" class="st6" width="50.1" height="0.8"/>
		</g>
	</g>
	<g>
		<g>
			<path class="st3" d="M877.4,110.4H745.6V63.6h131.8V110.4z M746.4,109.6h130.2V64.4H746.4V109.6z"/>
		</g>
	</g>
</g>
</svg>
